<svg width="42" height="42" viewBox="0 0 42 42" fill="none" xmlns="http://www.w3.org/2000/svg">
<rect width="42" height="42" rx="21" fill="#EDC22E"/>
<path d="M31.6562 12.6875H24.625C24.0186 12.6875 23.4205 12.8287 22.8781 13.0999C22.3357 13.3711 21.8639 13.7649 21.5 14.25C21.1361 13.7649 20.6643 13.3711 20.1219 13.0999C19.5795 12.8287 18.9814 12.6875 18.375 12.6875H11.3438C11.1365 12.6875 10.9378 12.7698 10.7913 12.9163C10.6448 13.0628 10.5625 13.2615 10.5625 13.4688V27.5312C10.5625 27.7385 10.6448 27.9372 10.7913 28.0837C10.9378 28.2302 11.1365 28.3125 11.3438 28.3125H18.375C18.9966 28.3125 19.5927 28.5594 20.0323 28.999C20.4718 29.4385 20.7188 30.0346 20.7188 30.6562C20.7188 30.8635 20.8011 31.0622 20.9476 31.2087C21.0941 31.3552 21.2928 31.4375 21.5 31.4375C21.7072 31.4375 21.9059 31.3552 22.0524 31.2087C22.1989 31.0622 22.2812 30.8635 22.2812 30.6562C22.2812 30.0346 22.5282 29.4385 22.9677 28.999C23.4073 28.5594 24.0034 28.3125 24.625 28.3125H31.6562C31.8635 28.3125 32.0622 28.2302 32.2087 28.0837C32.3552 27.9372 32.4375 27.7385 32.4375 27.5312V13.4688C32.4375 13.2615 32.3552 13.0628 32.2087 12.9163C32.0622 12.7698 31.8635 12.6875 31.6562 12.6875ZM18.375 26.75H12.125V14.25H18.375C18.9966 14.25 19.5927 14.4969 20.0323 14.9365C20.4718 15.376 20.7188 15.9721 20.7188 16.5938V27.5312C20.0432 27.0229 19.2204 26.7487 18.375 26.75ZM30.875 26.75H24.625C23.7796 26.7487 22.9568 27.0229 22.2812 27.5312V16.5938C22.2812 15.9721 22.5282 15.376 22.9677 14.9365C23.4073 14.4969 24.0034 14.25 24.625 14.25H30.875V26.75ZM24.625 16.5938H28.5312C28.7385 16.5938 28.9372 16.6761 29.0837 16.8226C29.2302 16.9691 29.3125 17.1678 29.3125 17.375C29.3125 17.5822 29.2302 17.7809 29.0837 17.9274C28.9372 18.0739 28.7385 18.1562 28.5312 18.1562H24.625C24.4178 18.1562 24.2191 18.0739 24.0726 17.9274C23.9261 17.7809 23.8438 17.5822 23.8438 17.375C23.8438 17.1678 23.9261 16.9691 24.0726 16.8226C24.2191 16.6761 24.4178 16.5938 24.625 16.5938ZM29.3125 20.5C29.3125 20.7072 29.2302 20.9059 29.0837 21.0524C28.9372 21.1989 28.7385 21.2812 28.5312 21.2812H24.625C24.4178 21.2812 24.2191 21.1989 24.0726 21.0524C23.9261 20.9059 23.8438 20.7072 23.8438 20.5C23.8438 20.2928 23.9261 20.0941 24.0726 19.9476C24.2191 19.8011 24.4178 19.7188 24.625 19.7188H28.5312C28.7385 19.7188 28.9372 19.8011 29.0837 19.9476C29.2302 20.0941 29.3125 20.2928 29.3125 20.5ZM29.3125 23.625C29.3125 23.8322 29.2302 24.0309 29.0837 24.1774C28.9372 24.3239 28.7385 24.4062 28.5312 24.4062H24.625C24.4178 24.4062 24.2191 24.3239 24.0726 24.1774C23.9261 24.0309 23.8438 23.8322 23.8438 23.625C23.8438 23.4178 23.9261 23.2191 24.0726 23.0726C24.2191 22.9261 24.4178 22.8438 24.625 22.8438H28.5312C28.7385 22.8438 28.9372 22.9261 29.0837 23.0726C29.2302 23.2191 29.3125 23.4178 29.3125 23.625Z" fill="white"/>
</svg>
