<svg width="40" height="51" viewBox="0 0 40 51" fill="none" xmlns="http://www.w3.org/2000/svg">
<path d="M35.0407 9.72342V2.22343C35.0407 1.97478 34.9419 1.73633 34.7661 1.56051C34.5903 1.3847 34.3519 1.28593 34.1032 1.28593C33.8546 1.28593 33.6161 1.3847 33.4403 1.56051C33.2645 1.73633 33.1657 1.97478 33.1657 2.22343V7.45311L30.3532 4.64061C27.622 1.8962 23.8313 0.348919 19.9595 0.33905V2.22343H20.0313C23.4062 2.23306 26.6393 3.5818 29.0204 5.97342L31.8407 8.78592H26.6032C26.3546 8.78592 26.1161 8.8847 25.9403 9.06051C25.7645 9.23633 25.6657 9.47478 25.6657 9.72342C25.6657 9.97206 25.7645 10.2105 25.9403 10.3863C26.1161 10.5622 26.3546 10.6609 26.6032 10.6609H34.1032C34.3519 10.6609 34.5903 10.5622 34.7661 10.3863C34.9419 10.2105 35.0407 9.97206 35.0407 9.72342Z" fill="#207581"/>
<path d="M4.95928 9.72342V2.22343C4.95928 1.97478 5.05805 1.73633 5.23387 1.56051C5.40968 1.3847 5.64814 1.28593 5.89678 1.28593C6.14542 1.28593 6.38388 1.3847 6.55969 1.56051C6.73551 1.73633 6.83428 1.97478 6.83428 2.22343V7.45311L9.64678 4.64061C12.378 1.8962 16.0874 0.348919 19.9593 0.33905L20.0405 2.22343H19.9687C16.5938 2.23306 13.3607 3.5818 10.9796 5.97342L8.15928 8.78592H13.3968C13.6454 8.78592 13.8839 8.8847 14.0597 9.06051C14.2355 9.23633 14.3343 9.47478 14.3343 9.72342C14.3343 9.97206 14.2355 10.2105 14.0597 10.3863C13.8839 10.5622 13.6454 10.6609 13.3968 10.6609H5.89678C5.64814 10.6609 5.40968 10.5622 5.23387 10.3863C5.05805 10.2105 4.95928 9.97206 4.95928 9.72342Z" fill="#207581"/>
<path d="M36.25 18.4734H25C24.0034 18.4742 23.023 18.7257 22.1492 19.205C21.2754 19.6842 20.5363 20.3756 20 21.2156C19.4637 20.3756 18.7246 19.6842 17.8508 19.205C16.977 18.7257 15.9966 18.4742 15 18.4734H3.75C3.50136 18.4734 3.2629 18.5722 3.08709 18.748C2.91127 18.9238 2.8125 19.1623 2.8125 19.4109V41.9109C2.8125 42.1596 2.91127 42.398 3.08709 42.5738C3.2629 42.7496 3.50136 42.8484 3.75 42.8484H15C16.0774 42.8484 17.1108 43.2764 17.8726 44.0383C18.6345 44.8002 19.0625 45.8335 19.0625 46.9109C19.0625 47.1596 19.1613 47.398 19.3371 47.5738C19.5129 47.7496 19.7514 47.8484 20 47.8484C20.2486 47.8484 20.4871 47.7496 20.6629 47.5738C20.8387 47.398 20.9375 47.1596 20.9375 46.9109C20.9375 45.8335 21.3655 44.8002 22.1274 44.0383C22.8892 43.2764 23.9226 42.8484 25 42.8484H36.25C36.4986 42.8484 36.7371 42.7496 36.9129 42.5738C37.0887 42.398 37.1875 42.1596 37.1875 41.9109V19.4109C37.1875 19.1623 37.0887 18.9238 36.9129 18.748C36.7371 18.5722 36.4986 18.4734 36.25 18.4734ZM15 40.9734H4.6875V20.3484H15C16.0774 20.3484 17.1108 20.7764 17.8726 21.5383C18.6345 22.3002 19.0625 23.3335 19.0625 24.4109V42.5844C17.9636 41.5485 16.5101 40.9722 15 40.9734ZM35.3125 40.9734H25C23.4897 40.9728 22.0362 41.5497 20.9375 42.5859V24.4109C20.9375 23.3335 21.3655 22.3002 22.1274 21.5383C22.8892 20.7764 23.9226 20.3484 25 20.3484H35.3125V40.9734Z" fill="#207581"/>
</svg>
