<svg width="42" height="42" viewBox="0 0 42 42" fill="none" xmlns="http://www.w3.org/2000/svg">
<rect width="42" height="42" rx="21" fill="#CD240D"/>
<path d="M23.0625 21.6718C23.0625 21.9036 22.9938 22.1302 22.865 22.3229C22.7362 22.5156 22.5532 22.6658 22.3391 22.7545C22.1249 22.8432 21.8893 22.8664 21.662 22.8212C21.4347 22.776 21.2259 22.6644 21.062 22.5005C20.8981 22.3366 20.7865 22.1278 20.7413 21.9004C20.696 21.6731 20.7193 21.4375 20.8079 21.2234C20.8966 21.0092 21.0468 20.8262 21.2396 20.6974C21.4323 20.5687 21.6588 20.4999 21.8906 20.4999C22.2014 20.4999 22.4995 20.6234 22.7193 20.8432C22.939 21.0629 23.0625 21.361 23.0625 21.6718ZM27.3594 20.4999C27.1276 20.4999 26.901 20.5687 26.7083 20.6974C26.5156 20.8262 26.3654 21.0092 26.2767 21.2234C26.188 21.4375 26.1648 21.6731 26.21 21.9004C26.2552 22.1278 26.3668 22.3366 26.5307 22.5005C26.6946 22.6644 26.9034 22.776 27.1307 22.8212C27.3581 22.8664 27.5937 22.8432 27.8078 22.7545C28.022 22.6658 28.205 22.5156 28.3337 22.3229C28.4625 22.1302 28.5312 21.9036 28.5312 21.6718C28.5312 21.361 28.4078 21.0629 28.188 20.8432C27.9682 20.6234 27.6702 20.4999 27.3594 20.4999ZM32.373 28.6513C32.4524 28.9207 32.4577 29.2065 32.3884 29.4786C32.3191 29.7508 32.1777 29.9992 31.9791 30.1978C31.7805 30.3964 31.5321 30.5378 31.2599 30.6071C30.9878 30.6764 30.702 30.6711 30.4326 30.5917L28.0195 29.8818C27.0682 30.3406 26.0338 30.6017 24.9787 30.6495C23.9236 30.6972 22.8698 30.5305 21.881 30.1594C20.8921 29.7884 19.9888 29.2207 19.2256 28.4907C18.4623 27.7606 17.8551 26.8834 17.4404 25.9121C16.5862 25.8116 15.7547 25.569 14.9805 25.1943L12.5674 25.9042C12.298 25.9836 12.0122 25.9889 11.74 25.9196C11.4679 25.8503 11.2195 25.7089 11.0209 25.5103C10.8223 25.3117 10.6809 25.0633 10.6116 24.7911C10.5423 24.519 10.5476 24.2332 10.6269 23.9638L11.3369 21.5507C10.8916 20.6139 10.6374 19.5977 10.589 18.5616C10.5406 17.5254 10.6991 16.49 11.0551 15.5157C11.4111 14.5414 11.9576 13.6478 12.6626 12.887C13.3677 12.1261 14.2172 11.5133 15.1616 11.0843C16.106 10.6552 17.1264 10.4185 18.1632 10.388C19.2 10.3575 20.2326 10.5338 21.2006 10.9065C22.1685 11.2793 23.0526 11.8411 23.8012 12.5592C24.5498 13.2772 25.1478 14.1372 25.5605 15.0888C26.7945 15.2375 27.9752 15.6785 29.0046 16.3751C30.0339 17.0717 30.8822 18.0039 31.479 19.0942C32.0757 20.1845 32.4037 21.4014 32.4358 22.6439C32.4678 23.8864 32.2029 25.1186 31.6631 26.2382L32.373 28.6513ZM16.9394 24.2402C16.7462 23.1818 16.7738 22.095 17.0205 21.0478C17.2672 20.0007 17.7277 19.0158 18.3731 18.155C19.0185 17.2942 19.8348 16.5762 20.7708 16.0458C21.7069 15.5155 22.7424 15.1844 23.8125 15.0732C23.4165 14.3542 22.8827 13.7202 22.2417 13.2075C21.6007 12.6948 20.8649 12.3133 20.0765 12.085C18.4842 11.6237 16.7739 11.8139 15.3218 12.6137C13.8697 13.4135 12.7948 14.7574 12.3335 16.3497C11.8723 17.942 12.0625 19.6524 12.8623 21.1044C12.9585 21.2842 12.9806 21.4945 12.9238 21.6904L12.125 24.4062L14.8359 23.6083C15.0318 23.5516 15.2421 23.5737 15.4219 23.6699C15.9006 23.9256 16.4108 24.1174 16.9394 24.2402ZM30.1377 25.7919C30.8444 24.4702 31.0527 22.9386 30.7244 21.4762C30.3962 20.0138 29.5534 18.718 28.3497 17.8251C27.1459 16.9322 25.6613 16.5016 24.1666 16.6118C22.6719 16.722 21.2665 17.3656 20.2067 18.4254C19.1469 19.4852 18.5033 20.8906 18.3931 22.3853C18.2829 23.88 18.7135 25.3646 19.6064 26.5684C20.4993 27.7721 21.7951 28.6149 23.2575 28.9431C24.7199 29.2714 26.2515 29.0631 27.5732 28.3564C27.753 28.2602 27.9633 28.2381 28.1592 28.2949L30.875 29.0937L30.0771 26.3828C30.0188 26.1855 30.0405 25.9732 30.1377 25.7919Z" fill="white"/>
</svg>
