<?xml version="1.0" encoding="utf-8"?>
<!-- Generator: Adobe Illustrator 25.4.1, SVG Export Plug-In . SVG Version: 6.00 Build 0)  -->
<svg version="1.1" id="Capa_1" xmlns="http://www.w3.org/2000/svg" xmlns:xlink="http://www.w3.org/1999/xlink" x="0px" y="0px"
	 viewBox="0 0 800 800" style="enable-background:new 0 0 800 800;" xml:space="preserve">
<style type="text/css">
	.st0{fill-rule:evenodd;clip-rule:evenodd;fill:#D4ECF4;}
	.st1{fill-rule:evenodd;clip-rule:evenodd;fill:#008D98;}
	.st2{clip-path:url(#SVGID_00000143581854742476983140000011985983177348425109_);}
	.st3{fill-rule:evenodd;clip-rule:evenodd;fill:#00B1CF;}
	.st4{fill-rule:evenodd;clip-rule:evenodd;fill:#009890;}
	.st5{clip-path:url(#SVGID_00000131365997300425859070000016868730111284995512_);}
	.st6{clip-path:url(#SVGID_00000034801192385714977790000007115461179512004511_);}
	.st7{fill-rule:evenodd;clip-rule:evenodd;fill:#0094A1;}
	.st8{clip-path:url(#SVGID_00000133501641297972051870000004093831578691673259_);}
	.st9{fill-rule:evenodd;clip-rule:evenodd;fill:#EE7780;}
	.st10{clip-path:url(#SVGID_00000101811980898026717810000011869261265963618452_);}
	.st11{fill-rule:evenodd;clip-rule:evenodd;fill:#F0828A;}
	.st12{fill-rule:evenodd;clip-rule:evenodd;fill:#FEE7CE;}
	.st13{fill-rule:evenodd;clip-rule:evenodd;fill:#3E4B6F;}
	.st14{clip-path:url(#SVGID_00000003808727520946398330000005756457903961492887_);}
	.st15{fill-rule:evenodd;clip-rule:evenodd;fill:#435278;}
	.st16{fill-rule:evenodd;clip-rule:evenodd;fill:#48577F;}
	.st17{clip-path:url(#SVGID_00000111154551051014553260000009289688665122270645_);}
	.st18{clip-path:url(#SVGID_00000109725133016556507590000009366793139948836287_);}
	.st19{clip-path:url(#SVGID_00000147936671434987716750000013121689582673197457_);}
	.st20{clip-path:url(#SVGID_00000103979131820186784700000010795370366666189954_);}
	.st21{fill-rule:evenodd;clip-rule:evenodd;fill:#374363;}
	.st22{fill-rule:evenodd;clip-rule:evenodd;fill:#566694;}
	.st23{fill-rule:evenodd;clip-rule:evenodd;fill:#CCD2E1;}
	.st24{fill-rule:evenodd;clip-rule:evenodd;fill:#CECECD;}
	.st25{clip-path:url(#SVGID_00000114772266780748864530000001581071582551423379_);}
	.st26{clip-path:url(#SVGID_00000178204207561355589280000010154613165162730127_);}
	.st27{clip-path:url(#SVGID_00000036938499483384362370000017698002467545117856_);}
	.st28{fill-rule:evenodd;clip-rule:evenodd;fill:#303A58;}
	.st29{clip-path:url(#SVGID_00000121255037953156462590000005317515574035618707_);}
	.st30{fill-rule:evenodd;clip-rule:evenodd;fill:#FCD095;}
	.st31{clip-path:url(#SVGID_00000152227918359371645060000006034515335009794951_);}
	.st32{fill-rule:evenodd;clip-rule:evenodd;fill:#EC636A;}
	.st33{fill-rule:evenodd;clip-rule:evenodd;fill:#C09D06;}
	.st34{clip-path:url(#SVGID_00000098198750789691140250000005377362477032042138_);}
	.st35{clip-path:url(#SVGID_00000155147807895483562180000010366047498349523354_);}
	.st36{fill-rule:evenodd;clip-rule:evenodd;fill:#E6E5D3;}
	.st37{fill-rule:evenodd;clip-rule:evenodd;fill:#83CDDC;}
	.st38{clip-path:url(#SVGID_00000058557896428166226530000015705713266824231078_);}
	.st39{fill-rule:evenodd;clip-rule:evenodd;fill:#F8FCFD;}
	.st40{clip-path:url(#SVGID_00000059304475621368303330000008421256026546185608_);}
	.st41{fill-rule:evenodd;clip-rule:evenodd;fill:#5B6A9B;}
</style>
<g>
	<g transform="matrix(1,0,0,1,-38.4064,0)">
		<path class="st0" d="M551.5,669.3c-60,32.4-368.6-60.5-408.9-213.9c-14.3-54.3,57.2-48.3,64.3-90.7c6.1-36.6-41.1-96.7-30.6-145.9
			c19.7-92.5,210.5-90.9,278.8-64.2c39.4,15.4,95.4,51.8,92.1,100.9c-1.3,20.2-12.6,35.7-0.3,55.2c12.6,20.1,32.3,31.5,49.4,47.2
			c32.6,30.1,56.7,78.7,66.8,121.5C683.4,565.7,609.2,638.2,551.5,669.3z"/>
	</g>
	<g transform="matrix(-0.130112,0.882437,0.882437,0.130112,-515.566,716.403)">
		<path class="st1" d="M-327.7,1102.6c-9.4,93.4-102.5,73.7-121.1,115c-27.2,60.3-50.3,60.7-58.1,47c-12.7-22,4.8-78.5,21.7-102.3
			C-446.4,1107.7-327.7,1102.6-327.7,1102.6z"/>
		<g>
			<defs>
				<path id="SVGID_1_" d="M-327.7,1102.6c-9.4,93.4-102.5,73.7-121.1,115c-27.2,60.3-50.3,60.7-58.1,47
					c-12.7-22,4.8-78.5,21.7-102.3C-446.4,1107.7-327.7,1102.6-327.7,1102.6z"/>
			</defs>
			<clipPath id="SVGID_00000101062815308288076440000012039580549314245001_">
				<use xlink:href="#SVGID_1_"  style="overflow:visible;"/>
			</clipPath>
			<g style="clip-path:url(#SVGID_00000101062815308288076440000012039580549314245001_);">
				<g>
					<path class="st3" d="M-504.2,1288.6c2.8-22.7,11-44.8,23.2-64.4c7.3-11.7,16-22.6,25.8-32.3c6.6-6.5,13.7-12.4,21.2-17.6
						c8.8-6.1,18.5-11.2,28.5-15.9c14.7-6.9,30-13.2,43.9-21.1c10.1-5.8,19.5-12.4,27.5-20.9c4.8-5.1,8.6-10.8,11.8-16.7
						c4.9-9,8.5-18.7,12.4-28.4c0.1-0.2,0.3-0.3,0.4-0.2c0.2,0.1,0.3,0.3,0.2,0.4c-3.8,9.7-7.3,19.5-12.2,28.6
						c-3.2,6.1-7,11.8-11.8,17c-8,8.7-17.5,15.5-27.6,21.4c-14,8.1-29.2,14.4-43.9,21.4c-9.9,4.7-19.5,9.7-28.3,15.8
						c-7.5,5.2-14.5,11-21.1,17.4c-9.8,9.5-18.5,20.3-25.8,31.8c-12.3,19.4-20.6,41.3-23.6,63.8c0,0.2-0.2,0.3-0.4,0.3
						C-504.1,1289-504.2,1288.8-504.2,1288.6z"/>
					<path class="st3" d="M-357,1153.4c-0.7-5-1.9-9.6-3.5-13.7c-0.7-1.8-1.5-3.5-2.4-5.1c-0.6-1.1-1.3-2.2-2-3.2
						c-1.8-2.5-3.8-4.8-6.3-6.8c-3.4-2.7-7.5-4.8-12.6-6.3c-0.2,0-0.3-0.2-0.2-0.4c0-0.2,0.2-0.3,0.4-0.2c5.3,1.3,9.6,3.2,13.2,5.8
						c2.7,2,5,4.3,6.8,7c0.7,1.1,1.4,2.2,2,3.3c0.9,1.7,1.7,3.5,2.3,5.4c1.5,4.3,2.4,9,2.9,14.1c0,0.2-0.1,0.3-0.3,0.4
						C-356.9,1153.7-357,1153.6-357,1153.4z"/>
					<path class="st3" d="M-390.3,1167.3c-0.6-4-1.9-7.9-3.8-11.5c-0.7-1.4-1.6-2.8-2.5-4.1c-0.6-0.9-1.3-1.7-1.9-2.6
						c-1.7-2.1-3.6-4-5.7-5.6c-3.2-2.4-6.8-4.3-10.8-5.1c-0.2,0-0.3-0.2-0.3-0.4c0-0.2,0.2-0.3,0.4-0.3c4.2,0.7,8.1,2.3,11.5,4.7
						c1.4,1,2.7,2,3.9,3.2c0.8,0.8,1.6,1.6,2.3,2.5c0.7,0.9,1.4,1.8,2,2.7c0.9,1.4,1.7,2.9,2.4,4.4c1.8,3.8,2.8,7.9,3.2,12
						c0,0.2-0.1,0.3-0.3,0.4C-390.1,1167.6-390.3,1167.5-390.3,1167.3z"/>
					<path class="st3" d="M-419.7,1180.5c-2.2-3.9-5-7.4-8.1-10.5c-1.3-1.3-2.6-2.4-3.9-3.5c-0.9-0.7-1.9-1.4-2.8-2.1
						c-2.4-1.7-5-3.2-7.7-4.4c-4-1.8-8.3-2.9-12.9-3.2c-0.2,0-0.3-0.2-0.3-0.3c0-0.2,0.2-0.3,0.3-0.3c4.7,0,9.1,0.9,13.4,2.6
						c2.8,1.1,5.5,2.6,8.1,4.3c1,0.7,2,1.4,2.9,2.2c1.4,1.2,2.7,2.4,4,3.8c3.1,3.3,5.7,7.1,7.7,11.2c0.1,0.2,0,0.4-0.1,0.4
						C-419.4,1180.7-419.6,1180.7-419.7,1180.5z"/>
					<path class="st3" d="M-445.7,1203.3c-2.5-2.6-5.2-5-8.2-7.2c-1.2-0.9-2.3-1.7-3.6-2.5c-0.8-0.5-1.6-1-2.4-1.5
						c-2.1-1.3-4.2-2.4-6.3-3.5c-3.3-1.6-6.7-2.8-10.3-3.6c-0.2,0-0.3-0.2-0.3-0.4c0-0.2,0.2-0.3,0.4-0.3c3.6,0.6,7.2,1.6,10.7,3
						c2.3,0.9,4.5,2.1,6.6,3.3c0.8,0.5,1.7,1.1,2.5,1.6c1.2,0.9,2.4,1.7,3.5,2.7c2.9,2.4,5.5,5.1,7.8,7.9c0.1,0.1,0.1,0.3,0,0.5
						C-445.4,1203.5-445.6,1203.4-445.7,1203.3z"/>
					<path class="st3" d="M-468.4,1234.1c-2.2-2.7-4.6-5.1-7.2-7.1c-1.1-0.8-2.2-1.6-3.3-2.3c-0.8-0.5-1.5-0.9-2.3-1.3
						c-2-1.1-4-2-6.2-2.7c-3.1-1-6.4-1.7-10-1.8c-0.2,0-0.3-0.1-0.3-0.3c0-0.2,0.2-0.3,0.3-0.3c3.6-0.1,7.1,0.3,10.3,1.2
						c1.4,0.4,2.7,0.8,4,1.4c0.9,0.4,1.7,0.8,2.5,1.2c0.8,0.4,1.6,0.9,2.4,1.4c1.2,0.8,2.3,1.6,3.4,2.5c2.6,2.2,4.9,4.9,6.9,7.8
						c0.1,0.1,0.1,0.4-0.1,0.5C-468.1,1234.3-468.3,1234.3-468.4,1234.1z"/>
					<path class="st3" d="M-484.5,1255.2c-2-1.2-4.1-2.2-6.1-3c-0.8-0.3-1.7-0.6-2.5-0.9c-0.6-0.2-1.1-0.4-1.7-0.5
						c-1.4-0.4-2.9-0.8-4.4-1.2c-2.2-0.5-4.4-0.8-6.7-1.1c-0.2,0-0.3-0.2-0.3-0.3c0-0.2,0.2-0.3,0.3-0.3c2.4,0,4.7,0.1,7,0.4
						c0.9,0.1,1.9,0.3,2.8,0.5c0.6,0.1,1.2,0.3,1.8,0.5c0.6,0.2,1.2,0.4,1.8,0.6c0.9,0.3,1.7,0.7,2.6,1.1c2,1,4,2.2,5.9,3.7
						c0.2,0.1,0.2,0.3,0.1,0.5C-484.1,1255.3-484.3,1255.3-484.5,1255.2z"/>
				</g>
			</g>
		</g>
	</g>
	<g transform="matrix(1,0,0,1,53.7689,31.2109)">
		<path class="st4" d="M554.6,568c6.2-1.2,12.2-3.3,18-6c1.4-0.6,2.7-1.3,4.1-2c0.6-0.3,1.1-0.6,1.7-0.9c-0.2-0.4-0.3-0.8-0.5-1.3
			c-0.3-0.8-0.5-1.6-0.7-2.4c-0.7-2.5-1.7-9.9,3.3-8.6c0.7,0.2,1.3,0.4,2,0.8c0.8,0.5,1.6,1.1,2.4,1.7c1.4,1.1,2.4,2.5,3.2,4
			l0.1-0.1c2.7-1.8,5.3-3.7,7.8-5.6c3.3-2.5,6.4-5.2,9.5-8c1.7-1.5,3.3-3.1,4.9-4.7c0.7-0.7,1.5-1.5,2.2-2.2c-0.2-2.6,0-5.1,0.6-7.5
			c1-3.5,5-4.9,7.9-2.9c0.4,0.3,0.7,0.5,1.1,0.8c0.8-0.8,1.6-1.6,2.4-2.4c2.5-2.5,5-5.1,7.6-7.6c2-2.1,4.1-4.1,6.1-6.2
			c0.6-0.6,1.2-1.2,1.7-1.8c0.4-0.4,0.8-0.9,1.3-1.3c0.2-0.2,0.4-0.5,0.6-0.7c0-0.1,0.1-0.1,0.1-0.2c0,0,0,0,0-0.1c0,0,0,0-0.1,0
			c-0.1,0-0.1,0-0.2-0.1c-0.2-0.1-0.4-0.1-0.7-0.2c-0.5-0.1-0.9-0.2-1.4-0.2c-0.5-0.1-1-0.2-1.6-0.2c-1.7-0.2-3.4-0.5-5-0.7
			c-2.1-0.3-4.1-0.6-6.2-1c-7.4-1.2-14.7-2.8-21.9-4.8c-1.5-0.4-3-0.9-4.5-1.4c-1-0.3-2-0.7-3-1c-1.1-0.4-2.2-0.7-3.4-1.1
			c-4.4-1.4-8.9-2.7-13.5-3.8l-0.1,0c-0.8,2-1.6,3.8-2.2,4.2c-3.6,3-8.7,0.4-9.9-3.9c-0.3-1-0.4-1.9-0.3-2.9l-0.1,0
			c-3.3-0.6-6.5-1-9.8-1.3c-2.6-0.3-5.1-0.4-7.7-0.5c-1.9-0.1-3.9-0.1-5.8,0c-1.4,0-2.9,0.1-4.3,0.2c-1.1,0.1-2.1,0.2-3.2,0.3
			c-0.5,2.3-1.5,4.5-3.2,6.2c-3,3-7.6,3.7-10.7,0.5c-0.9-0.9-1.5-1.9-1.9-3c-1.7,0.6-3.3,1.3-4.9,2.1c-1,0.5-1.9,1-2.9,1.6
			c-1.2,0.7-2.5,1.5-3.6,2.4c-1.6,1.1-3,2.4-4.4,3.8c-3.2,3.2-6,6.9-8,10.9c-1.8,3.6-3,7.4-3.6,11.3c-0.3,1.8-0.4,3.6-0.4,5.4
			c0,1.5,0.1,3,0.3,4.4c0.1,0.6,0.2,1.1,0.3,1.7c0.1,0.7,0.3,1.4,0.5,2c0.4,1.4,0.8,2.8,1.3,4.1c1.3,3.7,3.1,7.3,5.3,10.5
			c2,2.9,4.3,5.6,6.9,8c2.6,2.4,5.4,4.4,8.4,6.2c4.6,2.6,9.5,4.4,14.7,5.6c2.4,0.5,4.9,0.9,7.4,1.1c1.6,0.1,3.3,0.2,4.9,0.1
			c0.5,0,0.9,0,1.4,0c-0.2-0.5-0.3-1-0.5-1.5c-0.3-0.9-0.5-1.8-0.7-2.7c-0.1-0.5-0.2-0.9-0.3-1.4c-0.1-0.6-0.2-1.1-0.3-1.7
			c-0.3-2.1-0.4-7.7,3.3-6.2c0.5,0.2,1,0.5,1.4,0.9c0.8,0.6,1.4,1.3,1.9,2C552.2,561.2,553.5,564.5,554.6,568z"/>
		<g>
			<defs>
				<path id="SVGID_00000003080792524488080200000013853211472548795310_" d="M554.6,568c6.2-1.2,12.2-3.3,18-6
					c1.4-0.6,2.7-1.3,4.1-2c0.6-0.3,1.1-0.6,1.7-0.9c-0.2-0.4-0.3-0.8-0.5-1.3c-0.3-0.8-0.5-1.6-0.7-2.4c-0.7-2.5-1.7-9.9,3.3-8.6
					c0.7,0.2,1.3,0.4,2,0.8c0.8,0.5,1.6,1.1,2.4,1.7c1.4,1.1,2.4,2.5,3.2,4l0.1-0.1c2.7-1.8,5.3-3.7,7.8-5.6c3.3-2.5,6.4-5.2,9.5-8
					c1.7-1.5,3.3-3.1,4.9-4.7c0.7-0.7,1.5-1.5,2.2-2.2c-0.2-2.6,0-5.1,0.6-7.5c1-3.5,5-4.9,7.9-2.9c0.4,0.3,0.7,0.5,1.1,0.8
					c0.8-0.8,1.6-1.6,2.4-2.4c2.5-2.5,5-5.1,7.6-7.6c2-2.1,4.1-4.1,6.1-6.2c0.6-0.6,1.2-1.2,1.7-1.8c0.4-0.4,0.8-0.9,1.3-1.3
					c0.2-0.2,0.4-0.5,0.6-0.7c0-0.1,0.1-0.1,0.1-0.2c0,0,0,0,0-0.1c0,0,0,0-0.1,0c-0.1,0-0.1,0-0.2-0.1c-0.2-0.1-0.4-0.1-0.7-0.2
					c-0.5-0.1-0.9-0.2-1.4-0.2c-0.5-0.1-1-0.2-1.6-0.2c-1.7-0.2-3.4-0.5-5-0.7c-2.1-0.3-4.1-0.6-6.2-1c-7.4-1.2-14.7-2.8-21.9-4.8
					c-1.5-0.4-3-0.9-4.5-1.4c-1-0.3-2-0.7-3-1c-1.1-0.4-2.2-0.7-3.4-1.1c-4.4-1.4-8.9-2.7-13.5-3.8l-0.1,0c-0.8,2-1.6,3.8-2.2,4.2
					c-3.6,3-8.7,0.4-9.9-3.9c-0.3-1-0.4-1.9-0.3-2.9l-0.1,0c-3.3-0.6-6.5-1-9.8-1.3c-2.6-0.3-5.1-0.4-7.7-0.5
					c-1.9-0.1-3.9-0.1-5.8,0c-1.4,0-2.9,0.1-4.3,0.2c-1.1,0.1-2.1,0.2-3.2,0.3c-0.5,2.3-1.5,4.5-3.2,6.2c-3,3-7.6,3.7-10.7,0.5
					c-0.9-0.9-1.5-1.9-1.9-3c-1.7,0.6-3.3,1.3-4.9,2.1c-1,0.5-1.9,1-2.9,1.6c-1.2,0.7-2.5,1.5-3.6,2.4c-1.6,1.1-3,2.4-4.4,3.8
					c-3.2,3.2-6,6.9-8,10.9c-1.8,3.6-3,7.4-3.6,11.3c-0.3,1.8-0.4,3.6-0.4,5.4c0,1.5,0.1,3,0.3,4.4c0.1,0.6,0.2,1.1,0.3,1.7
					c0.1,0.7,0.3,1.4,0.5,2c0.4,1.4,0.8,2.8,1.3,4.1c1.3,3.7,3.1,7.3,5.3,10.5c2,2.9,4.3,5.6,6.9,8c2.6,2.4,5.4,4.4,8.4,6.2
					c4.6,2.6,9.5,4.4,14.7,5.6c2.4,0.5,4.9,0.9,7.4,1.1c1.6,0.1,3.3,0.2,4.9,0.1c0.5,0,0.9,0,1.4,0c-0.2-0.5-0.3-1-0.5-1.5
					c-0.3-0.9-0.5-1.8-0.7-2.7c-0.1-0.5-0.2-0.9-0.3-1.4c-0.1-0.6-0.2-1.1-0.3-1.7c-0.3-2.1-0.4-7.7,3.3-6.2c0.5,0.2,1,0.5,1.4,0.9
					c0.8,0.6,1.4,1.3,1.9,2C552.2,561.2,553.5,564.5,554.6,568z"/>
			</defs>
			<clipPath id="SVGID_00000088095105582998688830000012239555862426232239_">
				<use xlink:href="#SVGID_00000003080792524488080200000013853211472548795310_"  style="overflow:visible;"/>
			</clipPath>
			<g style="clip-path:url(#SVGID_00000088095105582998688830000012239555862426232239_);">
				<g transform="matrix(1,0,0,1,56.9628,2.37345)">
					<path class="st3" d="M587.7,500.1c-5.2,1.9-43,8.1-83.3,18.4c-18.5,4.7-37.5,10.3-54.2,16.8c-10.3,4-19.7,8.3-27.4,13
						c-6.5,3.9-11.9,8-15.7,12.3c-0.4,0.5-1.2,0.5-1.7,0.1c-0.5-0.4-0.5-1.2-0.1-1.7c4-4.5,9.6-8.7,16.3-12.7
						c7.9-4.6,17.4-8.9,27.9-12.9c16.8-6.3,35.9-11.8,54.5-16.4c40.4-10,78.2-15.9,83.4-17.7c0.2-0.1,0.5,0,0.5,0.2
						C588,499.8,587.9,500,587.7,500.1z"/>
					<path class="st3" d="M477.7,503.6c-2,3.8-2.8,8.3-2.8,12.8c0,1.8,0.2,3.5,0.4,5.3c0.2,1.2,0.4,2.3,0.7,3.5
						c0.7,2.9,1.8,5.7,3.2,8.2c2.2,3.9,5.2,7.3,9.1,9.3c0.2,0.1,0.2,0.3,0.1,0.4c-0.1,0.2-0.3,0.2-0.4,0.2c-4.2-1.9-7.5-5.2-10-9.2
						c-1-1.6-1.8-3.2-2.4-5c-0.4-1.1-0.8-2.3-1.1-3.5c-0.3-1.2-0.5-2.4-0.7-3.6c-0.2-1.8-0.3-3.7-0.3-5.5c0.2-4.8,1.4-9.4,3.6-13.1
						c0.1-0.2,0.3-0.2,0.4-0.1C477.8,503.2,477.8,503.4,477.7,503.6z"/>
					<path class="st3" d="M498.1,500.5c-1.3,3.1-2.3,6.6-2.8,10.1c-0.3,2.1-0.4,4.2-0.4,6.3c0.1,1.4,0.2,2.8,0.5,4.1
						c0.3,1.6,0.8,3.1,1.4,4.6c0.9,2.2,2,4.4,3.4,6.4c2.3,3.4,5.3,6.5,8.5,8.7c0.2,0.1,0.2,0.3,0.1,0.5c-0.1,0.2-0.3,0.2-0.5,0.1
						c-3.4-2.2-6.6-5.1-9.2-8.5c-1.5-2-2.8-4.3-3.8-6.6c-0.7-1.6-1.2-3.2-1.5-4.9c-0.3-1.4-0.4-2.9-0.4-4.4c0-2.1,0.2-4.3,0.6-6.5
						c0.7-3.6,2-7.1,3.5-10.2c0.1-0.2,0.3-0.2,0.4-0.2C498.1,500.1,498.2,500.3,498.1,500.5z"/>
					<path class="st3" d="M526.2,495.6c-2.7,3.3-4.4,6.9-5.2,10.6c-0.4,1.5-0.6,3.1-0.7,4.7c-0.1,1-0.1,2.1,0,3.2
						c0.1,2.6,0.5,5.2,1.2,7.8c1,3.8,2.7,7.5,4.8,11c0.1,0.2,0.1,0.4-0.1,0.5c-0.2,0.1-0.4,0.1-0.5-0.1c-2.4-3.4-4.3-7.1-5.6-11
						c-0.5-1.6-0.9-3.2-1.2-4.8c-0.2-1.1-0.3-2.2-0.4-3.3c-0.1-1.1,0-2.2,0.1-3.3c0.1-1.7,0.4-3.3,0.9-4.9c1.1-3.8,3.1-7.4,6.1-10.7
						c0.1-0.1,0.3-0.2,0.5,0C526.3,495.2,526.3,495.4,526.2,495.6z"/>
					<path class="st3" d="M545.2,500.9c-1,1.9-1.4,3.8-1.6,5.8c-0.1,1.3,0,2.6,0.2,4c0.1,1,0.4,2,0.6,2.9c0.3,1,0.5,1.9,0.9,2.9
						c0.5,1.4,1.1,2.8,1.8,4.2c0.7,1.4,1.5,2.7,2.4,3.9c0.1,0.1,0.1,0.4-0.1,0.5c-0.1,0.1-0.4,0.1-0.5-0.1c-1.6-1.9-3.2-4.1-4.4-6.5
						c-0.5-0.9-0.9-1.9-1.3-2.9c-0.2-0.7-0.5-1.4-0.6-2c-0.2-0.7-0.3-1.4-0.4-2.1c-0.1-1.1-0.2-2.2-0.1-3.2c0.1-2.7,0.9-5.2,2.4-7.6
						c0.1-0.2,0.3-0.2,0.5-0.1C545.3,500.6,545.3,500.8,545.2,500.9z"/>
					<path class="st3" d="M455.6,512.2c-0.5,1.5-0.8,3-0.8,4.6c-0.1,2.4,0.2,4.9,0.6,7.1c0.3,2.2,0.8,4.3,1.4,6.3
						c0.6,2.1,1.3,4.1,2.2,6.1c0.7,1.6,1.5,3.1,2.4,4.6c1.3,2.2,2.8,4.3,4.6,6.4c0.1,0.1,0.1,0.3,0,0.5c-0.1,0.1-0.3,0.1-0.5,0
						c-1.9-2-3.6-4-5.1-6.2c-1-1.5-1.9-3-2.7-4.6c-1-2-1.8-4.1-2.5-6.3c-0.6-2.1-1-4.3-1.3-6.6c-0.3-2.3-0.4-4.9-0.2-7.4
						c0.2-1.7,0.5-3.3,1.2-4.8c0.1-0.2,0.3-0.3,0.4-0.2C455.6,511.9,455.7,512,455.6,512.2z"/>
				</g>
			</g>
		</g>
	</g>
	<g transform="matrix(-0.127941,0.991782,-0.991782,-0.127941,2219.76,1060.91)">
		<path class="st4" d="M-364.9,1764.9c-5.7,2.8-11,6.3-15.9,10.3c-1.2,1-2.3,1.9-3.4,3c-0.5,0.4-1,0.9-1.4,1.3
			c0.3,0.4,0.5,0.7,0.8,1.1c0.5,0.7,0.9,1.4,1.3,2.2c1.3,2.3,4.1,9.2-1,9.2c-0.7,0-1.4-0.1-2.1-0.3c-0.9-0.2-1.8-0.6-2.7-1
			c-1.6-0.8-2.9-1.8-4.1-3.1l-0.1,0.1c-2.1,2.4-4.1,4.9-6.1,7.4c-2.5,3.3-4.9,6.7-7.1,10.2c-1.2,1.9-2.4,3.9-3.6,5.8
			c-0.5,0.9-1,1.8-1.5,2.7c0.9,2.4,1.3,5,1.3,7.4c0,3.7-3.6,6-6.9,4.8c-0.4-0.1-0.8-0.3-1.3-0.5c-0.6,1-1.2,2-1.7,3
			c-1.8,3.1-3.6,6.2-5.4,9.3c-1.4,2.5-2.9,5-4.3,7.5c-0.4,0.7-0.8,1.5-1.2,2.2c-0.3,0.5-0.6,1.1-0.9,1.6c-0.1,0.3-0.3,0.6-0.4,0.9
			c0,0.1-0.1,0.1-0.1,0.2c0,0,0,0,0,0.1c0,0,0,0,0.1,0c0.1,0,0.1,0,0.2,0c0.2,0,0.4,0,0.7,0c0.5,0,0.9-0.1,1.4-0.1
			c0.5-0.1,1.1-0.1,1.6-0.2c1.7-0.2,3.4-0.4,5.1-0.6c2.1-0.2,4.2-0.5,6.3-0.6c7.4-0.7,14.9-1.1,22.4-0.9c1.6,0,3.1,0.1,4.7,0.2
			c1,0.1,2.1,0.1,3.1,0.2c1.2,0.1,2.3,0.1,3.5,0.2c4.7,0.2,9.3,0.3,14,0.3l0.1,0c0.3-2.2,0.6-4.1,1-4.6c2.8-3.8,8.3-2.6,10.6,1.3
			c0.5,0.9,0.8,1.8,1,2.7l0.1,0c3.3-0.3,6.6-0.7,9.8-1.2c2.6-0.4,5.1-0.9,7.6-1.5c1.9-0.4,3.8-0.9,5.6-1.5c1.4-0.4,2.8-0.8,4.1-1.3
			c1-0.3,2-0.7,3-1.1c-0.1-2.4,0.3-4.7,1.5-6.8c2.1-3.7,6.4-5.5,10.2-3.2c1.1,0.6,1.9,1.5,2.6,2.4c1.4-1,2.8-2.1,4.2-3.3
			c0.8-0.7,1.6-1.5,2.4-2.3c1-1,2-2.1,2.9-3.2c1.2-1.5,2.3-3.1,3.3-4.8c2.3-3.9,4-8.1,4.9-12.6c0.8-3.9,1-7.9,0.6-11.9
			c-0.2-1.8-0.5-3.6-1-5.3c-0.4-1.4-0.8-2.8-1.4-4.2c-0.2-0.5-0.5-1.1-0.7-1.6c-0.3-0.6-0.7-1.2-1-1.8c-0.7-1.3-1.5-2.5-2.3-3.7
			c-2.2-3.2-4.9-6.2-7.8-8.8c-2.7-2.3-5.6-4.4-8.7-6c-3.1-1.6-6.4-2.9-9.7-3.8c-5.1-1.4-10.3-1.9-15.6-1.7c-2.5,0.1-5,0.4-7.4,0.9
			c-1.6,0.3-3.2,0.7-4.8,1.1c-0.4,0.1-0.9,0.2-1.3,0.4c0.3,0.5,0.6,0.9,0.9,1.4c0.5,0.8,0.9,1.7,1.4,2.5c0.2,0.4,0.5,0.8,0.7,1.2
			c0.2,0.5,0.5,1,0.7,1.6c0.9,2,2.3,7.4-1.6,6.9c-0.6-0.1-1.1-0.3-1.6-0.5c-0.9-0.4-1.6-0.9-2.4-1.5
			C-360.8,1770.8-363,1767.9-364.9,1764.9z"/>
		<g>
			<defs>
				<path id="SVGID_00000001644384796638827840000001195667772671556752_" d="M-364.9,1764.9c-5.7,2.8-11,6.3-15.9,10.3
					c-1.2,1-2.3,1.9-3.4,3c-0.5,0.4-1,0.9-1.4,1.3c0.3,0.4,0.5,0.7,0.8,1.1c0.5,0.7,0.9,1.4,1.3,2.2c1.3,2.3,4.1,9.2-1,9.2
					c-0.7,0-1.4-0.1-2.1-0.3c-0.9-0.2-1.8-0.6-2.7-1c-1.6-0.8-2.9-1.8-4.1-3.1l-0.1,0.1c-2.1,2.4-4.1,4.9-6.1,7.4
					c-2.5,3.3-4.9,6.7-7.1,10.2c-1.2,1.9-2.4,3.9-3.6,5.8c-0.5,0.9-1,1.8-1.5,2.7c0.9,2.4,1.3,5,1.3,7.4c0,3.7-3.6,6-6.9,4.8
					c-0.4-0.1-0.8-0.3-1.3-0.5c-0.6,1-1.2,2-1.7,3c-1.8,3.1-3.6,6.2-5.4,9.3c-1.4,2.5-2.9,5-4.3,7.5c-0.4,0.7-0.8,1.5-1.2,2.2
					c-0.3,0.5-0.6,1.1-0.9,1.6c-0.1,0.3-0.3,0.6-0.4,0.9c0,0.1-0.1,0.1-0.1,0.2c0,0,0,0,0,0.1c0,0,0,0,0.1,0c0.1,0,0.1,0,0.2,0
					c0.2,0,0.4,0,0.7,0c0.5,0,0.9-0.1,1.4-0.1c0.5-0.1,1.1-0.1,1.6-0.2c1.7-0.2,3.4-0.4,5.1-0.6c2.1-0.2,4.2-0.5,6.3-0.6
					c7.4-0.7,14.9-1.1,22.4-0.9c1.6,0,3.1,0.1,4.7,0.2c1,0.1,2.1,0.1,3.1,0.2c1.2,0.1,2.3,0.1,3.5,0.2c4.7,0.2,9.3,0.3,14,0.3l0.1,0
					c0.3-2.2,0.6-4.1,1-4.6c2.8-3.8,8.3-2.6,10.6,1.3c0.5,0.9,0.8,1.8,1,2.7l0.1,0c3.3-0.3,6.6-0.7,9.8-1.2c2.6-0.4,5.1-0.9,7.6-1.5
					c1.9-0.4,3.8-0.9,5.6-1.5c1.4-0.4,2.8-0.8,4.1-1.3c1-0.3,2-0.7,3-1.1c-0.1-2.4,0.3-4.7,1.5-6.8c2.1-3.7,6.4-5.5,10.2-3.2
					c1.1,0.6,1.9,1.5,2.6,2.4c1.4-1,2.8-2.1,4.2-3.3c0.8-0.7,1.6-1.5,2.4-2.3c1-1,2-2.1,2.9-3.2c1.2-1.5,2.3-3.1,3.3-4.8
					c2.3-3.9,4-8.1,4.9-12.6c0.8-3.9,1-7.9,0.6-11.9c-0.2-1.8-0.5-3.6-1-5.3c-0.4-1.4-0.8-2.8-1.4-4.2c-0.2-0.5-0.5-1.1-0.7-1.6
					c-0.3-0.6-0.7-1.2-1-1.8c-0.7-1.3-1.5-2.5-2.3-3.7c-2.2-3.2-4.9-6.2-7.8-8.8c-2.7-2.3-5.6-4.4-8.7-6c-3.1-1.6-6.4-2.9-9.7-3.8
					c-5.1-1.4-10.3-1.9-15.6-1.7c-2.5,0.1-5,0.4-7.4,0.9c-1.6,0.3-3.2,0.7-4.8,1.1c-0.4,0.1-0.9,0.2-1.3,0.4
					c0.3,0.5,0.6,0.9,0.9,1.4c0.5,0.8,0.9,1.7,1.4,2.5c0.2,0.4,0.5,0.8,0.7,1.2c0.2,0.5,0.5,1,0.7,1.6c0.9,2,2.3,7.4-1.6,6.9
					c-0.6-0.1-1.1-0.3-1.6-0.5c-0.9-0.4-1.6-0.9-2.4-1.5C-360.8,1770.8-363,1767.9-364.9,1764.9z"/>
			</defs>
			<clipPath id="SVGID_00000165939605421107402580000011805038997567063470_">
				<use xlink:href="#SVGID_00000001644384796638827840000001195667772671556752_"  style="overflow:visible;"/>
			</clipPath>
			<g style="clip-path:url(#SVGID_00000165939605421107402580000011805038997567063470_);">
				<g transform="matrix(1,0,0,1,56.9628,2.37345)">
					<path class="st3" d="M-492.3,1848.7c4.5-3.2,39.5-18.7,75.9-38.9c16.7-9.3,33.7-19.5,48.1-30c8.9-6.5,16.9-13,23.3-19.5
						c5.3-5.4,9.4-10.7,12-15.9c0.3-0.6,1-0.8,1.6-0.5c0.6,0.3,0.8,1,0.5,1.6c-2.7,5.3-7,10.8-12.6,16.4
						c-6.5,6.5-14.6,13.1-23.7,19.5c-14.6,10.4-31.7,20.5-48.6,29.7c-36.5,19.9-71.6,35.2-76.2,38.3c-0.2,0.1-0.4,0.1-0.6-0.1
						C-492.5,1849-492.5,1848.8-492.3,1848.7z"/>
					<path class="st3" d="M-386.9,1817.4c0.9-4.1,0.6-8.7-0.6-13.1c-0.5-1.7-1-3.4-1.8-5c-0.5-1.1-1-2.1-1.6-3.2
						c-1.4-2.6-3.1-5-5.1-7.1c-3.1-3.3-6.9-5.7-11.2-6.7c-0.2,0-0.3-0.2-0.3-0.4c0-0.2,0.2-0.3,0.4-0.3c4.5,0.8,8.6,3.1,12,6.4
						c1.3,1.3,2.5,2.7,3.6,4.2c0.7,1,1.4,2,2,3.1c0.6,1.1,1.1,2.2,1.6,3.3c0.7,1.7,1.3,3.5,1.7,5.3c1,4.7,1,9.4-0.2,13.6
						c0,0.2-0.2,0.3-0.4,0.2C-386.8,1817.8-386.9,1817.6-386.9,1817.4z"/>
					<path class="st3" d="M-405.8,1825.6c0.5-3.3,0.6-7,0.2-10.5c-0.2-2.1-0.6-4.2-1.2-6.1c-0.4-1.3-0.9-2.6-1.5-3.8
						c-0.7-1.4-1.6-2.8-2.5-4.1c-1.4-1.9-3.1-3.7-4.9-5.3c-3.1-2.7-6.7-4.9-10.4-6.3c-0.2-0.1-0.3-0.2-0.2-0.4
						c0.1-0.2,0.2-0.3,0.4-0.2c3.9,1.2,7.7,3.3,11,5.9c2,1.6,3.8,3.4,5.3,5.4c1.1,1.4,2,2.8,2.7,4.3c0.6,1.3,1.1,2.7,1.5,4.1
						c0.6,2.1,0.9,4.3,1,6.5c0.2,3.7-0.1,7.4-0.8,10.8c0,0.2-0.2,0.3-0.4,0.3C-405.7,1825.9-405.8,1825.8-405.8,1825.6z"/>
					<path class="st3" d="M-431.7,1837.4c1.8-3.9,2.5-7.8,2.4-11.6c0-1.6-0.2-3.2-0.5-4.7c-0.2-1-0.5-2-0.8-3.1
						c-0.8-2.5-1.8-4.9-3.2-7.2c-2-3.4-4.5-6.6-7.4-9.4c-0.1-0.1-0.1-0.3,0-0.5c0.1-0.1,0.3-0.1,0.5,0c3.2,2.7,6,5.8,8.2,9.2
						c0.9,1.4,1.7,2.9,2.4,4.4c0.5,1,0.9,2.1,1.2,3.1c0.3,1.1,0.6,2.1,0.8,3.2c0.3,1.6,0.4,3.3,0.4,5c-0.1,4-1.1,8-3.2,11.9
						c-0.1,0.2-0.3,0.2-0.4,0.1C-431.7,1837.8-431.7,1837.6-431.7,1837.4z"/>
					<path class="st3" d="M-451.5,1837.1c0.5-2,0.4-4,0-6c-0.2-1.3-0.7-2.6-1.2-3.8c-0.4-0.9-0.8-1.8-1.3-2.7
						c-0.5-0.9-1-1.7-1.6-2.6c-0.9-1.3-1.8-2.5-2.9-3.6c-1.1-1.2-2.2-2.2-3.3-3.2c-0.1-0.1-0.2-0.3-0.1-0.5c0.1-0.1,0.3-0.2,0.5-0.1
						c2.1,1.4,4.1,3.2,5.9,5.2c0.7,0.8,1.4,1.6,2,2.5c0.4,0.6,0.8,1.2,1.1,1.8c0.3,0.6,0.7,1.3,0.9,1.9c0.4,1,0.7,2,1,3.1
						c0.5,2.6,0.5,5.3-0.4,7.9c0,0.2-0.2,0.3-0.4,0.2C-451.4,1837.5-451.5,1837.3-451.5,1837.1z"/>
					<path class="st3" d="M-367.7,1803.4c0.1-1.5,0-3.1-0.4-4.7c-0.5-2.4-1.4-4.7-2.4-6.7c-0.9-2-1.9-3.9-3-5.8
						c-1.1-1.9-2.3-3.7-3.7-5.3c-1.1-1.4-2.2-2.6-3.5-3.9c-1.8-1.8-3.8-3.5-6-5c-0.2-0.1-0.2-0.3-0.1-0.5c0.1-0.2,0.3-0.2,0.5-0.1
						c2.3,1.4,4.5,3,6.5,4.7c1.4,1.2,2.6,2.5,3.8,3.8c1.5,1.7,2.8,3.5,4,5.4c1.1,1.9,2.1,3.9,2.9,6c0.8,2.2,1.7,4.6,2,7.1
						c0.3,1.7,0.3,3.3,0.1,4.9c0,0.2-0.2,0.3-0.4,0.3C-367.6,1803.8-367.7,1803.6-367.7,1803.4z"/>
				</g>
			</g>
		</g>
	</g>
	<g transform="matrix(0.734905,0,0,0.757197,215.809,300.295)">
		<path class="st7" d="M331.6,309.6c-6.1-3.5,33.6-63.3,39.9-84.6c5.3-17.9-4.2-36.7-5.8-54.9c-3.4-40,11.1-63.6,41.3-89.3
			c9.1-7.7,49.5-43.2,64.7-33.4c9.4,6,6.7,19.6,1.9,27.5c-11.2,18.6-25.9,33.1-26.7,56.7c-0.7,19.1,4.1,37.2,8.1,55.5
			c6.8,31.1-0.5,76.2-22.3,100.5c-5,5.6-10.8,10.5-17,14.6c-5.2,3.5-11,6.3-16.8,8.7C387.7,315.8,329.9,339.3,331.6,309.6z"/>
		<g>
			<defs>
				<path id="SVGID_00000135657762140227233140000013767290532858126993_" d="M331.6,309.6c-6.1-3.5,33.6-63.3,39.9-84.6
					c5.3-17.9-4.2-36.7-5.8-54.9c-3.4-40,11.1-63.6,41.3-89.3c9.1-7.7,49.5-43.2,64.7-33.4c9.4,6,6.7,19.6,1.9,27.5
					c-11.2,18.6-25.9,33.1-26.7,56.7c-0.7,19.1,4.1,37.2,8.1,55.5c6.8,31.1-0.5,76.2-22.3,100.5c-5,5.6-10.8,10.5-17,14.6
					c-5.2,3.5-11,6.3-16.8,8.7C387.7,315.8,329.9,339.3,331.6,309.6z"/>
			</defs>
			<clipPath id="SVGID_00000152958199823965916700000017680572165343555250_">
				<use xlink:href="#SVGID_00000135657762140227233140000013767290532858126993_"  style="overflow:visible;"/>
			</clipPath>
			<g style="clip-path:url(#SVGID_00000152958199823965916700000017680572165343555250_);">
				<g transform="matrix(1,0,0,1,37.1997,25.2432)">
					<path class="st3" d="M441.1,17.8c-8.4,7.4-18.4,16.7-27.4,26.4c-6,6.6-11.6,13.3-15.7,19.8c-8.7,13.6-15.9,28.6-21.1,44.1
						c-5.2,15.6-8.3,31.8-8.8,48c-0.3,8,0.7,16.8,1.7,25.6c1,8.6,2,17.4,1.9,25.8c-0.1,7.7-1,15.2-3.7,22
						c-6.5,16.3-15.5,28.7-26.1,39.2c-16,16-35.6,28.1-55.3,44.2c-0.1,0.1-0.3,0.1-0.5,0c-0.1-0.1-0.1-0.3,0-0.5
						c19.6-16.2,39-28.4,54.9-44.5c10.4-10.5,19.3-22.7,25.6-38.9c2.6-6.6,3.5-13.9,3.6-21.5c0-8.4-1-17.1-2-25.6
						c-1-9-2-17.8-1.7-25.9c0.6-16.3,3.8-32.6,9.1-48.3c5.3-15.6,12.6-30.6,21.4-44.3c4.2-6.5,9.8-13.2,16-19.8
						c9-9.6,19.2-18.9,27.6-26.2c0.1-0.1,0.3-0.1,0.5,0C441.2,17.5,441.2,17.7,441.1,17.8z"/>
					<path class="st3" d="M385.2,57.7c1.1,4.2,2.8,7.3,4.8,9.7c1,1.1,2,2,3.2,2.8c0.8,0.5,1.6,0.9,2.5,1.3c2.1,0.9,4.4,1.3,7,1.4
						c3.3,0.1,7-0.4,10.8-1.5c0.2-0.1,0.4,0,0.4,0.2c0.1,0.2,0,0.4-0.2,0.4c-3.9,1.3-7.6,2.2-11,2.2c-1.6,0-3.1-0.1-4.6-0.4
						c-1-0.2-2-0.5-3-0.9c-1-0.4-1.9-0.9-2.7-1.5c-1.2-0.9-2.4-1.9-3.4-3.2c-2-2.5-3.5-6-4.4-10.4c0-0.2,0.1-0.4,0.2-0.4
						C385,57.4,385.2,57.5,385.2,57.7z"/>
					<path class="st3" d="M354.2,100c2,3.8,4.7,6.8,7.9,9.2c2.2,1.6,4.5,2.9,7,4c1.9,0.8,3.8,1.4,5.8,1.9c2,0.5,4,0.9,6,1.2
						c3,0.4,6.1,0.7,9.2,0.7c3.2,0.1,6.3-0.1,9.3-0.3c0.2,0,0.3,0.1,0.4,0.3c0,0.2-0.1,0.3-0.3,0.4c-3,0.4-6.1,0.7-9.3,0.8
						c-3.1,0.1-6.3,0-9.4-0.4c-2.1-0.2-4.2-0.6-6.2-1.1c-2.1-0.5-4.1-1.2-6-2c-2.6-1.1-5-2.6-7.2-4.4c-3.1-2.6-5.7-5.8-7.7-9.9
						c-0.1-0.2,0-0.4,0.1-0.4C353.9,99.8,354.1,99.9,354.2,100z"/>
					<path class="st3" d="M346.3,150.5c4.1,3.1,8.5,5.4,12.9,7.1c3.1,1.2,6.2,2.1,9.4,2.7c2.4,0.5,4.8,0.8,7.3,1.1
						c2.4,0.2,4.9,0.4,7.3,0.4c3.6,0.1,7.3-0.1,11.1-0.4c3.7-0.3,7.3-0.7,11-1.3c0.2,0,0.3,0.1,0.4,0.3c0,0.2-0.1,0.3-0.3,0.4
						c-6.2,1.2-12.4,2.1-18.5,2.4c-2.5,0.1-5,0.2-7.5,0.1c-1.7-0.1-3.3-0.2-5-0.4c-1.7-0.2-3.3-0.4-5-0.8c-2.5-0.5-4.9-1.1-7.3-2
						c-5.7-2-11.1-4.9-16.3-9.1c-0.1-0.1-0.2-0.3-0.1-0.5C345.9,150.4,346.1,150.4,346.3,150.5z"/>
					<path class="st3" d="M347.2,205.4c4.3,2.6,8.4,4.4,12.2,5.6c3,0.9,5.9,1.5,8.7,1.9c2.2,0.3,4.5,0.4,6.7,0.4
						c2.2,0,4.5,0,6.7-0.1c3.3-0.2,6.6-0.4,10.2-0.6c3.2-0.2,6.6-0.4,10.2-0.5c0.2,0,0.3,0.1,0.3,0.3c0,0.2-0.1,0.3-0.3,0.3
						c-3.6,0.2-6.9,0.6-10.1,0.9c-3.5,0.4-6.9,0.8-10.2,1c-2.3,0.2-4.6,0.3-6.9,0.2c-2.3,0-4.6-0.2-6.9-0.5
						c-2.9-0.4-5.9-1.1-8.9-2.2c-3.9-1.4-7.9-3.4-12.2-6.3c-0.2-0.1-0.2-0.3-0.1-0.5C346.8,205.4,347,205.3,347.2,205.4z"/>
					<path class="st3" d="M332.2,247.2c3.3,2.7,6.7,4.9,10.1,6.6c1.4,0.7,2.9,1.4,4.4,2c1,0.4,2,0.7,3,1.1c2.5,0.8,5.1,1.5,7.8,2
						c3.8,0.7,7.8,1,12.1,1.1c0.2,0,0.3,0.1,0.3,0.3c0,0.2-0.1,0.3-0.3,0.3c-4.3,0.2-8.4,0.1-12.3-0.4c-1.7-0.2-3.3-0.5-4.9-0.9
						c-1.1-0.3-2.1-0.6-3.2-0.9c-1-0.3-2.1-0.7-3.1-1.2c-1.5-0.6-3-1.4-4.5-2.2c-3.4-1.9-6.7-4.4-9.9-7.3c-0.1-0.1-0.2-0.3,0-0.5
						C331.9,247.1,332.1,247.1,332.2,247.2z"/>
					<path class="st3" d="M315.7,276.3c1.2,0.7,2.5,1.4,3.7,2.1c0.8,0.5,1.7,0.9,2.5,1.3c0.6,0.3,1.1,0.6,1.7,0.9
						c0.8,0.4,1.6,0.9,2.5,1.3c1.5,0.7,3,1.4,4.7,1.8c0.2,0,0.3,0.2,0.3,0.4c0,0.2-0.2,0.3-0.4,0.3c-1.7-0.2-3.4-0.6-5-1.2
						c-1.1-0.4-2.2-0.8-3.2-1.4c-0.4-0.2-0.8-0.4-1.2-0.7c-0.6-0.4-1.2-0.7-1.7-1.1c-1.4-1-2.7-2.1-4.1-3.1
						c-0.1-0.1-0.2-0.3-0.1-0.5C315.4,276.3,315.6,276.2,315.7,276.3z"/>
				</g>
			</g>
		</g>
	</g>
	<g transform="matrix(1,0,0,1,53.7689,31.2109)">
		<g transform="matrix(1,0,0,1,0,-1)">
			<path class="st9" d="M85,575.6h8.3v56.1H85v7.8h415.8c3.6,0,7.1-1.4,9.7-4c2.6-2.6,4-6,4-9.7c0-12.7,0-31.6,0-44.3
				c0-3.6-1.4-7.1-4-9.7c-2.6-2.6-6-4-9.7-4c-73.3,0-415.8,0-415.8,0V575.6z"/>
			<g>
				<defs>
					<path id="SVGID_00000057110747142894211610000000694280677708279716_" d="M85,575.6h8.3v56.1H85v7.8h415.8c3.6,0,7.1-1.4,9.7-4
						c2.6-2.6,4-6,4-9.7c0-12.7,0-31.6,0-44.3c0-3.6-1.4-7.1-4-9.7c-2.6-2.6-6-4-9.7-4c-73.3,0-415.8,0-415.8,0V575.6z"/>
				</defs>
				<clipPath id="SVGID_00000179622369501230308310000003412775024539454086_">
					<use xlink:href="#SVGID_00000057110747142894211610000000694280677708279716_"  style="overflow:visible;"/>
				</clipPath>
				<g style="clip-path:url(#SVGID_00000179622369501230308310000003412775024539454086_);">
					<g transform="matrix(1.20199,0,0,1.12207,-257.541,-207.878)">
						<rect x="274.3" y="691.3" class="st11" width="206.4" height="63.9"/>
					</g>
					<g transform="matrix(1.0656,0,0,1,-65.7507,0)">
						<path class="st12" d="M136.2,575.6h203.1c5.2,0,9.5,4.5,9.5,10.1v36.1c0,5.6-4.2,10.1-9.5,10.1H136.2V575.6z"/>
					</g>
				</g>
			</g>
		</g>
		<g transform="matrix(-1,0,0,1,1879.04,-313.095)">
			<path class="st11" d="M1377.2,894.2c0-2.6,2.1-4.8,4.8-4.8c25.3,0,143.1,0,168.4,0c2.6,0,4.8,2.1,4.8,4.8c0,1.9,0,4.1,0,6.1
				c0,2.6-2.1,4.8-4.8,4.8c-25.3,0-143.1,0-168.4,0c-2.6,0-4.8-2.1-4.8-4.8C1377.2,898.4,1377.2,896.1,1377.2,894.2z"/>
		</g>
		<g transform="matrix(1,0,0,1,0,-1)">
			<g transform="matrix(-0.897604,0,0,0.823932,1896.75,448.125)">
				<path class="st13" d="M1549.1,239.6h8.3v56.1h-8.3v7.8h414.3c4,0,7.9-1.7,10.8-4.9c2.9-3.1,4.5-7.3,4.5-11.7
					c0-11.6,0-26.9,0-38.5c0-4.4-1.6-8.6-4.5-11.7c-2.9-3.1-6.7-4.9-10.8-4.9c-76.4,0-414.3,0-414.3,0V239.6z"/>
				<g>
					<defs>
						<path id="SVGID_00000138558383426589857760000012658909218945261699_" d="M1549.1,239.6h8.3v56.1h-8.3v7.8h414.3
							c4,0,7.9-1.7,10.8-4.9c2.9-3.1,4.5-7.3,4.5-11.7c0-11.6,0-26.9,0-38.5c0-4.4-1.6-8.6-4.5-11.7c-2.9-3.1-6.7-4.9-10.8-4.9
							c-76.4,0-414.3,0-414.3,0V239.6z"/>
					</defs>
					<clipPath id="SVGID_00000124120866891893318350000010587618529760633246_">
						<use xlink:href="#SVGID_00000138558383426589857760000012658909218945261699_"  style="overflow:visible;"/>
					</clipPath>
					<g style="clip-path:url(#SVGID_00000124120866891893318350000010587618529760633246_);">
						<g transform="matrix(1.20199,0,0,1.12207,-257.541,-207.878)">
							<rect x="1492.4" y="455.8" class="st15" width="206.4" height="-63.9"/>
						</g>
						<g transform="matrix(1.0656,0,0,1,-65.7507,0)">
							<path class="st12" d="M1510.2,239.6h202c5.8,0,10.6,5.5,10.6,12.3v31.8c0,6.8-4.7,12.3-10.6,12.3c-42.9,0-202,0-202,0V239.6z
								"/>
						</g>
					</g>
				</g>
			</g>
			<g transform="matrix(-0.851542,0,0,1,2209.9,-130.079)">
				<path class="st16" d="M2254.3,784.2c0-2.6,2.5-4.8,5.6-4.8c26.6,0,140,0,166.7,0c3.1,0,5.6,2.1,5.6,4.8c0,1.9,0,4.1,0,6.1
					c0,2.6-2.5,4.8-5.6,4.8c-26.7,0-140,0-166.7,0c-3.1,0-5.6-2.1-5.6-4.8C2254.3,788.4,2254.3,786.2,2254.3,784.2z"/>
			</g>
		</g>
		<g transform="matrix(1,0,0,1,103.037,-582.898)">
			<path class="st9" d="M411.5,1055.1v-6.4h-396c-2.8,0-5.5,1.1-7.4,3.1c-2,2-3.1,4.6-3.1,7.4v29.7c0,2.8,1.1,5.5,3.1,7.4
				s4.6,3.1,7.4,3.1h396v-5.6h-12.8v-38.7H411.5z"/>
			<g>
				<defs>
					<path id="SVGID_00000062887689655791918060000018334750822432326308_" d="M411.5,1055.1v-6.4h-396c-2.8,0-5.5,1.1-7.4,3.1
						c-2,2-3.1,4.6-3.1,7.4v29.7c0,2.8,1.1,5.5,3.1,7.4s4.6,3.1,7.4,3.1h396v-5.6h-12.8v-38.7H411.5z"/>
				</defs>
				<clipPath id="SVGID_00000090999811656348737390000001033827324244409771_">
					<use xlink:href="#SVGID_00000062887689655791918060000018334750822432326308_"  style="overflow:visible;"/>
				</clipPath>
				<g style="clip-path:url(#SVGID_00000090999811656348737390000001033827324244409771_);">
					<path class="st11" d="M411.5,1055.1v-6.4H201.6v50.7h209.8v-5.6h-12.8v-38.7H411.5z"/>
					<g>
						<defs>
							<polygon id="SVGID_00000049931200339991242370000013200673274698087821_" points="411.5,1055.1 411.5,1048.8 201.6,1048.8 
								201.6,1099.5 411.5,1099.5 411.5,1093.9 398.6,1093.9 398.6,1055.1 							"/>
						</defs>
						<clipPath id="SVGID_00000111905847005107201370000010130584222525159613_">
							<use xlink:href="#SVGID_00000049931200339991242370000013200673274698087821_"  style="overflow:visible;"/>
						</clipPath>
						<g style="clip-path:url(#SVGID_00000111905847005107201370000010130584222525159613_);">
							<g transform="matrix(1,0,0,1.06063,-1.38556e-13,-113.062)">
								<path class="st12" d="M208.2,1109.7c0-4.6,3.9-8.3,8.8-8.3h194.5v36.5H217c-4.9,0-8.8-3.7-8.8-8.3V1109.7z"/>
							</g>
						</g>
					</g>
				</g>
			</g>
			<path class="st11" d="M15.8,1057.3c0-2.6,2.1-4.8,4.8-4.8c25.3,0,143.1,0,168.4,0c2.6,0,4.8,2.1,4.8,4.8c0,1.9,0,4.1,0,6.1
				c0,2.6-2.1,4.8-4.8,4.8c-25.3,0-143.1,0-168.4,0c-2.6,0-4.8-2.1-4.8-4.8C15.8,1061.4,15.8,1059.2,15.8,1057.3z"/>
		</g>
		<g transform="matrix(1,0,0,1,-3.6712,-459.322)">
			<g transform="matrix(-1,0,0,1,1899.36,4.37557)">
				<path class="st13" d="M1796.1,977.8v-6.4h-396c-2.8,0-5.5,1.1-7.4,3.1c-2,2-3.1,4.6-3.1,7.4v29.7c0,2.8,1.1,5.5,3.1,7.4
					c2,2,4.6,3.1,7.4,3.1h396v-5.6h-12.8v-38.7H1796.1z"/>
				<g>
					<defs>
						<path id="SVGID_00000062159380915301802190000004554566679014229381_" d="M1796.1,977.8v-6.4h-396c-2.8,0-5.5,1.1-7.4,3.1
							c-2,2-3.1,4.6-3.1,7.4v29.7c0,2.8,1.1,5.5,3.1,7.4c2,2,4.6,3.1,7.4,3.1h396v-5.6h-12.8v-38.7H1796.1z"/>
					</defs>
					<clipPath id="SVGID_00000183961902744142460920000008509877725970255029_">
						<use xlink:href="#SVGID_00000062159380915301802190000004554566679014229381_"  style="overflow:visible;"/>
					</clipPath>
					<g style="clip-path:url(#SVGID_00000183961902744142460920000008509877725970255029_);">
						<path class="st15" d="M1796.1,977.8v-6.4h-209.8v50.7h209.8v-5.6h-12.8v-38.7H1796.1z"/>
						<g>
							<defs>
								<polygon id="SVGID_00000011011455292483298530000001770083336155811219_" points="1796.1,977.8 1796.1,971.5 1586.3,971.5 
									1586.3,1022.2 1796.1,1022.2 1796.1,1016.6 1783.3,1016.6 1783.3,977.8 								"/>
							</defs>
							<clipPath id="SVGID_00000077285764630973133950000005499737272732818585_">
								<use xlink:href="#SVGID_00000011011455292483298530000001770083336155811219_"  style="overflow:visible;"/>
							</clipPath>
							<g style="clip-path:url(#SVGID_00000077285764630973133950000005499737272732818585_);">
								<g transform="matrix(1,0,0,1.06063,-1.38556e-13,-113.062)">
									<path class="st12" d="M1592.8,1036.8c0-4.6,3.9-8.3,8.8-8.3h194.5v36.5h-194.5c-4.9,0-8.8-3.7-8.8-8.3V1036.8z"/>
								</g>
							</g>
						</g>
					</g>
				</g>
			</g>
			<g transform="matrix(-1,0,0,1,1899.36,4.37557)">
				<path class="st16" d="M1400.5,979.9c0-2.6,2.1-4.8,4.8-4.8c25.3,0,143.1,0,168.4,0c2.6,0,4.8,2.1,4.8,4.8c0,1.9,0,4.1,0,6.1
					c0,2.6-2.1,4.8-4.8,4.8c-25.3,0-143.1,0-168.4,0c-2.6,0-4.8-2.1-4.8-4.8C1400.5,984.1,1400.5,981.9,1400.5,979.9z"/>
			</g>
		</g>
	</g>
	<g>
		<g transform="matrix(1.24252,0,0,0.921222,-251.744,130.946)">
			<path class="st15" d="M336.4,391.8h94.1v5.7h-92.2c-1.1,0-1.9-1.2-1.9-2.6C336.4,393.5,336.4,391.8,336.4,391.8z"/>
		</g>
		<g transform="matrix(1,0,0,1,-89.0357,31.4893)">
			<rect x="318" y="461.6" class="st21" width="15.7" height="2.9"/>
		</g>
		<g transform="matrix(1,0,0,1,50.8693,31.4893)">
			<rect x="122.7" y="461.6" class="st21" width="15.7" height="2.9"/>
		</g>
		<g transform="matrix(0.921222,0,0,0.921222,206.925,122.791)">
			<path class="st22" d="M-58.5,328.9H52.4l16.8,68.3H-41.7L-61,332.4L-58.5,328.9z"/>
		</g>
		<g transform="matrix(0.921222,0,0,0.921222,212.906,130.946)">
			<path class="st15" d="M-67.5,323.5H43.4l16.8,68.3H-50.7L-67.5,323.5z"/>
		</g>
		<g transform="matrix(1,0,0,1,32.7426,182.35)">
			<path class="st23" d="M163.5,277c0.5,4,3.9,7.1,8,7.1c4.4,0,8-3.6,8-8c0-4.4-3.5-7.9-7.8-8c0.3-0.8,0.8-1.6,1.7-2.2
				c0.3-0.2-0.1-0.7-0.4-0.5c-0.5,0.3-1.5,1.6-2,2.7c-1.6,0.1-3.1,0.7-4.4,1.7c0.4,0.4,0.7,1,0.7,1.7c0,1.2-0.9,2.2-2.1,2.4
				c0.1,0.3,0.2,0.6,0.2,0.9C165.3,275.8,164.6,276.8,163.5,277z"/>
		</g>
	</g>
	<path class="st24" d="M382.5,491.2c-1.7,3.4-69.3,42.2-69.3,49c0,6.8,11.8,125,11.8,123.3c0-1.7-64.2-133.5-64.2-133.5l99.7-62.5
		l38.9,13.5l54.1,157.1c0,0,18.6,18.6,13.5,23.7c-5.1,5.1-15.6,10-18,7.5c-2.3-2.5-88.5-141-88.5-141L382.5,491.2z"/>
	<g transform="matrix(1,0,0,1,-18.2311,31.2109)">
		<g>
			<g transform="matrix(1.05342,0.134889,-0.134889,1.05342,317.13,-243.371)">
				<path class="st9" d="M109.3,801.9c-1.9,7.9-16.8,24.3-16.9,26c-0.2,1.9,1.9,3,3.4,3.5c3.9,1.2,5.5,2.5,16.9-2.5
					c4.6-2,6.1-6.2,13-8.8c4.3-1.6-2.3-11.4-3.4-15.2c-0.2-0.8-0.5-4.4-1.2-4.7C118.3,799,109.3,801.9,109.3,801.9z"/>
				<g>
					<defs>
						<path id="SVGID_00000019656499141815526830000010137439041429325972_" d="M109.3,801.9c-1.9,7.9-16.8,24.3-16.9,26
							c-0.2,1.9,1.9,3,3.4,3.5c3.9,1.2,5.5,2.5,16.9-2.5c4.6-2,6.1-6.2,13-8.8c4.3-1.6-2.3-11.4-3.4-15.2c-0.2-0.8-0.5-4.4-1.2-4.7
							C118.3,799,109.3,801.9,109.3,801.9z"/>
					</defs>
					<clipPath id="SVGID_00000172425602384416293150000008754628115622079127_">
						<use xlink:href="#SVGID_00000019656499141815526830000010137439041429325972_"  style="overflow:visible;"/>
					</clipPath>
					<g style="clip-path:url(#SVGID_00000172425602384416293150000008754628115622079127_);">
						<g transform="matrix(1,0,0,1,88.2514,-87.7261)">
							<path class="st13" d="M39.8,900.4c-4.2,5.9-22.8,15-25.7,15.6c-4.1,0.9-7.8-1.1-11.6-2.3c-0.4,0.7-0.7,1.4-0.8,2.1
								c-0.1,0.7,0.1,1.4,0.4,2.1c1.4,3.2,4.6,3.7,7.7,4.3c0.9,0.2,1.8,0.3,2.7,0.4c2.5,0.1,4.9-0.7,7.1-1.6
								c1.8-0.8,3.6-1.8,5.3-2.7c1.5-0.7,2.9-1.7,4.3-2.6c1.2-0.8,2.3-1.6,3.4-2.5c2-1.6,3.8-3.2,5.5-5c0.7-0.7,1.5-1.3,2-2.2
								c1.2-1.9,0.8-4.2-0.1-6"/>
						</g>
					</g>
				</g>
			</g>
			<g transform="matrix(1.05342,0.134889,-0.134889,1.05342,421.58,-321.983)">
				<path class="st21" d="M16.8,895.4c2.6-0.7,4.9-0.3,7.1,1.2c0.2,0.2,0.3,0.5,0.1,0.7c-0.2,0.2-0.5,0.3-0.7,0.1
					c-1.9-1.3-3.9-1.7-6.2-1.1c-0.3,0.1-0.5-0.1-0.6-0.4C16.4,895.7,16.5,895.5,16.8,895.4z"/>
			</g>
			<g transform="matrix(1.05342,0.134889,-0.134889,1.05342,421.58,-321.983)">
				<path class="st21" d="M14.9,898.1c1.3-0.2,2.4,0,3.7,0.3c0.5,0.1,1,0.2,1.5,0.3c0.6,0.2,1.1,0.4,1.5,0.9c0.2,0.2,0.2,0.5,0,0.7
					c-0.2,0.2-0.5,0.2-0.7,0c-0.3-0.3-0.7-0.5-1.1-0.6c-0.5-0.2-1-0.2-1.5-0.3c-1.1-0.2-2.2-0.5-3.3-0.3c-0.3,0-0.5-0.1-0.6-0.4
					C14.4,898.4,14.6,898.2,14.9,898.1z"/>
			</g>
			<g transform="matrix(1.05342,0.134889,-0.134889,1.05342,421.58,-321.983)">
				<path class="st21" d="M12.4,901.6c0.9-0.2,1.8-0.1,2.7,0.1c1.6,0.2,3.4,0.5,4.7,1.5c0.2,0.2,0.2,0.5,0.1,0.7
					c-0.2,0.2-0.5,0.2-0.7,0.1c-1.2-0.9-2.7-1.1-4.2-1.3c-0.7-0.1-1.5-0.3-2.3-0.1c-0.3,0.1-0.5-0.1-0.6-0.4
					C12,901.9,12.2,901.7,12.4,901.6z"/>
			</g>
			<g transform="matrix(1.05342,0.134889,-0.134889,1.05342,421.58,-321.983)">
				<path class="st21" d="M10.5,904.4c0.6-0.3,1.4-0.3,1.9-0.2c1.4,0.2,2.9,0.5,4.1,1.2c0.2,0.1,0.3,0.4,0.2,0.7
					c-0.1,0.2-0.4,0.3-0.7,0.2c-1.2-0.6-2.5-0.9-3.8-1.1c-0.4-0.1-1-0.1-1.4,0.1c-0.2,0.1-0.5,0-0.7-0.2
					C10.1,904.8,10.2,904.5,10.5,904.4z"/>
			</g>
		</g>
		<g transform="matrix(-0.999095,-0.603609,-0.534142,0.884114,2733.46,755.663)">
			<path class="st9" d="M1729.5,1012.9c-4.8,1.4-8.7,5.2-13.5,6.8c-1.6,0.5-10.5,4.6-10.5,7.2c0,8.1,6.7,20.4,11.8,14.4
				c7.6-8.9,11.2-10.9,13.8-12.7c1-0.7,1.9-1.2,2.9-1.7c0.3-0.2,1-0.3,1.1-0.9c0.1-1.4-0.8-2.9-1.4-4
				C1732.5,1019.4,1729.5,1012.9,1729.5,1012.9z"/>
			<g>
				<defs>
					<path id="SVGID_00000129189998907880930870000017529954514215020427_" d="M1729.5,1012.9c-4.8,1.4-8.7,5.2-13.5,6.8
						c-1.6,0.5-10.5,4.6-10.5,7.2c0,8.1,6.7,20.4,11.8,14.4c7.6-8.9,11.2-10.9,13.8-12.7c1-0.7,1.9-1.2,2.9-1.7
						c0.3-0.2,1-0.3,1.1-0.9c0.1-1.4-0.8-2.9-1.4-4C1732.5,1019.4,1729.5,1012.9,1729.5,1012.9z"/>
				</defs>
				<clipPath id="SVGID_00000041257291230029860760000013041258601381788839_">
					<use xlink:href="#SVGID_00000129189998907880930870000017529954514215020427_"  style="overflow:visible;"/>
				</clipPath>
				<g style="clip-path:url(#SVGID_00000041257291230029860760000013041258601381788839_);">
					<g transform="matrix(0.90039,0,0,1.01749,176.529,-109.327)">
						<path class="st13" d="M1707.2,1109.8c-1.1,0.4-2.1,1-3,1.8c-0.8,0.7-1.4,1.7-1.7,2.7c-0.3,0.7-1.4,5.1,2.4,12.1
							c2.3,4.3,7.2,5,7.5,5.6c0.7,1.7-1.9,2.5-3,2.7c-0.3,0-0.6,0.1-0.9,0.1c-3.2,0.1-5.3-1.9-7.2-4.3c-1.8-2.3-2.9-4.7-3.8-7.5
							c-0.6-1.7-1.3-3.6-1.4-5.4c-0.1-1.7,0.3-3.5,1-5.1c1.3-3.1,4.5-4,7.6-4.3C1705.7,1108,1707.2,1109.8,1707.2,1109.8z"/>
					</g>
				</g>
			</g>
		</g>
		<g transform="matrix(0.829179,0,0,0.865319,99.7035,-24.4397)">
			<path class="st21" d="M288.7,489.1c-0.4,2.5-3.7,26.6-6.1,27.8c-58.5,30.4-107.2,54.8-97.6,75.2c8.4,17.9,73.9,151.3,79.4,153.2
				c10.3,3.6,26,3.3,23.2-7.1c-10.2-38-48.3-135-46.8-135.4c86-26.1,145.4-67.4,131.8-73.1C350.3,520.4,288.7,489.1,288.7,489.1z"/>
			<g>
				<defs>
					<path id="SVGID_00000082353450483244882940000011407355734953183883_" d="M288.7,489.1c-0.4,2.5-3.7,26.6-6.1,27.8
						c-58.5,30.4-107.2,54.8-97.6,75.2c8.4,17.9,73.9,151.3,79.4,153.2c10.3,3.6,26,3.3,23.2-7.1c-10.2-38-48.3-135-46.8-135.4
						c86-26.1,145.4-67.4,131.8-73.1C350.3,520.4,288.7,489.1,288.7,489.1z"/>
				</defs>
				<clipPath id="SVGID_00000093870576033517836160000009697536673951603626_">
					<use xlink:href="#SVGID_00000082353450483244882940000011407355734953183883_"  style="overflow:visible;"/>
				</clipPath>
				<g style="clip-path:url(#SVGID_00000093870576033517836160000009697536673951603626_);">
					<g transform="matrix(1.20601,0,0,1.15564,-120.244,28.2436)">
						<path class="st28" d="M371.6,430.3c0,0-6,26-18.3,32c-14.3,7.1-61.7,24.4-63.9,28.4c-2.8,5.2,9.9,38.7,12.3,46.6
							c2.8,9.2,27.3,63.9,28.8,74.6c0.5,3.6-1.1,7.5-0.7,11.2c0.3,3.3,3.1,4.8,6.1,5.4c9.6,1.9,21.8-4.3,20.4-15.3
							c-1.2-9.6-6.7-18.3-10.3-27c-5-12.1-7.2-26.5-5.2-39.5c1.8-11.6,6-22.8,15.5-30.1c12.3-9.5,31.8-13.9,35.8-31.3
							c2.7-11.5-3.1-26.6-7.4-37.4c-1-2.6-2.6-5-3.3-7.7c-1.2-4.3,9.6-3.2,5.6-9.4C383.9,426,375.6,428.1,371.6,430.3z"/>
					</g>
				</g>
			</g>
		</g>
		<path class="st13" d="M392.7,415.2c-5.9,14.6-33.4,60.4-30.4,73.2c3.3,13.6,82.6,124.6,91.2,130.2c3.2,2.1,10.2-3.8,13.5-6.6
			c4.6-3.9-53-131.5-47.3-133c34.8-9,44.9-65.6,15.2-68.5c-5.1-0.5-10,2-15,3.3C411.9,415.8,392.7,415.2,392.7,415.2z"/>
		<g>
			<defs>
				<path id="SVGID_00000148636609140420247650000010327014284467128711_" d="M392.7,415.2c-5.9,14.6-33.4,60.4-30.4,73.2
					c3.3,13.6,82.6,124.6,91.2,130.2c3.2,2.1,10.2-3.8,13.5-6.6c4.6-3.9-53-131.5-47.3-133c34.8-9,44.9-65.6,15.2-68.5
					c-5.1-0.5-10,2-15,3.3C411.9,415.8,392.7,415.2,392.7,415.2z"/>
			</defs>
			<clipPath id="SVGID_00000030482700860315196650000000222358611033850302_">
				<use xlink:href="#SVGID_00000148636609140420247650000010327014284467128711_"  style="overflow:visible;"/>
			</clipPath>
			<g style="clip-path:url(#SVGID_00000030482700860315196650000000222358611033850302_);">
				<path class="st15" d="M441.7,413.9c1.5,16.6-7.1,31-18.2,42.4c-5.6,5.8-18.6,14.2-17.9,23.2c0.8,9.4,7.1,19.6,11.1,28.1
					c6.2,12.9,12.3,25.7,18.9,38.4c4.3,8.2,27.6,67.5,31.4,71.5c4.5,4.8,11.2-2.8,12.4-7c2.4-8.5-9.9-24.3-13.2-32.7
					c-7.5-19.2-14.6-38.6-22.4-57.7c-4.3-10.6-11.7-22.6-13.4-34.1c-1.1-7.1,9.1-11.7,13.2-16c13.8-14.7,24.5-31.8,10.2-49.3
					c-2.7-3.3-6.8-7.1-11.3-8"/>
			</g>
		</g>
		<g transform="matrix(1.051,0,0,1.051,-98.3882,-99.2223)">
			<path class="st30" d="M364.9,186.8c0.7,1.9,1.8,3.7,3.1,5.3c0.5,0.6,1.6,1.4,2.2,1.9c2.3,1.9,8.4,0.8,9.4-1
				c0.6-1-1.7-8.8-2.1-8.9C376.4,183.7,364.9,186.8,364.9,186.8z"/>
		</g>
		<g transform="matrix(1.051,0,0,1.051,39.5277,-107.933)">
			<path class="st9" d="M321,333.8L321,333.8c-54.6-20.6-73-121.2-71.5-132.7c0.4-2.9-11.8-1.9-11.7,4.3
				c0.5,49.5,19.7,137,60.3,161.6c-1.1,3.4-2,6.8-2.9,10.1c-7.1,27.9-20.7,86.5-14.9,128.4c0.6,4.6,72.4,21.3,115.4-4.2
				c-9.5-34.7-13.4-88.3-16.1-127.1l0,0c0.5,0,1-0.1,1.5-0.4c42.5-22.2,83.1-107.1,83.6-157.7c0.1-6.2-12.1-7.2-11.7-4.3
				c1.5,11.2-35.5,101.9-87.9,125.6C355.8,333.4,332.1,333.5,321,333.8z"/>
			<g>
				<defs>
					<path id="SVGID_00000034768930946556206730000003224908596780071320_" d="M321,333.8L321,333.8c-54.6-20.6-73-121.2-71.5-132.7
						c0.4-2.9-11.8-1.9-11.7,4.3c0.5,49.5,19.7,137,60.3,161.6c-1.1,3.4-2,6.8-2.9,10.1c-7.1,27.9-20.7,86.5-14.9,128.4
						c0.6,4.6,72.4,21.3,115.4-4.2c-9.5-34.7-13.4-88.3-16.1-127.1l0,0c0.5,0,1-0.1,1.5-0.4c42.5-22.2,83.1-107.1,83.6-157.7
						c0.1-6.2-12.1-7.2-11.7-4.3c1.5,11.2-35.5,101.9-87.9,125.6C355.8,333.4,332.1,333.5,321,333.8z"/>
				</defs>
				<clipPath id="SVGID_00000162311248632967533190000000925669508025424003_">
					<use xlink:href="#SVGID_00000034768930946556206730000003224908596780071320_"  style="overflow:visible;"/>
				</clipPath>
				<g style="clip-path:url(#SVGID_00000162311248632967533190000000925669508025424003_);">
					<path class="st11" d="M475.2,198.6c-3.8,2.1-9.7,3.8-12.5,7.2c-4,4.9-4.6,12-6.3,17.9c-4.2,14.6-5.3,30.2-10.6,44.4
						c-7.4,19.9-15.6,39.1-29.4,55.5c-8.6,10.3-28.9,32.2-42.8,43c-9.4,7.3-2,26.4-1.2,37.9c1.7,23,5.4,118.1,15.1,123.8
						c4.5,2.7,8.6-4.7,13.5-6c25.7-6.8,3.7-35.3,3.6-55.6c-0.2-35.4-17.9-59.6-1.3-91.3c14-26.9,52.9-71.2,58.3-102
						C464.5,257.6,475.2,198.6,475.2,198.6z"/>
					<path class="st32" d="M285.5,390.1c1.2-5.9,11.7-19.6,12.7-23.2c0.7-2.5,1.3-11.1,1.2-11.1c-36.6-13.9-59.7-114.7-57.8-151.1
						c0.1-1.8-0.9-5.9-3.1-6.6c-4.1-1.3-8.2,7.9-9.5,10.5c-5.8,12.1-2.5,28.3-0.3,40.9c5.2,30.8,9.2,61.9,23.6,90.1
						c3.8,7.4,9.1,13.8,13.4,20.8C271.1,369.3,285.5,390.1,285.5,390.1z"/>
				</g>
			</g>
		</g>
		<g transform="matrix(0.622478,0,0,0.63848,321.96,171.89)">
			<path class="st30" d="M107.9,80.2c1.2,8.1-5.8,30.5-11.6,33.7c0,0,1.7,8.7,17.1,12.1c14.3,3.1,33.2-9.1,31.1-11.8
				c-6.3-8.2-3.8-28.4-3.8-28.4L107.9,80.2z"/>
		</g>
		<g transform="matrix(1.051,0,0,1.051,-98.3882,-99.2223)">
			<path class="st30" d="M594.6,206.4c0.7-1.8,8.1-7.5,5.6-15.9c-0.3-1-0.8-1.9-1.6-2.7c-1-1.1-2.7-1.7-4-2.3
				c-4.1-2-8.2-3.5-12.4-0.7c-1.1,0.7-1.7,2.3-1.6,3.6c0,0.3,0.5,1.2,0.3,1.5c-0.3,0.8-1,1.3-1.5,1.9c-0.8,1-1.2,2.2-1.1,3.5
				c0.1,2.6,1.6,4.6,3.2,6.6C584.6,206.1,594.6,207.4,594.6,206.4z"/>
		</g>
		<g transform="matrix(1.02333,0.239613,-0.239613,1.02333,20.1783,-405.247)">
			<path class="st33" d="M357,345l12-3.6l25.6,51.7l-10,5L357,345z"/>
		</g>
		<g transform="matrix(1.051,0,0,1.051,-98.3882,-99.2223)">
			<path class="st13" d="M394.3,125.4l13.2,56.2l-52.9,15.5l-13.2-56.2L394.3,125.4z"/>
			<g>
				<defs>
					<polygon id="SVGID_00000101792638960047897700000013977323487687538080_" points="394.3,125.4 407.4,181.6 354.6,197.1 
						341.4,140.9 					"/>
				</defs>
				<clipPath id="SVGID_00000027571610090830751440000003689799102432476041_">
					<use xlink:href="#SVGID_00000101792638960047897700000013977323487687538080_"  style="overflow:visible;"/>
				</clipPath>
				<g style="clip-path:url(#SVGID_00000027571610090830751440000003689799102432476041_);">
					<g transform="matrix(1,0,0,1,131.223,-8.28795)">
						<path class="st15" d="M259.5,125.5c9.2,23-18.8,50.6-32.5,67.7c-2.9,3.7-5.9,7.5-9.7,10.4c-0.5,0.4-3.2,1.9-3.3,2.5
							c-0.5,2.4,4.8,5.5,6.7,6.4c14.6,6.6,32-4.4,44.6-10.8c3.8-1.9,12.7-5.3,14.1-10c2.2-7.2-3.7-28.4-5.3-36.2
							C272.4,147.1,259.5,125.5,259.5,125.5z"/>
					</g>
				</g>
			</g>
		</g>
		<g transform="matrix(1.051,0,0,1.051,-98.3882,-99.2223)">
			<path class="st30" d="M373.9,195c3.8-0.4,7-2.2,9.3-5.3c0.8-1.2,1.4-2.4,1.9-3.7c2.7-6.8,4.1-10.3,2.8-10.4
				c-3.3-0.4-4.3,3.4-5.4,6.5c-0.4,1-12.6,3-13.1,10.6C369.2,194.8,373.9,195,373.9,195z"/>
		</g>
		<g transform="matrix(0.622478,0,0,0.63848,275.39,221.149)">
			<path class="st30" d="M240.7-72.2c-10.9-17.4-46.4-3.4-52.9,12.3c-5.5,13.2-39.3,19.2-20.7,62.3c7.2,16.8,26.3,25.2,41.9,16.3
				c11.1-6.4,24.9-22.7,32.4-32.8C255.8-33.2,253.1-52.3,240.7-72.2z"/>
		</g>
		<g transform="matrix(0.622478,0,0,0.63848,275.39,221.149)">
			<path class="st13" d="M233.8-44.3c0,0-57.4-15.8-45.6-47.6c4.4-11.9,42.7-19.8,36.9-8.3c-7.2,14.3,43.4,26.1,37.1,51.1
				c-1,3.8-1.9,5.9-1.4,9.1c0.5,3.1,2.9,5.8,3.8,8.9c1.8,6.5-1.3,14.1-5,19.2c-7.4,10.4-23.1,16.2-33.9,22.3
				c-2.2,1.2-6.4,8.5-6.9,8.7c-1.3,0.6-2.7-1-3.3-1.9c-6.1-9-0.4-18,8.8-21.6c4.9-1.9,10.7-2.7,14.6-8.1c2.9-4-1.2-10-3-11
				c-5.2-2.8-11.1,3.9-15.7,7.1c-1.2,0.8-1.8-7.3,5.8-10.6C232.5-29.8,235.3-36.2,233.8-44.3z"/>
			<g>
				<defs>
					<path id="SVGID_00000046303060437879116120000006481730988222030009_" d="M233.8-44.3c0,0-57.4-15.8-45.6-47.6
						c4.4-11.9,42.7-19.8,36.9-8.3c-7.2,14.3,43.4,26.1,37.1,51.1c-1,3.8-1.9,5.9-1.4,9.1c0.5,3.1,2.9,5.8,3.8,8.9
						c1.8,6.5-1.3,14.1-5,19.2c-7.4,10.4-23.1,16.2-33.9,22.3c-2.2,1.2-6.4,8.5-6.9,8.7c-1.3,0.6-2.7-1-3.3-1.9
						c-6.1-9-0.4-18,8.8-21.6c4.9-1.9,10.7-2.7,14.6-8.1c2.9-4-1.2-10-3-11c-5.2-2.8-11.1,3.9-15.7,7.1c-1.2,0.8-1.8-7.3,5.8-10.6
						C232.5-29.8,235.3-36.2,233.8-44.3z"/>
				</defs>
				<clipPath id="SVGID_00000049929369645504292140000009301984001981277328_">
					<use xlink:href="#SVGID_00000046303060437879116120000006481730988222030009_"  style="overflow:visible;"/>
				</clipPath>
				<g style="clip-path:url(#SVGID_00000049929369645504292140000009301984001981277328_);">
					<g transform="matrix(1.68842,0,0,1.6461,-378.909,-515.415)">
						<path class="st15" d="M361.4,244.7c-1.8,1.1-3.5,2.1-5,3.7c-1,1.1-2,2.4-2.6,3.7c-2,4.2,0.7,8.2,3.7,11c3.1,3,7,4.9,10.7,7.1
							c4.2,2.6,8.3,4.8,8,10.4c-0.2,2.8-2.6,4.8-2.8,7.6c-0.1,2.4,1.7,4.1,2.3,6.3c0.9,3.7-1,8.4-3.4,11.1c-3,3.5-9.3,5.2-10.7,9.9
							c-0.5,1.5,0,3.1,0.5,4.6c0.1,0.2,0.4,1.4,0.6,1.4c1.6-0.1,3.1-1.4,4.5-2.3c3.6-2.3,6.8-4.8,10.1-7.5c2.9-2.4,5.8-4.7,8.7-7.1
							c3.4-2.8,7.1-5.5,7.9-10.1c1.2-6.4-1.9-15.3-6.3-20c-4.2-4.6-9-8.4-12.7-13.4c-1.8-2.4-3.7-4.8-5.3-7.4
							C367.4,250.3,361.4,244.7,361.4,244.7z"/>
					</g>
				</g>
			</g>
		</g>
		<g transform="matrix(1.051,0,0,1.051,-53.1211,-17.6377)">
			<path class="st13" d="M446.8,211.2c-4,0.4-6.7,2.3-9.3,5.2c-1.3,1.5-3.6,4.7-5.9,4.4c-2.5-0.3-3.9-3.6-5.6-5.1
				c-3.1-2.8-6.7-5-10.8-6c-1.3-0.3-2.6-0.7-3.9-0.6c-4.3,0.3-4.9,5.8-5.3,9.1c-0.4,3.8,4.7,22.4,17.4,19.9
				c14.2-2.8,11.8-12.6,13.1-14.3c1.5-2,3.4-3.7,5.3-5.5c1-0.9,1.7-2,2.8-2.8c1.3-1,3.4-2.1,2.5-4.1"/>
		</g>
		<g transform="matrix(1.051,0,0,1.051,39.5277,-107.933)">
			<path class="st32" d="M351.4,332.3c0,0-1.9,8.7-7.4,11c-2.5,1-5,1.7-7.5,2.6c-0.6,0.2-2.2,0.6-2.5,1.1c-0.1,0.1,0.4,0.5,0.5,0.6
				c0.6,0.6,1.6,0.9,2.5,1.1c3.1,0.7,6.9,0.8,10,0.7c5.5-0.3,11.4-2,15.3-6c1.5-1.6,2.2-3.7,3.6-5.3c1.1-1.1,3.9-2.2,4.5-3.6
				c1.1-2.6-10-6.7-11.9-7.7c-2.3-1.1-5.7,0.6-6.6,0C351.8,326.6,352.3,330.1,351.4,332.3z"/>
		</g>
		<g transform="matrix(1.051,0,0,1.051,39.5277,-107.933)">
			<path class="st32" d="M330.6,326.8c-0.5,0.9-1.4,3.5-1.6,4.4c-0.1,0.8-0.2,1.5-0.1,2.3c0.6,5.8,7.8,7.5,12.1,9.6
				c1.7,0.8,3.7,3.3,1.3,4.7c-0.8,0.4-1.6,0.6-2.5,0.8c-3.4,0.7-6.3,0.4-9.5-0.9c-3.3-1.4-6.8-3.1-9-6c-1.8-2.3-2.6-5.8-2.5-8.8
				c0-1.4,1.2-2.3,2-3.3C325.1,323.8,330.6,326.8,330.6,326.8z"/>
		</g>
		<g transform="matrix(1.051,0,0,1.051,39.5277,-107.933)">
			<path class="st36" d="M324.2,300.1c0.1,0.1,0.1,0.1,0.2,0.2c2.6,2,11.4,4,11.5,4.7c0.2,3-1.5,9.5-7.4,7.8
				C325.4,311.9,323.1,307.5,324.2,300.1z"/>
		</g>
		<g transform="matrix(1.051,0,0,1.051,39.5277,-107.933)">
			<path class="st13" d="M329.1,275.7c0,0,24.6,16.3,26,17.2c1.5,0.9,6.6,5.5,6.6,5.5l-2,0.9c0,0-4.7-4.3-5.3-4.7
				c-0.6-0.4-2.2,2.4-4.3,3.4c-2,1-4.6,1.1-7.2-0.3c-2.5-1.4-3.6-3.5-3.8-4.9c-0.3-1.4,0.7-4.4,0.7-5.1c0-0.7-0.5-1.1-0.9-0.8
				c-0.4,0.3-1.8,2.4-3.9,3.1c-2.1,0.8-5.2-0.2-6.8-1.6c-1.7-1.4-2.1-1.6-2.5-4.1c-0.3-2.4,0.2-5.3,0.9-6.5c0.8-1.2,1.2-2.2,1.5-2.4
				S329.1,275.7,329.1,275.7z"/>
		</g>
		<g transform="matrix(1.15061,0,0,1.24293,-14.6157,-258.28)">
			<path class="st37" d="M346.9,354.6c-1.1,2.1-4.1,6.4,0.5,9.6c6,4.2,10.1-2.9,10-3C353.3,358.4,346.9,354.6,346.9,354.6z"/>
			<g>
				<defs>
					<path id="SVGID_00000065037959827700120250000016718838638977198232_" d="M346.9,354.6c-1.1,2.1-4.1,6.4,0.5,9.6
						c6,4.2,10.1-2.9,10-3C353.3,358.4,346.9,354.6,346.9,354.6z"/>
				</defs>
				<clipPath id="SVGID_00000173148156249669563250000002375622357725909895_">
					<use xlink:href="#SVGID_00000065037959827700120250000016718838638977198232_"  style="overflow:visible;"/>
				</clipPath>
				<g style="clip-path:url(#SVGID_00000173148156249669563250000002375622357725909895_);">
					<g transform="matrix(0.913415,0.00560051,-0.00604988,0.845569,83.1471,99.5719)">
						
							<rect x="292.3" y="299.6" transform="matrix(-0.9971 7.674298e-02 -7.674298e-02 -0.9971 611.8857 592.7911)" class="st39" width="4.5" height="17.2"/>
					</g>
				</g>
			</g>
		</g>
		<g transform="matrix(1.15061,0,0,1.24293,-50.8261,-235.773)">
			<path class="st37" d="M390.8,343.6c-1.1,2.1-4.1,6.4,0.5,9.6c6,4.2,10.1-2.9,10-3C397.2,347.5,390.8,343.6,390.8,343.6z"/>
			<g>
				<defs>
					<path id="SVGID_00000155126152384744838430000014873776119009851574_" d="M390.8,343.6c-1.1,2.1-4.1,6.4,0.5,9.6
						c6,4.2,10.1-2.9,10-3C397.2,347.5,390.8,343.6,390.8,343.6z"/>
				</defs>
				<clipPath id="SVGID_00000065044648233741695910000005098785175214577335_">
					<use xlink:href="#SVGID_00000155126152384744838430000014873776119009851574_"  style="overflow:visible;"/>
				</clipPath>
				<g style="clip-path:url(#SVGID_00000065044648233741695910000005098785175214577335_);">
					<g transform="matrix(0.913415,0.00560051,-0.00604988,0.845569,82.2037,95.2606)">
						
							<rect x="341.8" y="289.4" transform="matrix(-0.997 7.722859e-02 -7.722859e-02 -0.997 710.0134 568.4724)" class="st39" width="4.5" height="17.2"/>
					</g>
				</g>
			</g>
		</g>
		<g transform="matrix(1.051,0,0,1.051,39.5277,-107.933)">
			<path class="st32" d="M337.8,348.7c-15.9,61.9-8.2,161-8.5,166.4c0,0.3-0.3,0.5-0.6,0.5c-0.3,0-0.5-0.3-0.5-0.6
				c0.3-5.4-7.4-104.5,8.5-166.6c0.1-0.3,0.4-0.5,0.7-0.4C337.7,348.1,337.9,348.4,337.8,348.7z"/>
		</g>
		<g transform="matrix(1.051,0,0,1.051,39.5277,-107.933)">
			<path class="st32" d="M340.9,457.1c1.6,2.7,6,5.7,11.2,8.3c7.8,3.9,17.6,6.8,22.6,6.6c0.3,0,0.6,0.2,0.6,0.5
				c0,0.3-0.2,0.6-0.5,0.6c-5.2,0.3-15.1-2.7-23.2-6.7c-5.4-2.7-9.9-5.8-11.6-8.7c-0.2-0.3-0.1-0.6,0.2-0.7
				C340.4,456.7,340.8,456.8,340.9,457.1z"/>
		</g>
		<g transform="matrix(1.051,0,0,1.051,39.5277,-107.933)">
			<path class="st32" d="M285,471.9c6.6-0.6,23.3-8.2,29.2-14.9c0.2-0.2,0.5-0.2,0.8,0c0.2,0.2,0.2,0.5,0,0.8
				c-6.1,6.9-23.2,14.7-29.9,15.3c-0.3,0-0.6-0.2-0.6-0.5C284.4,472.2,284.7,471.9,285,471.9z"/>
		</g>
		<g transform="matrix(-0.899576,-0.543484,-0.543484,0.899576,2615.49,552.451)">
			<path class="st13" d="M1715,1111.8c1.5,0.7,2.9,2.5,3.7,4.5c0.9,2,1.3,4,1.1,5c0,0.3-0.3,0.4-0.6,0.4s-0.4-0.3-0.4-0.6
				c0.2-0.9-0.3-2.7-1-4.4c-0.8-1.7-1.9-3.4-3.2-4c-0.2-0.1-0.4-0.4-0.3-0.6C1714.4,1111.8,1714.7,1111.7,1715,1111.8z"/>
		</g>
		<g transform="matrix(-0.899576,-0.543484,-0.543484,0.899576,2615.49,552.451)">
			<path class="st13" d="M1712.5,1113c1.9,0.7,3.2,2.6,4.1,4.6c0.8,2,1.1,4,0.9,4.9c-0.1,0.3-0.3,0.4-0.6,0.4
				c-0.3-0.1-0.4-0.3-0.4-0.6c0.2-0.8-0.1-2.6-0.8-4.3c-0.7-1.7-1.9-3.4-3.5-4c-0.3-0.1-0.4-0.4-0.3-0.6
				C1712,1113.1,1712.3,1112.9,1712.5,1113z"/>
		</g>
		<g transform="matrix(-0.899576,-0.543484,-0.543484,0.899576,2615.49,552.451)">
			<path class="st13" d="M1710.4,1115.7c1,0.6,1.8,1.6,2.4,2.8c0.9,1.7,1.4,3.8,1.7,5.4c0,0.3-0.2,0.5-0.4,0.6
				c-0.3,0-0.5-0.1-0.6-0.4c-0.2-1.5-0.7-3.5-1.6-5.1c-0.5-1-1.2-1.9-2.1-2.5c-0.2-0.1-0.3-0.5-0.2-0.7
				C1709.8,1115.6,1710.1,1115.5,1710.4,1115.7z"/>
		</g>
		<g transform="matrix(-0.899576,-0.543484,-0.543484,0.899576,2615.49,552.451)">
			<path class="st13" d="M1717.7,1111.2c2.2,1.5,3.6,4.7,4.1,7.1c0.1,0.3-0.1,0.5-0.4,0.6c-0.3,0.1-0.5-0.1-0.6-0.4
				c-0.5-2.2-1.7-5.2-3.7-6.5c-0.2-0.1-0.3-0.5-0.1-0.7C1717.1,1111.1,1717.4,1111,1717.7,1111.2z"/>
		</g>
		<g transform="matrix(1.02333,0.239613,-0.239613,1.02333,160.598,-364.023)">
			<path class="st41" d="M171.2,364l10.8-3.2l25.6,51.7l-11.3,2.6L171.2,364z"/>
		</g>
		<g transform="matrix(1.051,0,0,1.051,-98.3882,-99.2223)">
			<path class="st41" d="M341.4,140.9l52.9-15.5l-12.5,0.8l-51.6,15.4L341.4,140.9z"/>
		</g>
		<g transform="matrix(1.051,0,0,1.051,-98.3882,-99.2223)">
			<path class="st12" d="M331.2,141.5l8.7-0.6l13.3,55l-9.5,0.1L331.2,141.5z"/>
		</g>
		<g transform="matrix(1.051,0,0,1.051,-98.3882,-99.2223)">
			<path class="st12" d="M339.9,140.9l52.4-15.4l-9,0.6l-52.2,15.4L339.9,140.9z"/>
		</g>
	</g>
	<g transform="matrix(0.636952,0,0,0.613555,-139.306,618.993)">
		<g>
			<path class="st13" d="M925.6-249H997v26.1c0,13.5-10.9,24.4-24.4,24.4h-22.7c-9.7,0-18-5.6-22-13.8h-5.4c-4,0-7.9-1.6-10.8-4.5
				c-2.9-2.8-4.5-6.7-4.5-10.8v-2.3c0-4,1.6-7.9,4.5-10.8c2.9-2.9,6.7-4.5,10.8-4.5h3V-249z M922.5-240c-2.7,0-5.3,1.1-7.3,3
				c-1.9,1.9-3,4.5-3,7.3v2.3c0,2.7,1.1,5.3,3,7.3c1.9,1.9,4.5,3,7.3,3h3.7c-0.4-1.8-0.7-3.7-0.7-5.6V-240H922.5z"/>
			<path class="st15" d="M968.2-234.9c0-2.9,1.2-5.8,3.2-7.8c2.1-2.1,4.9-3.2,7.8-3.2l0,0c2.9,0,5.8,1.2,7.8,3.2
				c2.1,2.1,3.2,4.9,3.2,7.8c0,3.2,0,6.7,0,9.8c0,2.9-1.2,5.8-3.2,7.8c-2.1,2.1-4.9,3.2-7.8,3.2l0,0c-2.9,0-5.8-1.2-7.8-3.2
				c-2.1-2.1-3.2-4.9-3.2-7.8C968.2-228.2,968.2-231.7,968.2-234.9z"/>
		</g>
	</g>
</g>
</svg>
