<svg width="266" height="59" viewBox="0 0 266 59" fill="none" xmlns="http://www.w3.org/2000/svg">
<path d="M35.0407 13.7234V6.22343C35.0407 5.97478 34.9419 5.73633 34.7661 5.56051C34.5903 5.3847 34.3519 5.28593 34.1032 5.28593C33.8546 5.28593 33.6161 5.3847 33.4403 5.56051C33.2645 5.73633 33.1657 5.97478 33.1657 6.22343V11.4531L30.3532 8.64061C27.622 5.8962 23.8313 4.34892 19.9595 4.33905V6.22343H20.0313C23.4062 6.23306 26.6393 7.5818 29.0204 9.97342L31.8407 12.7859H26.6032C26.3546 12.7859 26.1161 12.8847 25.9403 13.0605C25.7645 13.2363 25.6657 13.4748 25.6657 13.7234C25.6657 13.9721 25.7645 14.2105 25.9403 14.3863C26.1161 14.5622 26.3546 14.6609 26.6032 14.6609H34.1032C34.3519 14.6609 34.5903 14.5622 34.7661 14.3863C34.9419 14.2105 35.0407 13.9721 35.0407 13.7234Z" fill="#207581"/>
<path d="M4.95928 13.7234V6.22343C4.95928 5.97478 5.05805 5.73633 5.23387 5.56051C5.40968 5.3847 5.64814 5.28593 5.89678 5.28593C6.14542 5.28593 6.38388 5.3847 6.55969 5.56051C6.73551 5.73633 6.83428 5.97478 6.83428 6.22343V11.4531L9.64678 8.64061C12.378 5.8962 16.0874 4.34892 19.9593 4.33905L20.0405 6.22343H19.9687C16.5938 6.23306 13.3607 7.5818 10.9796 9.97342L8.15928 12.7859H13.3968C13.6454 12.7859 13.8839 12.8847 14.0597 13.0605C14.2355 13.2363 14.3343 13.4748 14.3343 13.7234C14.3343 13.9721 14.2355 14.2105 14.0597 14.3863C13.8839 14.5622 13.6454 14.6609 13.3968 14.6609H5.89678C5.64814 14.6609 5.40968 14.5622 5.23387 14.3863C5.05805 14.2105 4.95928 13.9721 4.95928 13.7234Z" fill="#207581"/>
<path d="M36.25 22.4734H25C24.0034 22.4742 23.023 22.7257 22.1492 23.205C21.2754 23.6842 20.5363 24.3756 20 25.2156C19.4637 24.3756 18.7246 23.6842 17.8508 23.205C16.977 22.7257 15.9966 22.4742 15 22.4734H3.75C3.50136 22.4734 3.2629 22.5722 3.08709 22.748C2.91127 22.9238 2.8125 23.1623 2.8125 23.4109V45.9109C2.8125 46.1596 2.91127 46.398 3.08709 46.5738C3.2629 46.7496 3.50136 46.8484 3.75 46.8484H15C16.0774 46.8484 17.1108 47.2764 17.8726 48.0383C18.6345 48.8002 19.0625 49.8335 19.0625 50.9109C19.0625 51.1596 19.1613 51.398 19.3371 51.5738C19.5129 51.7496 19.7514 51.8484 20 51.8484C20.2486 51.8484 20.4871 51.7496 20.6629 51.5738C20.8387 51.398 20.9375 51.1596 20.9375 50.9109C20.9375 49.8335 21.3655 48.8002 22.1274 48.0383C22.8892 47.2764 23.9226 46.8484 25 46.8484H36.25C36.4986 46.8484 36.7371 46.7496 36.9129 46.5738C37.0887 46.398 37.1875 46.1596 37.1875 45.9109V23.4109C37.1875 23.1623 37.0887 22.9238 36.9129 22.748C36.7371 22.5722 36.4986 22.4734 36.25 22.4734ZM15 44.9734H4.6875V24.3484H15C16.0774 24.3484 17.1108 24.7764 17.8726 25.5383C18.6345 26.3002 19.0625 27.3335 19.0625 28.4109V46.5844C17.9636 45.5485 16.5101 44.9722 15 44.9734ZM35.3125 44.9734H25C23.4897 44.9728 22.0362 45.5497 20.9375 46.5859V28.4109C20.9375 27.3335 21.3655 26.3002 22.1274 25.5383C22.8892 24.7764 23.9226 24.3484 25 24.3484H35.3125V44.9734Z" fill="#207581"/>
<path d="M52.5133 16.4871C53.2552 16.5167 54.2492 16.5464 55.4955 16.5761C56.7714 16.6058 58.0325 16.6206 59.2788 16.6206C60.7031 16.6206 62.0829 16.6058 63.4182 16.5761C64.7535 16.5464 65.7031 16.5316 66.2669 16.5316C69.0265 16.5316 71.3113 16.8431 73.1214 17.4663C74.9611 18.0597 76.3261 18.9351 77.2163 20.0924C78.1361 21.2496 78.5961 22.6442 78.5961 24.2763C78.5961 25.2852 78.3884 26.3089 77.9729 27.3475C77.5575 28.3563 76.8454 29.3059 75.8365 30.1961C74.8573 31.0566 73.5071 31.7539 71.7861 32.288C70.065 32.7925 67.8989 33.0447 65.2876 33.0447H61.0147V32.1545H64.8425C66.5933 32.1545 67.9137 31.8281 68.8039 31.1753C69.7238 30.4928 70.3469 29.6026 70.6733 28.5047C71.0294 27.3771 71.2075 26.1308 71.2075 24.7659C71.2075 22.4217 70.792 20.6116 69.9612 19.3357C69.1303 18.0301 67.706 17.3773 65.6882 17.3773C64.531 17.3773 63.7743 17.6295 63.4182 18.1339C63.0918 18.6384 62.9286 19.6621 62.9286 21.2051V43.282C62.9286 44.3502 63.0028 45.1514 63.1512 45.6855C63.3292 46.2196 63.6556 46.5757 64.1304 46.7537C64.6052 46.9318 65.3173 47.0505 66.2669 47.1098V48C65.4657 47.9407 64.4568 47.911 63.2402 47.911C62.0236 47.8813 60.7922 47.8665 59.5459 47.8665C58.1216 47.8665 56.7714 47.8813 55.4955 47.911C54.2492 47.911 53.2552 47.9407 52.5133 48V47.1098C53.4629 47.0505 54.175 46.9318 54.6498 46.7537C55.1246 46.5757 55.4361 46.2196 55.5845 45.6855C55.7625 45.1514 55.8516 44.3502 55.8516 43.282V21.2051C55.8516 20.1072 55.7625 19.306 55.5845 18.8016C55.4361 18.2675 55.1097 17.9114 54.6053 17.7333C54.1305 17.5256 53.4332 17.4069 52.5133 17.3773V16.4871ZM60.9257 32.288C62.2016 32.3177 63.2995 32.3771 64.2194 32.4661C65.169 32.5551 65.9998 32.6441 66.712 32.7331C67.4241 32.7925 68.0621 32.837 68.6259 32.8667C71.3261 33.1041 73.3142 33.6827 74.5902 34.6025C75.8958 35.5224 76.7415 36.9022 77.1273 38.742L78.151 43.3265C78.418 44.5134 78.6999 45.3442 78.9967 45.819C79.2934 46.2938 79.7237 46.5312 80.2875 46.5312C80.6732 46.5015 80.9848 46.4125 81.2222 46.2641C81.4892 46.0861 81.7711 45.8339 82.0678 45.5075L82.691 46.0416C81.8898 46.9614 81.0293 47.6142 80.1094 48C79.1895 48.4154 78.0768 48.6231 76.7712 48.6231C75.1688 48.6231 73.8484 48.2819 72.8098 47.5994C71.7712 46.9169 71.0888 45.6558 70.7624 43.8161L69.9612 39.3651C69.7535 38.1188 69.5012 37.0358 69.2045 36.1159C68.9078 35.1663 68.4924 34.4245 67.9582 33.8904C67.4538 33.3266 66.7416 33.0447 65.8218 33.0447H61.0147L60.9257 32.288ZM94.3696 24.3653C96.9808 24.3653 99.0283 25.1368 100.512 26.6798C101.996 28.2228 102.737 30.745 102.737 34.2465H88.0937L88.0047 33.4008H97.1292C97.1589 31.9468 97.0699 30.6115 96.8621 29.3949C96.6544 28.1486 96.328 27.1546 95.8829 26.4127C95.4378 25.6709 94.8444 25.3 94.1025 25.3C93.064 25.3 92.1738 25.9528 91.4319 27.2584C90.7198 28.5641 90.2895 30.7302 90.1412 33.7569L90.2747 34.0239C90.245 34.38 90.2153 34.7509 90.1857 35.1367C90.1857 35.5224 90.1857 35.923 90.1857 36.3384C90.1857 38.3859 90.4676 40.0476 91.0314 41.3235C91.6248 42.5995 92.3666 43.5342 93.2568 44.1276C94.147 44.6914 95.0521 44.9733 95.9719 44.9733C96.5951 44.9733 97.2331 44.8843 97.8859 44.7063C98.5683 44.4986 99.2508 44.1425 99.9333 43.638C100.616 43.1039 101.254 42.3621 101.847 41.4125L102.648 41.6796C102.292 42.8072 101.729 43.9051 100.957 44.9733C100.186 46.0416 99.2063 46.9169 98.0194 47.5994C96.8325 48.2819 95.4082 48.6231 93.7465 48.6231C91.7287 48.6231 89.9483 48.1929 88.4053 47.3324C86.8623 46.4718 85.6457 45.1662 84.7555 43.4155C83.8949 41.6648 83.4647 39.4393 83.4647 36.739C83.4647 33.9794 83.9246 31.6797 84.8445 29.84C85.794 28.0003 87.0848 26.6353 88.7168 25.7451C90.3785 24.8252 92.2628 24.3653 94.3696 24.3653ZM111.457 48.3116C110.122 48.3116 109.009 48.0593 108.119 47.5549C107.229 47.0505 106.576 46.3828 106.161 45.552C105.745 44.6914 105.537 43.7567 105.537 42.7478C105.537 41.4719 105.819 40.4333 106.383 39.6322C106.977 38.831 107.733 38.1782 108.653 37.6737C109.573 37.1693 110.537 36.7539 111.546 36.4275C112.585 36.101 113.564 35.7895 114.484 35.4927C115.433 35.1663 116.19 34.7954 116.754 34.38C117.347 33.9349 117.644 33.3711 117.644 32.6886V29.2169C117.644 28.4454 117.511 27.7629 117.243 27.1694C117.006 26.5463 116.62 26.0715 116.086 25.7451C115.582 25.4187 114.914 25.2555 114.083 25.2555C113.49 25.2555 112.896 25.3445 112.303 25.5225C111.709 25.6709 111.22 25.938 110.834 26.3237C111.665 26.6205 112.303 27.0804 112.748 27.7035C113.223 28.297 113.46 28.9795 113.46 29.751C113.46 30.7599 113.104 31.561 112.392 32.1545C111.709 32.748 110.893 33.0447 109.944 33.0447C108.876 33.0447 108.06 32.7183 107.496 32.0655C106.962 31.383 106.695 30.567 106.695 29.6175C106.695 28.7569 106.902 28.0448 107.318 27.481C107.763 26.9172 108.371 26.3831 109.143 25.8786C109.974 25.4039 110.968 25.0329 112.125 24.7659C113.312 24.4988 114.588 24.3653 115.953 24.3653C117.318 24.3653 118.549 24.5137 119.647 24.8104C120.745 25.0774 121.665 25.5819 122.407 26.3237C123.089 27.0062 123.534 27.8519 123.742 28.8608C123.95 29.84 124.053 31.0863 124.053 32.5996V44.7063C124.053 45.4481 124.128 45.9674 124.276 46.2641C124.424 46.5312 124.677 46.6647 125.033 46.6647C125.3 46.6647 125.552 46.5905 125.789 46.4422C126.056 46.2938 126.338 46.1158 126.635 45.908L127.08 46.6647C126.457 47.1988 125.73 47.6142 124.899 47.911C124.098 48.178 123.193 48.3116 122.184 48.3116C121.086 48.3116 120.211 48.1632 119.558 47.8665C118.905 47.5401 118.43 47.1098 118.134 46.5757C117.867 46.0416 117.733 45.4184 117.733 44.7063C117.021 45.8339 116.16 46.7241 115.151 47.3769C114.143 48 112.911 48.3116 111.457 48.3116ZM114.617 45.4629C115.211 45.4629 115.745 45.3294 116.22 45.0624C116.724 44.7656 117.199 44.2908 117.644 43.638V34.5135C117.377 34.9586 117.006 35.3592 116.531 35.7153C116.057 36.0714 115.552 36.4423 115.018 36.828C114.484 37.1841 113.965 37.5847 113.46 38.0298C112.985 38.4749 112.6 39.0239 112.303 39.6767C112.006 40.3295 111.858 41.1158 111.858 42.0357C111.858 43.1929 112.11 44.0535 112.614 44.6173C113.119 45.181 113.787 45.4629 114.617 45.4629ZM150.251 13.1488V43.1039C150.251 44.4392 150.459 45.4333 150.874 46.0861C151.29 46.7092 152.031 47.0208 153.1 47.0208V47.9555C152.18 47.8665 151.26 47.822 150.34 47.822C149.094 47.822 147.922 47.8665 146.824 47.9555C145.755 48.0445 144.761 48.2077 143.842 48.4451V18.49C143.842 17.1547 143.634 16.1755 143.218 15.5524C142.833 14.8995 142.091 14.5731 140.993 14.5731V13.6384C141.942 13.7274 142.862 13.772 143.753 13.772C144.969 13.772 146.126 13.7274 147.224 13.6384C148.322 13.5197 149.331 13.3565 150.251 13.1488ZM138.901 24.3653C140.207 24.3653 141.349 24.5878 142.328 25.0329C143.337 25.4484 144.123 26.1605 144.687 27.1694L144.153 27.659C143.767 26.9469 143.248 26.4424 142.595 26.1457C141.972 25.8193 141.304 25.6561 140.592 25.6561C139.079 25.6561 137.877 26.5463 136.987 28.3267C136.097 30.0774 135.667 32.7925 135.696 36.472C135.696 38.9942 135.859 41.012 136.186 42.5253C136.542 44.009 137.032 45.0772 137.655 45.73C138.307 46.3828 139.049 46.7092 139.88 46.7092C140.889 46.7092 141.794 46.3086 142.595 45.5075C143.396 44.7063 143.827 43.6232 143.886 42.2582L144.109 43.8161C143.663 45.3888 142.937 46.5905 141.928 47.4214C140.948 48.2225 139.658 48.6231 138.055 48.6231C136.305 48.6231 134.732 48.1929 133.337 47.3324C131.972 46.4718 130.904 45.1514 130.133 43.371C129.361 41.5609 128.975 39.2316 128.975 36.3829C128.975 33.6827 129.406 31.4572 130.266 29.7065C131.127 27.9261 132.299 26.5908 133.782 25.7006C135.296 24.8104 137.002 24.3653 138.901 24.3653Z" fill="black"/>
<path d="M171.382 15.8639C173.34 15.8639 174.943 16.1607 176.189 16.7541C177.465 17.3179 178.593 17.9856 179.572 18.7571C180.165 19.2022 180.61 19.2615 180.907 18.9351C181.233 18.579 181.456 17.763 181.575 16.4871H182.598C182.539 17.6443 182.495 19.0538 182.465 20.7155C182.435 22.3475 182.42 24.5285 182.42 27.2584H181.397C181.248 25.8935 181.055 24.7362 180.818 23.7867C180.581 22.8074 180.254 21.9469 179.839 21.2051C179.423 20.4633 178.83 19.7956 178.058 19.2022C177.317 18.4603 176.456 17.9114 175.477 17.5553C174.498 17.1992 173.474 17.0212 172.406 17.0212C170.803 17.0212 169.438 17.4514 168.311 18.312C167.183 19.1428 166.263 20.2852 165.551 21.7392C164.869 23.1932 164.364 24.8401 164.038 26.6798C163.711 28.4899 163.548 30.3741 163.548 32.3325C163.548 34.3207 163.711 36.2346 164.038 38.0743C164.394 39.8844 164.928 41.5016 165.64 42.9259C166.382 44.3502 167.332 45.4778 168.489 46.3086C169.646 47.1395 171.011 47.5549 172.584 47.5549C173.563 47.5549 174.542 47.3769 175.521 47.0208C176.53 46.635 177.391 46.0861 178.103 45.3739C179.26 44.4837 180.047 43.3858 180.462 42.0802C180.877 40.7449 181.189 38.9793 181.397 36.7835H182.42C182.42 39.6025 182.435 41.8873 182.465 43.638C182.495 45.3591 182.539 46.8131 182.598 48H181.575C181.456 46.7241 181.248 45.9229 180.952 45.5965C180.685 45.2701 180.225 45.3146 179.572 45.73C178.474 46.5015 177.302 47.184 176.056 47.7775C174.839 48.3412 173.266 48.6231 171.337 48.6231C168.192 48.6231 165.433 47.9852 163.059 46.7092C160.714 45.4333 158.89 43.5935 157.584 41.19C156.278 38.7865 155.626 35.8933 155.626 32.5106C155.626 29.1872 156.293 26.2792 157.628 23.7867C158.993 21.2941 160.848 19.3505 163.192 17.9559C165.566 16.5612 168.296 15.8639 171.382 15.8639ZM207.928 24.9884V25.8786C207.364 26.027 206.83 26.3831 206.326 26.9469C205.821 27.481 205.332 28.4008 204.857 29.7065L198.581 47.3324L196.934 50.448L187.231 28.4157C186.727 27.2584 186.222 26.5611 185.718 26.3237C185.243 26.0567 184.827 25.9231 184.471 25.9231V24.9884C185.451 25.0775 186.459 25.1516 187.498 25.211C188.566 25.2407 189.59 25.2555 190.569 25.2555C191.786 25.2555 192.899 25.2258 193.907 25.1665C194.916 25.1071 195.866 25.0478 196.756 24.9884V25.9231C196.163 25.9231 195.599 25.9676 195.065 26.0567C194.56 26.116 194.204 26.3237 193.996 26.6798C193.818 27.0062 193.907 27.5848 194.264 28.4157L199.872 41.9467L199.471 42.2137L202.765 33.0002C203.329 31.3978 203.566 30.0922 203.477 29.0833C203.388 28.0448 203.062 27.2733 202.498 26.7688C201.934 26.2347 201.163 25.938 200.183 25.8786V24.9884C200.658 25.0181 201.148 25.0478 201.652 25.0774C202.157 25.0774 202.661 25.0923 203.165 25.122C203.67 25.122 204.115 25.122 204.501 25.122C205.094 25.122 205.717 25.1071 206.37 25.0774C207.023 25.0478 207.542 25.0181 207.928 24.9884ZM198.581 47.3324L196.89 52.0949C196.593 52.8367 196.281 53.4599 195.955 53.9643C195.658 54.4984 195.317 54.9287 194.931 55.2551C194.516 55.6112 193.982 55.8782 193.329 56.0563C192.676 56.264 191.919 56.3678 191.059 56.3678C190.347 56.3678 189.605 56.2492 188.833 56.0118C188.091 55.7744 187.468 55.3886 186.964 54.8545C186.459 54.3204 186.207 53.6379 186.207 52.8071C186.207 51.8872 186.534 51.1454 187.186 50.5816C187.839 50.0475 188.7 49.7804 189.768 49.7804C190.747 49.7804 191.548 50.0178 192.172 50.4925C192.795 50.9673 193.106 51.6646 193.106 52.5845C193.106 53.178 192.913 53.7418 192.528 54.2759C192.172 54.81 191.623 55.2106 190.881 55.4776C191.029 55.5073 191.207 55.5222 191.415 55.5222C191.623 55.5222 191.786 55.5222 191.904 55.5222C192.795 55.5222 193.581 55.2403 194.264 54.6765C194.946 54.1127 195.51 53.2225 195.955 52.0059L197.513 47.4214L198.581 47.3324ZM220.164 24.3653C221.321 24.3653 222.375 24.4988 223.324 24.7659C224.303 25.0033 225.105 25.3148 225.728 25.7006C226.499 26.1754 227.093 26.7688 227.508 27.481C227.953 28.1635 228.176 28.9646 228.176 29.8845C228.176 30.9231 227.849 31.7836 227.197 32.4661C226.544 33.1189 225.698 33.4453 224.66 33.4453C223.621 33.4453 222.79 33.1486 222.167 32.5551C221.544 31.9616 221.232 31.1605 221.232 30.1516C221.232 29.202 221.529 28.4157 222.122 27.7925C222.716 27.1397 223.398 26.7095 224.17 26.5018C223.933 26.205 223.576 25.9528 223.102 25.7451C222.627 25.5374 222.093 25.4335 221.499 25.4335C220.579 25.4335 219.763 25.7006 219.051 26.2347C218.369 26.7688 217.79 27.5107 217.315 28.4602C216.841 29.4097 216.47 30.5225 216.203 31.7984C215.965 33.0744 215.847 34.469 215.847 35.9824C215.847 38.2672 216.128 40.0624 216.692 41.368C217.286 42.6737 218.028 43.5935 218.918 44.1276C219.838 44.6618 220.787 44.9288 221.766 44.9288C222.33 44.9288 222.938 44.8398 223.591 44.6618C224.274 44.4837 224.956 44.1276 225.639 43.5935C226.351 43.0594 227.004 42.3027 227.597 41.3235L228.354 41.5906C228.027 42.6885 227.493 43.7864 226.751 44.8843C226.01 45.9822 225.045 46.8873 223.858 47.5994C222.671 48.2819 221.217 48.6231 219.496 48.6231C217.568 48.6231 215.817 48.2077 214.244 47.3769C212.701 46.5163 211.455 45.2107 210.505 43.46C209.586 41.6796 209.126 39.3948 209.126 36.6055C209.126 33.9349 209.6 31.6946 210.55 29.8845C211.529 28.0448 212.85 26.665 214.511 25.7451C216.173 24.8252 218.057 24.3653 220.164 24.3653ZM239.753 13.1488V43.8606C239.753 45.1069 239.96 45.9525 240.376 46.3976C240.821 46.8427 241.563 47.0653 242.601 47.0653V48C242.037 47.9703 241.192 47.9407 240.064 47.911C238.937 47.8516 237.794 47.822 236.637 47.822C235.48 47.822 234.307 47.8516 233.121 47.911C231.963 47.9407 231.088 47.9703 230.494 48V47.0653C231.533 47.0653 232.26 46.8427 232.675 46.3976C233.121 45.9525 233.343 45.1069 233.343 43.8606V18.49C233.343 17.1547 233.135 16.1755 232.72 15.5524C232.334 14.8995 231.592 14.5731 230.494 14.5731V13.6384C231.444 13.7274 232.364 13.772 233.254 13.772C234.471 13.772 235.628 13.7274 236.726 13.6384C237.824 13.5197 238.833 13.3565 239.753 13.1488ZM255.544 24.3653C258.155 24.3653 260.202 25.1368 261.686 26.6798C263.17 28.2228 263.912 30.745 263.912 34.2465H249.268L249.179 33.4008H258.303C258.333 31.9468 258.244 30.6115 258.036 29.3949C257.829 28.1486 257.502 27.1546 257.057 26.4127C256.612 25.6709 256.019 25.3 255.277 25.3C254.238 25.3 253.348 25.9528 252.606 27.2584C251.894 28.5641 251.464 30.7302 251.315 33.7569L251.449 34.0239C251.419 34.38 251.39 34.7509 251.36 35.1367C251.36 35.5224 251.36 35.923 251.36 36.3384C251.36 38.3859 251.642 40.0476 252.206 41.3235C252.799 42.5995 253.541 43.5342 254.431 44.1276C255.321 44.6914 256.226 44.9733 257.146 44.9733C257.769 44.9733 258.407 44.8843 259.06 44.7063C259.743 44.4986 260.425 44.1425 261.107 43.638C261.79 43.1039 262.428 42.3621 263.021 41.4125L263.823 41.6796C263.467 42.8072 262.903 43.9051 262.131 44.9733C261.36 46.0416 260.38 46.9169 259.194 47.5994C258.007 48.2819 256.582 48.6231 254.921 48.6231C252.903 48.6231 251.122 48.1929 249.579 47.3324C248.036 46.4718 246.82 45.1662 245.93 43.4155C245.069 41.6648 244.639 39.4393 244.639 36.739C244.639 33.9794 245.099 31.6797 246.019 29.84C246.968 28.0003 248.259 26.6353 249.891 25.7451C251.553 24.8252 253.437 24.3653 255.544 24.3653Z" fill="#207581"/>
</svg>
