<svg width="212" height="44" viewBox="0 0 212 44" fill="none" xmlns="http://www.w3.org/2000/svg">
<path d="M0.513333 3.48706C1.25516 3.51673 2.24922 3.5464 3.49549 3.57608C4.77144 3.60575 6.03255 3.62059 7.27882 3.62059C8.70314 3.62059 10.0829 3.60575 11.4182 3.57608C12.7535 3.5464 13.7031 3.53157 14.2669 3.53157C17.0265 3.53157 19.3113 3.84314 21.1214 4.46627C22.9611 5.05974 24.3261 5.9351 25.2163 7.09235C26.1361 8.24961 26.5961 9.64425 26.5961 11.2763C26.5961 12.2852 26.3884 13.3089 25.9729 14.3475C25.5575 15.3563 24.8454 16.3059 23.8365 17.1961C22.8573 18.0566 21.5071 18.7539 19.7861 19.288C18.065 19.7925 15.8989 20.0447 13.2876 20.0447H9.01471V19.1545H12.8425C14.5933 19.1545 15.9137 18.8281 16.8039 18.1753C17.7238 17.4928 18.3469 16.6026 18.6733 15.5047C19.0294 14.3771 19.2075 13.1308 19.2075 11.7659C19.2075 9.4217 18.792 7.61163 17.9612 6.33568C17.1303 5.03006 15.706 4.37725 13.6882 4.37725C12.531 4.37725 11.7743 4.62948 11.4182 5.13392C11.0918 5.63836 10.9286 6.66209 10.9286 8.2051V30.282C10.9286 31.3502 11.0028 32.1514 11.1512 32.6855C11.3292 33.2196 11.6556 33.5757 12.1304 33.7537C12.6052 33.9318 13.3173 34.0505 14.2669 34.1098V35C13.4657 34.9407 12.4568 34.911 11.2402 34.911C10.0236 34.8813 8.79216 34.8665 7.54588 34.8665C6.12157 34.8665 4.77144 34.8813 3.49549 34.911C2.24922 34.911 1.25516 34.9407 0.513333 35V34.1098C1.46288 34.0505 2.17503 33.9318 2.6498 33.7537C3.12458 33.5757 3.43614 33.2196 3.58451 32.6855C3.76255 32.1514 3.85157 31.3502 3.85157 30.282V8.2051C3.85157 7.10719 3.76255 6.30601 3.58451 5.80157C3.43614 5.26745 3.10974 4.91137 2.60529 4.73333C2.13052 4.52562 1.4332 4.40693 0.513333 4.37725V3.48706ZM8.92569 19.288C10.2016 19.3177 11.2995 19.3771 12.2194 19.4661C13.169 19.5551 13.9998 19.6441 14.712 19.7331C15.4241 19.7925 16.0621 19.837 16.6259 19.8667C19.3261 20.1041 21.3142 20.6827 22.5902 21.6025C23.8958 22.5224 24.7415 23.9022 25.1273 25.742L26.151 30.3265C26.418 31.5134 26.6999 32.3442 26.9967 32.819C27.2934 33.2938 27.7237 33.5312 28.2875 33.5312C28.6732 33.5015 28.9848 33.4125 29.2222 33.2641C29.4892 33.0861 29.7711 32.8339 30.0678 32.5075L30.691 33.0416C29.8898 33.9614 29.0293 34.6142 28.1094 35C27.1895 35.4154 26.0768 35.6231 24.7712 35.6231C23.1688 35.6231 21.8484 35.2819 20.8098 34.5994C19.7712 33.9169 19.0888 32.6558 18.7624 30.8161L17.9612 26.3651C17.7535 25.1188 17.5012 24.0358 17.2045 23.1159C16.9078 22.1663 16.4924 21.4245 15.9582 20.8904C15.4538 20.3266 14.7416 20.0447 13.8218 20.0447H9.01471L8.92569 19.288ZM42.3696 11.3653C44.9808 11.3653 47.0283 12.1368 48.5119 13.6798C49.9956 15.2228 50.7374 17.745 50.7374 21.2465H36.0937L36.0047 20.4008H45.1292C45.1589 18.9468 45.0699 17.6115 44.8621 16.3949C44.6544 15.1486 44.328 14.1546 43.8829 13.4127C43.4378 12.6709 42.8444 12.3 42.1025 12.3C41.064 12.3 40.1738 12.9528 39.4319 14.2584C38.7198 15.5641 38.2895 17.7302 38.1412 20.7569L38.2747 21.0239C38.245 21.38 38.2153 21.7509 38.1857 22.1367C38.1857 22.5224 38.1857 22.923 38.1857 23.3384C38.1857 25.3859 38.4676 27.0476 39.0314 28.3235C39.6248 29.5995 40.3666 30.5342 41.2568 31.1276C42.147 31.6914 43.0521 31.9733 43.9719 31.9733C44.5951 31.9733 45.2331 31.8843 45.8859 31.7063C46.5683 31.4986 47.2508 31.1425 47.9333 30.638C48.6158 30.1039 49.2538 29.3621 49.8472 28.4125L50.6484 28.6796C50.2923 29.8072 49.7285 30.9051 48.957 31.9733C48.1855 33.0416 47.2063 33.9169 46.0194 34.5994C44.8325 35.2819 43.4082 35.6231 41.7465 35.6231C39.7287 35.6231 37.9483 35.1929 36.4053 34.3324C34.8623 33.4718 33.6457 32.1662 32.7555 30.4155C31.8949 28.6648 31.4647 26.4393 31.4647 23.739C31.4647 20.9794 31.9246 18.6797 32.8445 16.84C33.794 15.0003 35.0848 13.6353 36.7168 12.7451C38.3785 11.8252 40.2628 11.3653 42.3696 11.3653ZM59.4572 35.3116C58.1219 35.3116 57.0091 35.0593 56.1189 34.5549C55.2287 34.0505 54.5759 33.3828 54.1605 32.552C53.7451 31.6914 53.5374 30.7567 53.5374 29.7478C53.5374 28.4719 53.8193 27.4333 54.3831 26.6322C54.9765 25.831 55.7332 25.1782 56.6531 24.6737C57.5729 24.1693 58.5373 23.7539 59.5462 23.4275C60.5848 23.101 61.564 22.7895 62.4838 22.4927C63.4334 22.1663 64.1901 21.7954 64.7538 21.38C65.3473 20.9349 65.644 20.3711 65.644 19.6886V16.2169C65.644 15.4454 65.5105 14.7629 65.2435 14.1694C65.0061 13.5463 64.6203 13.0715 64.0862 12.7451C63.5818 12.4187 62.9141 12.2555 62.0833 12.2555C61.4898 12.2555 60.8963 12.3445 60.3029 12.5225C59.7094 12.6709 59.2198 12.938 58.834 13.3237C59.6649 13.6205 60.3029 14.0804 60.748 14.7035C61.2227 15.297 61.4601 15.9795 61.4601 16.751C61.4601 17.7599 61.104 18.561 60.3919 19.1545C59.7094 19.748 58.8934 20.0447 57.9438 20.0447C56.8756 20.0447 56.0596 19.7183 55.4958 19.0655C54.9617 18.383 54.6946 17.567 54.6946 16.6175C54.6946 15.7569 54.9023 15.0448 55.3178 14.481C55.7629 13.9172 56.3712 13.3831 57.1427 12.8786C57.9735 12.4039 58.9676 12.0329 60.1248 11.7659C61.3118 11.4988 62.5877 11.3653 63.9527 11.3653C65.3176 11.3653 66.5491 11.5137 67.647 11.8104C68.7449 12.0774 69.6648 12.5819 70.4066 13.3237C71.0891 14.0062 71.5342 14.8519 71.7419 15.8608C71.9496 16.84 72.0535 18.0863 72.0535 19.5996V31.7063C72.0535 32.4481 72.1276 32.9674 72.276 33.2641C72.4244 33.5312 72.6766 33.6647 73.0327 33.6647C73.2997 33.6647 73.5519 33.5905 73.7893 33.4422C74.0564 33.2938 74.3383 33.1158 74.635 32.908L75.0801 33.6647C74.457 34.1988 73.73 34.6142 72.8991 34.911C72.098 35.178 71.1929 35.3116 70.184 35.3116C69.0861 35.3116 68.2108 35.1632 67.558 34.8665C66.9052 34.5401 66.4304 34.1098 66.1336 33.5757C65.8666 33.0416 65.7331 32.4184 65.7331 31.7063C65.0209 32.8339 64.1604 33.7241 63.1515 34.3769C62.1426 35 60.9112 35.3116 59.4572 35.3116ZM62.6174 32.4629C63.2108 32.4629 63.745 32.3294 64.2197 32.0624C64.7242 31.7656 65.1989 31.2908 65.644 30.638V21.5135C65.377 21.9586 65.0061 22.3592 64.5313 22.7153C64.0565 23.0714 63.5521 23.4423 63.018 23.828C62.4838 24.1841 61.9646 24.5847 61.4601 25.0298C60.9853 25.4749 60.5996 26.0239 60.3029 26.6767C60.0061 27.3295 59.8578 28.1158 59.8578 29.0357C59.8578 30.1929 60.11 31.0535 60.6144 31.6173C61.1189 32.181 61.7865 32.4629 62.6174 32.4629ZM98.2509 0.148821V30.1039C98.2509 31.4392 98.4587 32.4333 98.8741 33.0861C99.2895 33.7092 100.031 34.0208 101.1 34.0208V34.9555C100.18 34.8665 99.2598 34.822 98.34 34.822C97.0937 34.822 95.9216 34.8665 94.8237 34.9555C93.7555 35.0445 92.7614 35.2077 91.8415 35.4451V5.49C91.8415 4.15471 91.6338 3.17549 91.2184 2.55235C90.8326 1.89954 90.0908 1.57314 88.9929 1.57314V0.638431C89.9425 0.727449 90.8623 0.771959 91.7525 0.771959C92.9691 0.771959 94.1264 0.727449 95.2243 0.638431C96.3222 0.519738 97.3311 0.356535 98.2509 0.148821ZM86.9009 11.3653C88.2066 11.3653 89.349 11.5878 90.3282 12.0329C91.3371 12.4484 92.1234 13.1605 92.6872 14.1694L92.1531 14.659C91.7674 13.9469 91.2481 13.4424 90.5953 13.1457C89.9721 12.8193 89.3045 12.6561 88.5923 12.6561C87.079 12.6561 85.8772 13.5463 84.987 15.3267C84.0968 17.0774 83.6666 19.7925 83.6962 23.472C83.6962 25.9942 83.8594 28.012 84.1859 29.5253C84.5419 31.009 85.0315 32.0772 85.6547 32.73C86.3075 33.3828 87.0493 33.7092 87.8802 33.7092C88.8891 33.7092 89.7941 33.3086 90.5953 32.5075C91.3964 31.7063 91.8267 30.6232 91.886 29.2582L92.1086 30.8161C91.6635 32.3888 90.9365 33.5905 89.9276 34.4214C88.9484 35.2225 87.6576 35.6231 86.0553 35.6231C84.3045 35.6231 82.7319 35.1929 81.3372 34.3324C79.9723 33.4718 78.904 32.1514 78.1325 30.371C77.361 28.5609 76.9753 26.2316 76.9753 23.3829C76.9753 20.6827 77.4055 18.4572 78.266 16.7065C79.1266 14.9261 80.2987 13.5908 81.7823 12.7006C83.2957 11.8104 85.0019 11.3653 86.9009 11.3653Z" fill="black"/>
<path d="M119.382 2.86392C121.34 2.86392 122.943 3.16065 124.189 3.75412C125.465 4.31791 126.593 4.98555 127.572 5.75706C128.165 6.20216 128.61 6.2615 128.907 5.9351C129.233 5.57902 129.456 4.76301 129.575 3.48706H130.598C130.539 4.64431 130.495 6.05379 130.465 7.71549C130.435 9.34752 130.42 11.5285 130.42 14.2584H129.397C129.248 12.8935 129.055 11.7362 128.818 10.7867C128.581 9.80745 128.254 8.94693 127.839 8.2051C127.423 7.46327 126.83 6.79562 126.058 6.20216C125.317 5.46033 124.456 4.91137 123.477 4.55529C122.498 4.19921 121.474 4.02117 120.406 4.02117C118.803 4.02117 117.438 4.45144 116.311 5.31196C115.183 6.14281 114.263 7.28523 113.551 8.73921C112.869 10.1932 112.364 11.8401 112.038 13.6798C111.711 15.4899 111.548 17.3741 111.548 19.3325C111.548 21.3207 111.711 23.2346 112.038 25.0743C112.394 26.8844 112.928 28.5016 113.64 29.9259C114.382 31.3502 115.332 32.4778 116.489 33.3086C117.646 34.1395 119.011 34.5549 120.584 34.5549C121.563 34.5549 122.542 34.3769 123.521 34.0208C124.53 33.635 125.391 33.0861 126.103 32.3739C127.26 31.4837 128.047 30.3858 128.462 29.0802C128.877 27.7449 129.189 25.9793 129.397 23.7835H130.42C130.42 26.6025 130.435 28.8873 130.465 30.638C130.495 32.3591 130.539 33.8131 130.598 35H129.575C129.456 33.7241 129.248 32.9229 128.952 32.5965C128.685 32.2701 128.225 32.3146 127.572 32.73C126.474 33.5015 125.302 34.184 124.056 34.7775C122.839 35.3412 121.266 35.6231 119.337 35.6231C116.192 35.6231 113.433 34.9852 111.059 33.7092C108.714 32.4333 106.89 30.5935 105.584 28.19C104.278 25.7865 103.626 22.8933 103.626 19.5106C103.626 16.1872 104.293 13.2792 105.628 10.7867C106.993 8.29412 108.848 6.35052 111.192 4.95588C113.566 3.56124 116.296 2.86392 119.382 2.86392ZM155.928 11.9884V12.8786C155.364 13.027 154.83 13.3831 154.326 13.9469C153.821 14.481 153.332 15.4008 152.857 16.7065L146.581 34.3324L144.934 37.448L135.231 15.4157C134.727 14.2584 134.222 13.5611 133.718 13.3237C133.243 13.0567 132.827 12.9231 132.471 12.9231V11.9884C133.451 12.0775 134.459 12.1516 135.498 12.211C136.566 12.2407 137.59 12.2555 138.569 12.2555C139.786 12.2555 140.899 12.2258 141.907 12.1665C142.916 12.1071 143.866 12.0478 144.756 11.9884V12.9231C144.163 12.9231 143.599 12.9676 143.065 13.0567C142.56 13.116 142.204 13.3237 141.996 13.6798C141.818 14.0062 141.907 14.5848 142.264 15.4157L147.872 28.9467L147.471 29.2137L150.765 20.0002C151.329 18.3978 151.566 17.0922 151.477 16.0833C151.388 15.0448 151.062 14.2733 150.498 13.7688C149.934 13.2347 149.163 12.938 148.183 12.8786V11.9884C148.658 12.0181 149.148 12.0478 149.652 12.0774C150.157 12.0774 150.661 12.0923 151.165 12.122C151.67 12.122 152.115 12.122 152.501 12.122C153.094 12.122 153.717 12.1071 154.37 12.0774C155.023 12.0478 155.542 12.0181 155.928 11.9884ZM146.581 34.3324L144.89 39.0949C144.593 39.8367 144.281 40.4599 143.955 40.9643C143.658 41.4984 143.317 41.9287 142.931 42.2551C142.516 42.6112 141.982 42.8782 141.329 43.0563C140.676 43.264 139.919 43.3678 139.059 43.3678C138.347 43.3678 137.605 43.2492 136.833 43.0118C136.091 42.7744 135.468 42.3886 134.964 41.8545C134.459 41.3204 134.207 40.6379 134.207 39.8071C134.207 38.8872 134.534 38.1454 135.186 37.5816C135.839 37.0475 136.7 36.7804 137.768 36.7804C138.747 36.7804 139.548 37.0178 140.172 37.4925C140.795 37.9673 141.106 38.6646 141.106 39.5845C141.106 40.178 140.913 40.7418 140.528 41.2759C140.172 41.81 139.623 42.2106 138.881 42.4776C139.029 42.5073 139.207 42.5222 139.415 42.5222C139.623 42.5222 139.786 42.5222 139.904 42.5222C140.795 42.5222 141.581 42.2403 142.264 41.6765C142.946 41.1127 143.51 40.2225 143.955 39.0059L145.513 34.4214L146.581 34.3324ZM168.164 11.3653C169.321 11.3653 170.375 11.4988 171.324 11.7659C172.303 12.0033 173.105 12.3148 173.728 12.7006C174.499 13.1754 175.093 13.7688 175.508 14.481C175.953 15.1635 176.176 15.9646 176.176 16.8845C176.176 17.9231 175.849 18.7836 175.197 19.4661C174.544 20.1189 173.698 20.4453 172.66 20.4453C171.621 20.4453 170.79 20.1486 170.167 19.5551C169.544 18.9616 169.232 18.1605 169.232 17.1516C169.232 16.202 169.529 15.4157 170.122 14.7925C170.716 14.1397 171.398 13.7095 172.17 13.5018C171.933 13.205 171.576 12.9528 171.102 12.7451C170.627 12.5374 170.093 12.4335 169.499 12.4335C168.579 12.4335 167.763 12.7006 167.051 13.2347C166.369 13.7688 165.79 14.5107 165.315 15.4602C164.841 16.4097 164.47 17.5225 164.203 18.7984C163.965 20.0744 163.847 21.469 163.847 22.9824C163.847 25.2672 164.128 27.0624 164.692 28.368C165.286 29.6737 166.028 30.5935 166.918 31.1276C167.838 31.6618 168.787 31.9288 169.766 31.9288C170.33 31.9288 170.938 31.8398 171.591 31.6618C172.274 31.4837 172.956 31.1276 173.639 30.5935C174.351 30.0594 175.004 29.3027 175.597 28.3235L176.354 28.5906C176.027 29.6885 175.493 30.7864 174.751 31.8843C174.01 32.9822 173.045 33.8873 171.858 34.5994C170.671 35.2819 169.217 35.6231 167.496 35.6231C165.568 35.6231 163.817 35.2077 162.244 34.3769C160.701 33.5163 159.455 32.2107 158.505 30.46C157.586 28.6796 157.126 26.3948 157.126 23.6055C157.126 20.9349 157.6 18.6946 158.55 16.8845C159.529 15.0448 160.85 13.665 162.511 12.7451C164.173 11.8252 166.057 11.3653 168.164 11.3653ZM187.753 0.148821V30.8606C187.753 32.1069 187.96 32.9525 188.376 33.3976C188.821 33.8427 189.563 34.0653 190.601 34.0653V35C190.037 34.9703 189.192 34.9407 188.064 34.911C186.937 34.8516 185.794 34.822 184.637 34.822C183.48 34.822 182.307 34.8516 181.121 34.911C179.963 34.9407 179.088 34.9703 178.494 35V34.0653C179.533 34.0653 180.26 33.8427 180.675 33.3976C181.121 32.9525 181.343 32.1069 181.343 30.8606V5.49C181.343 4.15471 181.135 3.17549 180.72 2.55235C180.334 1.89954 179.592 1.57314 178.494 1.57314V0.638431C179.444 0.727449 180.364 0.771959 181.254 0.771959C182.471 0.771959 183.628 0.727449 184.726 0.638431C185.824 0.519738 186.833 0.356535 187.753 0.148821ZM203.544 11.3653C206.155 11.3653 208.202 12.1368 209.686 13.6798C211.17 15.2228 211.912 17.745 211.912 21.2465H197.268L197.179 20.4008H206.303C206.333 18.9468 206.244 17.6115 206.036 16.3949C205.829 15.1486 205.502 14.1546 205.057 13.4127C204.612 12.6709 204.019 12.3 203.277 12.3C202.238 12.3 201.348 12.9528 200.606 14.2584C199.894 15.5641 199.464 17.7302 199.315 20.7569L199.449 21.0239C199.419 21.38 199.39 21.7509 199.36 22.1367C199.36 22.5224 199.36 22.923 199.36 23.3384C199.36 25.3859 199.642 27.0476 200.206 28.3235C200.799 29.5995 201.541 30.5342 202.431 31.1276C203.321 31.6914 204.226 31.9733 205.146 31.9733C205.769 31.9733 206.407 31.8843 207.06 31.7063C207.743 31.4986 208.425 31.1425 209.107 30.638C209.79 30.1039 210.428 29.3621 211.021 28.4125L211.823 28.6796C211.467 29.8072 210.903 30.9051 210.131 31.9733C209.36 33.0416 208.38 33.9169 207.194 34.5994C206.007 35.2819 204.582 35.6231 202.921 35.6231C200.903 35.6231 199.122 35.1929 197.579 34.3324C196.036 33.4718 194.82 32.1662 193.93 30.4155C193.069 28.6648 192.639 26.4393 192.639 23.739C192.639 20.9794 193.099 18.6797 194.019 16.84C194.968 15.0003 196.259 13.6353 197.891 12.7451C199.553 11.8252 201.437 11.3653 203.544 11.3653Z" fill="#207581"/>
</svg>
