<svg width="42" height="42" viewBox="0 0 42 42" fill="none" xmlns="http://www.w3.org/2000/svg">
<rect width="42" height="42" rx="21" fill="#9E2DD3"/>
<path d="M30.875 12.6875V17.375C30.875 17.5822 30.7927 17.7809 30.6462 17.9274C30.4997 18.0739 30.301 18.1562 30.0938 18.1562H25.4062C25.199 18.1562 25.0003 18.0739 24.8538 17.9274C24.7073 17.7809 24.625 17.5822 24.625 17.375C24.625 17.1678 24.7073 16.9691 24.8538 16.8226C25.0003 16.6761 25.199 16.5937 25.4062 16.5937H28.208L26.7793 15.165C25.3273 13.7064 23.3559 12.8835 21.2979 12.8769H21.2539C19.2131 12.8722 17.2524 13.671 15.7959 15.1006C15.6467 15.2399 15.4489 15.3152 15.2449 15.3105C15.0408 15.3059 14.8467 15.2215 14.704 15.0755C14.5614 14.9296 14.4815 14.7336 14.4815 14.5295C14.4815 14.3253 14.5614 14.1294 14.7041 13.9834C16.4693 12.2582 18.8436 11.2987 21.3117 11.3131C23.7799 11.3276 26.1428 12.3148 27.8877 14.0605L29.3125 15.4893V12.6875C29.3125 12.4803 29.3948 12.2816 29.5413 12.1351C29.6878 11.9886 29.8865 11.9062 30.0938 11.9062C30.301 11.9062 30.4997 11.9886 30.6462 12.1351C30.7927 12.2816 30.875 12.4803 30.875 12.6875ZM27.2041 25.8994C25.7332 27.3362 23.7553 28.1351 21.6992 28.1231C19.6431 28.111 17.6746 27.2889 16.2207 25.835L14.792 24.4062H17.5938C17.801 24.4062 17.9997 24.3239 18.1462 24.1774C18.2927 24.0309 18.375 23.8322 18.375 23.625C18.375 23.4178 18.2927 23.2191 18.1462 23.0726C17.9997 22.9261 17.801 22.8437 17.5938 22.8437H12.9062C12.699 22.8437 12.5003 22.9261 12.3538 23.0726C12.2073 23.2191 12.125 23.4178 12.125 23.625V28.3125C12.125 28.5197 12.2073 28.7184 12.3538 28.8649C12.5003 29.0114 12.699 29.0937 12.9062 29.0937C13.1135 29.0937 13.3122 29.0114 13.4587 28.8649C13.6052 28.7184 13.6875 28.5197 13.6875 28.3125V25.5107L15.1162 26.9394C16.8586 28.6906 19.225 29.6783 21.6953 29.6855H21.7471C24.1964 29.6919 26.5495 28.733 28.2969 27.0166C28.4395 26.8706 28.5194 26.6746 28.5194 26.4705C28.5195 26.2664 28.4396 26.0704 28.2969 25.9245C28.1543 25.7785 27.9602 25.6941 27.7561 25.6895C27.5521 25.6848 27.3543 25.7601 27.2051 25.8994H27.2041Z" fill="#FAFDFD"/>
</svg>
