<svg width="689" height="406" viewBox="0 0 689 406" fill="none" xmlns="http://www.w3.org/2000/svg">
<g clip-path="url(#clip0_20_1678)">
<g opacity="0.4">
<path d="M458.215 235.42C464.177 220.106 471.637 205.42 480.486 191.576C498.239 163.808 521.162 139.719 548.007 120.622C561.775 110.736 576.57 102.368 592.134 95.6634C608.972 88.5398 627.868 83.9225 646.046 88.2175C660.797 91.7116 674.312 100.801 680.326 115.11C686.912 130.855 687.452 149.625 682.944 165.973C678.938 179.874 671.109 192.368 660.35 202.028C649.634 211.636 637.067 218.948 623.422 223.513C609.647 228.291 595.124 230.538 580.552 230.147C577.089 230.043 573.626 229.777 570.164 229.347C568.086 229.097 568.086 232.362 570.164 232.612C585.022 234.346 600.072 233.306 614.551 229.544C629.011 225.964 642.639 219.606 654.679 210.825C666.271 202.215 676.088 191.067 682.04 177.828C689.457 161.304 690.828 142.211 686.694 124.636C685.073 117.741 682.539 110.846 678.384 105.075C673.564 98.5263 667.216 93.2597 659.893 89.7357C643.439 81.6555 624.71 81.9571 607.352 86.8031C597.842 89.5899 588.615 93.2666 579.793 97.7848C572.258 101.523 564.919 105.643 557.802 110.129C543.504 119.148 530.129 129.556 517.872 141.202C505.655 152.799 494.592 165.557 484.839 179.295C475.073 193.012 466.7 207.671 459.846 223.055C458.163 226.854 456.574 230.688 455.078 234.557C454.309 236.512 457.467 237.365 458.194 235.42H458.215Z" fill="#207581"/>
<path d="M469.621 235.95C499.943 185.742 542.065 139.528 597.452 120.351C608.058 116.68 619.267 114.029 630.454 115.152C641.642 116.275 652.778 121.693 658.73 131.219C664.557 140.578 664.682 152.506 661.971 163.165C657.172 181.978 644.312 197.982 628.792 209.661C613.273 221.339 595.229 229.087 577.04 235.784" fill="#2A9AAA"/>
<path d="M471.033 236.824C483.686 215.89 498.135 195.965 514.932 178.14C531.407 160.659 550.178 145.227 571.327 133.746C582.254 127.703 593.831 122.924 605.836 119.499C618.592 115.973 632.709 114.84 644.852 121.059C650.189 123.67 654.669 127.755 657.764 132.831C660.867 138.462 662.345 144.845 662.033 151.269C661.732 163.654 656.684 175.686 649.776 185.805C634.693 207.883 610.448 220.996 586.192 230.615C583.014 231.87 579.818 233.09 576.604 234.276C574.651 234.994 575.503 238.145 577.477 237.396C603.228 227.88 629.416 215.973 647.366 194.353C655.416 184.64 661.711 173.159 664.204 160.701C666.749 148.034 665.046 134.016 655.448 124.605C646.099 115.433 632.48 112.406 619.776 113.54C606.137 114.767 592.851 119.779 580.489 125.478C557.938 135.878 537.723 150.863 520.053 168.209C502.103 185.888 486.636 205.948 473.163 227.163C471.48 229.804 469.832 232.467 468.218 235.15C467.128 236.949 469.943 238.592 471.033 236.793V236.824Z" fill="#207581"/>
<path d="M419.094 325.54C423.031 347.046 432.775 367.439 449.707 381.697C464.146 393.833 482.19 400.707 500.607 403.816C509.487 405.281 518.471 406.022 527.47 406.031C540.424 406.031 553.668 404.295 565.074 397.712C588.457 384.307 592.155 355.626 602.792 333.236C613.117 311.543 626.85 288.966 649.641 278.744C652.438 277.493 655.323 276.45 658.273 275.624C658.637 275.469 658.932 275.187 659.104 274.831C659.276 274.474 659.312 274.067 659.207 273.686C659.101 273.304 658.861 272.974 658.531 272.757C658.2 272.539 657.802 272.449 657.411 272.504C645.815 275.908 635.291 282.244 626.85 290.9C618.155 299.584 611.268 310.004 605.513 320.778C602.574 326.248 599.79 331.832 597.38 337.562C594.97 343.292 592.871 349.272 590.711 355.168C586.556 366.607 581.871 378.556 573.166 387.406C563.64 397.129 550.198 401.414 536.902 402.433C527.49 403.052 518.04 402.781 508.679 401.622C490.687 399.542 472.727 394.145 457.779 383.714C440.597 371.734 429.43 353.556 424.216 333.475C423.457 330.553 422.824 327.61 422.284 324.646C421.899 322.566 418.762 323.45 419.167 325.509L419.094 325.54Z" fill="#207581"/>
<path d="M435.466 236.938C435.466 237.249 435.392 237.556 435.252 237.834C435.111 238.111 434.907 238.351 434.655 238.535C434.404 238.718 434.113 238.84 433.807 238.89C433.5 238.939 433.185 238.915 432.889 238.82C421.629 204.908 423.322 168.303 421.619 132.602C419.915 96.9009 413.734 59.193 390.331 32.2171C380.39 20.7779 366.792 11.4185 351.647 10.7009C336.501 9.98337 320.411 19.9459 317.814 34.9106C316.837 40.6406 317.814 46.4954 318.25 52.2878C319.02 62.7965 317.926 73.3587 315.019 83.4858C314.064 86.7928 312.828 90.183 310.303 92.5124C303.562 98.752 292.488 94.1035 283.721 96.8073C277.748 98.648 273.333 103.848 270.56 109.453C265.252 120.154 264.784 132.862 267.724 144.447C270.664 156.031 276.792 166.597 284.085 176.061C305.629 203.761 336.742 222.394 371.311 228.296" fill="#2A9AAA"/>
<path d="M433.835 236.938C433.835 237.25 433.575 237.313 433.326 237.24L434.468 238.384C427.55 217.46 425.524 195.414 424.61 173.502C423.748 152.6 423.894 131.614 421.556 110.794C419.479 92.0756 415.511 73.3568 407.543 56.1251C399.825 39.4862 387.806 23.2841 371.238 14.6318C363.271 10.4721 354.15 8.15306 345.165 9.43218C337.039 10.5034 329.503 14.2625 323.755 20.1123C320.981 22.9771 318.824 26.3823 317.419 30.1164C315.674 34.8273 315.591 39.9022 315.965 44.8627C316.55 50.4485 316.834 56.0619 316.816 61.6784C316.634 67.2808 315.914 72.8527 314.666 78.3173C313.627 82.841 312.589 88.467 308.87 91.6388C305.753 94.3219 301.297 94.4259 297.391 94.3739C293.112 94.3115 288.759 93.9579 284.552 94.925C280.253 96.018 276.416 98.4596 273.603 101.893C267.256 109.318 264.524 119.499 264.306 129.118C264.078 139.382 266.81 149.449 271.225 158.662C275.646 167.568 281.236 175.843 287.845 183.267C293.945 190.281 300.727 196.67 308.091 202.34C322.834 213.729 339.659 222.123 357.62 227.048C361.976 228.234 366.373 229.201 370.812 229.95C372.89 230.293 373.752 227.152 371.685 226.83C353.466 223.726 336.051 217.008 320.463 207.071C304.563 197.049 290.936 183.803 280.459 168.188C269.479 151.549 262.603 129.659 271.775 110.649C273.553 106.612 276.345 103.105 279.878 100.468C283.524 97.9616 287.648 97.4417 291.979 97.4625C296.311 97.4833 300.591 97.92 304.798 97.0049C306.905 96.5629 308.882 95.6418 310.577 94.3129C312.272 92.9839 313.639 91.2827 314.573 89.3406C316.816 84.7961 317.876 79.5132 318.728 74.5423C319.671 69.1448 320.133 63.6741 320.109 58.1946C320.037 48.2945 316.858 37.5935 321.74 28.3381C325.428 21.3394 332.284 16.3477 339.721 13.9663C348.032 11.2833 356.841 12.1464 364.933 15.3182C382.291 22.1402 394.964 38.1967 403.118 54.4508C411.511 71.1834 415.739 89.8085 417.993 108.288C420.486 128.796 420.445 149.49 421.214 170.102C422.013 191.805 423.655 213.727 429.856 234.64C430.22 235.877 430.604 237.115 431.009 238.342C431.414 239.569 431.778 240.422 433.18 240.547C433.676 240.582 434.174 240.516 434.643 240.352C435.113 240.187 435.543 239.929 435.909 239.592C436.275 239.255 436.568 238.847 436.77 238.392C436.973 237.937 437.08 237.446 437.086 236.949C437.138 234.869 433.876 234.869 433.824 236.949L433.835 236.938Z" fill="#207581"/>
<path d="M304.548 77.7662C280.937 75.8527 259.559 94.4051 254.095 116.68C251.251 129.117 252.132 142.118 256.63 154.056C261.063 165.844 268.255 176.396 277.603 184.827C287.99 194.405 300.456 201.466 313.638 206.551C315.601 207.311 316.442 204.149 314.5 203.432C292.457 194.935 271.723 179.898 261.699 157.893C256.713 146.942 254.427 134.422 256.266 122.473C257.896 111.265 263.302 100.952 271.588 93.2404C280.47 84.9209 292.364 80.0436 304.6 81.0212C306.678 81.198 306.678 77.9014 304.6 77.7662H304.548Z" fill="#2A9AAA"/>
<path d="M364.497 213.217C345.092 208.215 312.765 218.979 292.727 219.613C272.689 220.247 252.09 226.83 238.347 241.451C232.198 247.993 227.523 257.955 231.98 265.744C233.75 268.556 236.225 270.854 239.158 272.41C254.521 281.374 273.915 277.714 291.284 281.51C298.555 283.101 306.346 286.938 308.299 294.114C310.761 303.151 302.679 312.77 305.65 321.651C307.333 326.705 312.402 330.085 317.648 331.01C322.893 331.936 328.295 330.906 333.406 329.409C345.31 325.925 356.685 319.977 365.255 310.992C373.825 302.007 379.351 289.829 378.946 277.423C378.634 268.001 411.044 218.698 406.993 210.17" fill="#2A9AAA"/>
<path d="M364.933 211.637C357.713 209.817 350.089 210.066 342.734 210.773C334.289 211.595 325.916 213.124 317.564 214.621C310.013 215.963 302.419 217.419 294.711 217.887C290.556 218.136 286.339 218.303 282.163 218.864C277.84 219.442 273.564 220.325 269.365 221.506C260.899 223.828 252.909 227.63 245.764 232.737C238.836 237.801 232.26 244.322 229.57 252.683C228.183 256.601 228.22 260.883 229.674 264.777C231.346 268.843 234.732 271.765 238.472 273.918C246.429 278.494 255.622 279.856 264.639 280.532C273.655 281.208 282.994 281.114 291.865 283.319C299.033 285.108 307.114 289.444 307.094 297.878C307.094 306.052 301.266 313.831 303.977 322.098C306.865 330.761 316.733 333.808 325.002 332.882C329.877 332.238 334.657 331.016 339.244 329.243C343.553 327.694 347.724 325.78 351.709 323.523C359.607 319.117 366.429 313.011 371.685 305.646C376.936 298.243 379.99 289.504 380.494 280.439C380.494 279.18 380.421 277.911 380.494 276.653C380.494 277.152 380.556 276.341 380.597 276.164C380.67 275.8 380.764 275.447 380.857 275.124C381.355 273.471 381.952 271.849 382.644 270.268C387.038 260.035 392.626 250.312 397.696 240.401C400.282 235.368 402.827 230.293 405.05 225.083C406.65 221.329 408.354 217.367 408.79 213.269C408.976 211.969 408.803 210.642 408.291 209.432C407.419 207.518 404.604 209.182 405.476 211.085C405.237 210.565 405.476 211.231 405.538 211.408C405.59 211.689 405.601 211.585 405.538 211.408C405.538 211.564 405.538 211.72 405.538 211.876C405.554 212.17 405.554 212.465 405.538 212.76C405.538 212.905 405.538 213.051 405.538 213.196C405.538 213.54 405.538 213.082 405.538 213.508C405.222 215.235 404.763 216.932 404.167 218.583C402.499 223.128 400.564 227.569 398.371 231.884C393.364 242.138 387.786 252.111 382.789 262.364C380.857 266.043 379.218 269.868 377.886 273.804C377.474 275.052 377.26 276.358 377.253 277.672C377.325 282.027 376.723 286.367 375.466 290.536C370.272 307.778 355.376 319.738 338.994 325.894C330.902 328.92 320.515 332.279 312.454 327.454C310.834 326.553 309.454 325.275 308.433 323.727C307.411 322.179 306.777 320.408 306.585 318.562C306.273 314.559 307.623 310.669 308.714 306.884C309.805 303.099 310.74 299.043 310.075 295.018C309.397 291.41 307.447 288.166 304.58 285.877C298.243 280.678 289.736 279.284 281.81 278.494C272.897 277.6 263.86 277.755 255.02 276.216C250.777 275.548 246.643 274.309 242.731 272.535C238.929 270.726 235.023 268.313 233.039 264.444C229.216 257.03 234.379 248.045 239.428 242.606C245.304 236.475 252.356 231.594 260.162 228.255C267.955 224.883 276.213 222.713 284.656 221.818C288.541 221.381 292.436 221.35 296.332 221.038C299.968 220.736 303.603 220.237 307.197 219.675C322.779 217.252 338.537 213.082 354.441 213.56C357.675 213.62 360.894 214.031 364.039 214.788C366.117 215.297 366.938 212.157 364.902 211.668L364.933 211.637Z" fill="#207581"/>
<path d="M302.845 281.78C303.448 286.917 301.401 292.263 299.729 297.005C297.589 302.922 295.085 308.714 293.268 314.736C291.844 319.467 290.401 325.135 292.146 330.012C294.462 336.449 300.207 341.337 306.242 344.166C320.047 350.634 336.491 348.783 350.141 342.897C364.746 336.595 376.785 325.332 385.023 311.803C393.769 297.421 398.361 280.865 400.241 264.236C400.469 262.198 400.66 260.16 400.812 258.122C400.968 256.042 397.696 256.042 397.55 258.122C396.366 274.095 392.762 290.152 385.397 304.461C378.323 318.178 367.737 329.898 354.161 337.313C341.623 344.145 326.114 347.379 312.204 343.001C305.909 341.025 299.843 337.302 296.446 331.478C295.257 329.54 294.638 327.306 294.66 325.031C294.735 322.541 295.126 320.07 295.823 317.679C297.542 311.907 299.549 306.225 301.837 300.655C303.749 295.58 305.774 290.318 306.19 284.869C306.291 283.831 306.291 282.786 306.19 281.749C305.941 279.669 302.679 279.669 302.928 281.749L302.845 281.78Z" fill="#207581"/>
<path d="M401.176 221.62C406.868 235.94 435.289 330.251 443.09 343.531C448.097 352.048 453.613 360.441 460.957 367.044C469.06 374.324 479.032 379.128 489.004 383.392C503.194 389.424 519.991 394.436 533.443 386.907C545.046 380.418 550.406 366.035 549.908 352.735C549.409 339.434 531.417 230.251 526.192 218.011" fill="#2A9AAA"/>
<path d="M399.597 222.057C402.962 230.543 405.549 239.382 408.364 248.055C412.862 261.969 417.308 275.894 421.868 289.788C426.127 302.787 430.396 315.786 435.112 328.629C436.681 332.872 438.229 337.125 440.14 341.243C441.018 343.118 442.003 344.941 443.09 346.703C446.025 351.677 449.316 356.432 452.938 360.929C460.438 370.07 470.14 376.456 480.756 381.458C490.905 386.241 501.605 390.744 512.834 392.023C523.222 393.209 533.911 390.661 541.275 382.862C547.913 375.821 551.154 366.025 551.58 356.478C551.65 352.839 551.417 349.201 550.884 345.601C550.302 340.838 549.627 336.085 548.931 331.333C546.968 317.949 544.776 304.596 542.564 291.254C540.195 277.184 537.723 263.176 535.032 249.137C533.194 239.58 531.501 229.877 528.8 220.528C528.479 219.39 528.09 218.271 527.636 217.179C527.416 216.81 527.059 216.543 526.644 216.434C526.228 216.325 525.786 216.384 525.413 216.597C525.046 216.822 524.78 217.18 524.67 217.596C524.559 218.013 524.614 218.456 524.821 218.833C524.572 218.23 524.821 218.916 524.915 219.083C525.008 219.249 525.102 219.603 525.185 219.873C525.393 220.476 525.58 221.1 525.756 221.724C526.234 223.388 526.65 225.062 527.055 226.747C528.187 231.489 529.184 236.262 530.171 241.036C532.841 254.211 535.219 267.439 537.515 280.678C539.911 294.488 542.183 308.323 544.329 322.181C545.773 331.541 547.248 340.619 548.163 349.927C549.679 365.359 543.062 383.34 526.878 387.905C516.386 390.859 505.064 387.822 495.237 384.099C484.673 380.116 473.838 375.27 464.936 368.209C456.293 361.356 449.822 352.017 444.441 342.481C442.85 339.5 441.489 336.403 440.369 333.215C435.84 321.547 431.913 309.64 427.976 297.753C423.333 283.746 418.814 269.675 414.285 255.626C410.992 245.382 407.772 235.098 404.188 224.937C403.752 223.679 403.295 222.421 402.807 221.183C402.038 219.249 398.88 220.091 399.69 222.046L399.597 222.057Z" fill="#2A9AAA"/>
<path d="M509.852 185.222C516.843 172.265 523.907 159.12 527.366 144.811C530.825 130.501 530.337 114.653 522.827 101.976C521.451 99.3592 519.412 97.1503 516.916 95.5698C514.34 94.1347 510.912 93.9475 508.606 95.757C506.715 97.2233 505.905 99.6671 505.188 101.997L499.859 119.176C499.597 120.377 499.044 121.495 498.249 122.431C496.244 124.428 492.733 123.554 490.593 121.714C488.454 119.873 487.062 117.284 484.911 115.474C479.312 110.69 470.057 112.781 465.175 118.334C460.292 123.887 473.08 217.668 473.35 225.031" fill="#2A9AAA"/>
<path d="M511.255 186.044C518.36 172.889 525.59 159.484 529.039 144.821C532.155 131.624 532.02 117.2 526.151 104.773C523.533 99.2096 519.118 92.294 512.086 92.8348C510.58 92.9402 509.13 93.4498 507.889 94.3098C506.648 95.1699 505.661 96.3487 505.032 97.7225C503.402 101.05 502.571 104.867 501.48 108.403L499.807 113.8C499.184 115.807 498.686 117.96 497.896 119.873C496.681 122.858 493.398 122.036 491.424 120.237C488.973 118.012 487.446 115.037 484.62 113.176C482.245 111.68 479.466 110.954 476.663 111.096C473.904 111.231 471.212 111.992 468.79 113.321C466.751 114.317 464.987 115.795 463.648 117.627C463.005 118.979 462.668 120.456 462.661 121.953C462.332 127.376 462.408 132.816 462.889 138.228C463.876 154.721 465.715 171.183 467.564 187.604C468.914 199.584 470.597 211.522 471.646 223.565C471.646 224.022 471.729 224.48 471.75 224.937C471.833 227.017 475.095 227.017 475.012 224.937C474.877 221.526 474.347 218.105 473.973 214.715C473.215 208.08 472.425 201.456 471.667 194.821C469.797 178.546 467.969 162.25 466.702 145.944C466.224 139.705 465.777 133.371 465.767 127.08C465.735 125.058 465.829 123.037 466.047 121.027C465.974 121.547 466.109 120.601 466.161 120.383C466.213 120.164 466.317 119.821 466.38 119.53C466.38 119.592 466.442 119.239 466.38 119.53C466.401 119.446 466.44 119.368 466.494 119.301C466.837 119.145 465.954 119.831 466.629 119.155C467.112 118.644 467.622 118.158 468.156 117.7C472.062 114.497 478.19 113.061 482.699 115.796C485.41 117.44 486.854 120.435 489.139 122.535C491.217 124.418 494.156 125.655 496.951 124.938C500.337 124.033 501.106 120.539 502.051 117.596C503.228 113.831 504.395 110.07 505.552 106.312C506.082 104.617 506.591 102.912 507.141 101.227C507.535 99.686 508.339 98.2808 509.468 97.1609C511.826 95.185 515.337 96.121 517.508 97.8993C520.022 99.9791 521.663 102.974 523.086 105.834C524.522 108.799 525.627 111.913 526.379 115.121C527.845 121.624 528.196 128.33 527.418 134.952C525.953 149.147 519.97 162.427 513.457 174.948C511.816 178.068 510.112 181.25 508.419 184.39C507.38 186.242 510.237 187.895 511.234 186.044H511.255Z" fill="#207581"/>
</g>
<path d="M219.037 113.644C256.09 143.115 319.663 96.6409 319.663 96.6409L332.71 85.368C348.541 78.3381 353.755 72.8264 353.755 72.8264L343.472 77.5581L355.729 67.8556C356.062 67.5852 354.628 67.7828 354.254 67.9804L342.828 73.96L354.638 63.4462C354.702 63.4007 354.745 63.3319 354.757 63.2549C354.77 63.1778 354.751 63.0989 354.706 63.0355C354.661 62.972 354.592 62.9293 354.515 62.9166C354.438 62.9039 354.359 62.9224 354.296 62.9679L340.147 70.7466C340.147 70.7466 351.252 60.472 349.496 60.7424C347.741 61.0128 333.125 71.2249 333.125 71.2249C333.125 71.2249 339.161 61.408 337.332 61.9384C336.148 62.2815 331.515 68.1779 328.42 72.3377C326.415 74.9895 326.976 75.8942 324.088 77.5893L303.063 90.0685C285.404 100.905 254.106 109.162 230.577 89.6941C230.577 89.6941 221.592 84.9624 213.863 94.4778C206.135 103.993 219.037 113.644 219.037 113.644Z" fill="#FFA47A" stroke="#FFA47A" stroke-width="1.48" stroke-linecap="round" stroke-linejoin="round"/>
<path d="M273.323 100.073C259.206 101.986 248.018 97.7017 230.588 89.6734C230.588 89.6734 221.602 84.9417 213.874 94.4571C206.145 103.972 219.068 113.654 219.068 113.654C231.533 123.565 239.781 128.328 254.822 125.717L273.323 100.073Z" fill="#9E2DD3" stroke="#9E2DD3" stroke-width="0.6" stroke-miterlimit="10"/>
<path d="M273.133 99.9999L265.664 122.223C262.589 122.919 259.463 123.364 256.315 123.554L273.133 99.9999Z" fill="#65158B"/>
<path d="M325.231 75.8319C325.854 76.8718 326.342 78.4629 325.667 78.8789C324.992 79.2949 323.413 78.3589 322.79 77.3606" fill="#CF5540"/>
<path d="M335.504 68.6563C335.504 68.6563 333.842 73.3983 333.853 73.2632L340.459 65.3909L335.504 68.6563Z" fill="#CF5540"/>
<path d="M208.981 1.53906C220.003 4.98124 247.509 42.1692 247.509 42.1692C252.278 46.5648 255.603 52.3048 257.045 58.6314C257.492 60.9816 255.913 67.8971 254.043 69.3427L217.416 99.1367C217.416 99.1367 187.925 88.675 195.03 65.8589C202.136 43.0428 208.223 47.972 204.66 34.9313C201.097 21.8905 208.981 1.53906 208.981 1.53906Z" fill="#CD300D"/>
<path d="M255.435 56.0627C253.588 50.7889 251.423 45.6318 248.953 40.6197C246.09 35.5233 242.802 30.6774 239.126 26.1335C235.011 20.4499 230.303 15.2208 225.082 10.5345C220.989 7.00913 216.772 3.65014 212.617 0.207968C211.962 -0.332797 211.017 0.603142 211.682 1.15431C217.8 6.19798 224.345 10.9713 229.788 16.7533C232.314 19.519 234.699 22.4102 236.934 25.4159C240.47 29.7644 243.718 34.3395 246.657 39.1118C249.774 44.5923 251.976 50.5511 254.199 56.4163C254.5 57.2171 255.778 56.8739 255.477 56.0627H255.435Z" fill="#CD300D"/>
<path d="M231.335 60.2328C231.29 60.2875 231.232 60.3314 231.168 60.3616C231.103 60.3917 231.033 60.4074 230.962 60.4074C230.89 60.4074 230.82 60.3917 230.755 60.3616C230.691 60.3314 230.633 60.2875 230.588 60.2328C229.757 59.2657 227.544 57.2274 224.822 59.3385C222.101 61.4495 225.041 65.2245 225.861 66.982C227.035 69.5506 227.939 77.3813 225.186 83.7769C223.223 88.4046 215.286 96.62 215.286 96.62C215.286 96.62 226.152 108.798 234.109 103.473C234.109 103.473 234.898 86.3247 237.527 82.9345C237.579 82.8617 244.341 86.9279 252.007 75.4262C259.227 64.5901 252.08 57.8202 250.345 56.4267C248.87 55.2515 242.17 48.8872 231.335 60.2328Z" fill="#FFA47A"/>
<path d="M234.67 96.5265C234.4 96.5265 223.514 101.882 223.514 101.882C223.514 101.882 228.531 106.999 234.088 103.473L234.67 96.5265Z" fill="#CF5540"/>
<path d="M249.504 78.1301L243.417 74.7191C243.417 74.7191 243.302 78.5045 245.234 79.1804C247.167 79.8564 249.504 78.1301 249.504 78.1301Z" fill="white"/>
<path d="M229.58 61.7928C228.77 60.9713 227.222 60.5761 226.401 61.3872C226.033 61.8764 225.85 62.481 225.886 63.0927C225.923 63.7044 226.175 64.2832 226.599 64.7254" fill="#CF5540"/>
<path d="M249.234 72.8577L247.156 75.7591L248.839 76.4974C248.909 76.531 248.986 76.5455 249.064 76.5392C249.141 76.5329 249.215 76.5061 249.278 76.4616C249.342 76.4172 249.392 76.3566 249.425 76.2861C249.457 76.2156 249.47 76.1378 249.462 76.0607L249.234 72.8577Z" fill="#CF5540"/>
<path d="M255.228 61.6888C255.228 61.6888 237.568 65.4325 230.588 60.2329C223.607 55.0332 241.651 41.4309 248.403 49.5008C255.155 57.5707 255.228 61.6888 255.228 61.6888Z" fill="#CD300D"/>
<path d="M237.558 82.9138C234.91 81.5214 232.758 79.3415 231.398 76.6742C230.162 74.1784 230.172 86.2624 235.605 89.1014C235.605 89.1534 236.571 85.836 237.558 82.9138Z" fill="#CF5540"/>
<path d="M246.896 66.0461C246.128 66.1397 247.935 64.8502 248.797 65.0062C249.193 65.0726 249.546 65.2919 249.781 65.6168C250.016 65.9417 250.114 66.3461 250.054 66.7428C249.115 66.1494 247.998 65.903 246.896 66.0461Z" fill="#00043B"/>
<path d="M254.968 68.5627C254.675 68.2762 254.281 68.1158 253.872 68.1158C253.462 68.1158 253.069 68.2762 252.776 68.5627C253.501 68.8381 254.146 69.2882 254.656 69.873" fill="#00043B"/>
<path d="M246.813 70.9753C246.543 71.5473 246.543 72.1088 246.813 72.2336C247.083 72.3584 247.53 72.0153 247.852 71.4537C248.174 70.8921 248.122 70.3306 247.852 70.1954C247.582 70.0602 247.083 70.4345 246.813 70.9753Z" fill="#00043B"/>
<path d="M250.688 72.8576C250.428 73.3984 250.428 73.8975 250.688 74.0639C250.948 74.2303 251.363 73.8559 251.623 73.3152C251.883 72.7744 251.883 72.2752 251.623 72.1089C251.363 71.9425 250.948 72.3168 250.688 72.8576Z" fill="#00043B"/>
<path opacity="0.37" d="M235.937 71.2978C235.735 71.9398 235.728 72.6274 235.917 73.2734C236.106 73.9195 236.481 74.495 236.997 74.9271C237.513 75.3591 238.145 75.6283 238.813 75.7005C239.482 75.7727 240.156 75.6446 240.752 75.3326C241.348 75.0205 241.838 74.5385 242.16 73.9475C242.481 73.3566 242.621 72.6833 242.56 72.0129C242.5 71.3426 242.242 70.7053 241.819 70.1818C241.396 69.6584 240.828 69.2722 240.186 69.0723C239.328 68.808 238.4 68.8935 237.605 69.3102C236.809 69.7269 236.21 70.4412 235.937 71.2978Z" fill="#E8632E" stroke="#E8632E" stroke-width="0.32" stroke-miterlimit="10"/>
<path d="M227.96 56.4163C229.985 58.6626 231.72 61.2104 234.13 63.0927C236.255 64.7767 238.939 65.5907 241.64 65.3702C246.959 65.027 252.828 63.4463 256.796 59.7337C257.305 59.2554 256.536 58.4858 256.027 58.9642C252.288 62.4687 246.678 63.9558 241.64 64.2886C240.27 64.3927 238.893 64.2128 237.596 63.7601C236.298 63.3074 235.108 62.5917 234.099 61.6576C232.2 59.7537 230.407 57.7471 228.728 55.6468C228.25 55.1268 227.482 55.8964 227.96 56.4163Z" fill="#CD300D"/>
<path d="M74.0336 110.441C72.7974 102.225 72.0599 81.9259 72.0599 81.9259L36.9285 83.829C41.3952 85.992 57.1015 95.7674 57.1015 95.7674L59.8751 111.366C59.8751 111.366 74.044 110.295 74.0336 110.441Z" fill="#FFA47A"/>
<path d="M57.008 95.7466L36.4506 84.2449C36.2455 84.1354 36.0799 83.9644 35.977 83.7557C35.874 83.5471 35.8391 83.3115 35.8769 83.0819C35.9147 82.8523 36.0235 82.6404 36.1879 82.476C36.3523 82.3115 36.564 82.2028 36.7934 82.165C45.3113 80.8443 68.2891 77.4542 74.3348 76.5806C74.5063 76.5568 74.6811 76.5739 74.8449 76.6304C75.0086 76.687 75.1567 76.7814 75.2772 76.906C75.3976 77.0307 75.487 77.182 75.538 77.3477C75.5891 77.5134 75.6003 77.6888 75.5709 77.8597C74.9269 81.9571 74.0543 93.3339 73.4934 96.6617C73.3999 97.1817 66.6686 88.7894 64.3106 90.1517C62.2746 91.3165 57.1846 95.6946 57.008 95.7466Z" fill="#659FEB" stroke="#659FEB" stroke-width="0.32" stroke-miterlimit="10"/>
<path d="M55.7927 95.1642L59.0337 90.8069C59.2164 90.5607 59.3488 90.2807 59.4232 89.9831C59.4976 89.6855 59.5126 89.3761 59.4672 89.0727C59.4219 88.7693 59.3171 88.4778 59.1589 88.2151C59.0007 87.9523 58.7922 87.7234 58.5454 87.5415C58.3001 87.358 58.021 87.2248 57.7241 87.1495C57.4272 87.0742 57.1184 87.0583 56.8153 87.1027C56.5123 87.1472 56.221 87.2511 55.9582 87.4085C55.6953 87.5658 55.4661 87.7736 55.2837 88.0199L51.6479 92.9076" stroke="#F8F1EE" stroke-width="0.72" stroke-miterlimit="10"/>
<path d="M67.6035 100.905C67.8217 105.824 68.1437 110.732 68.1437 110.732L74.2725 110.441L73.483 96.6617C73.483 96.6617 68.4657 90.9733 67.6659 91.0357C67.2607 91.0357 67.3854 95.9857 67.6035 100.905Z" fill="#CF5540"/>
<path d="M48.8433 176.508C43.3897 171.079 38.0089 154.544 38.0089 154.544C38.0089 154.544 0.727174 165.62 1.05958 165.724L23.6841 174.189L37.3233 184.432C37.3233 184.432 47.6487 177.059 48.8433 176.508Z" fill="#FFA47A" stroke="#FFA47A" stroke-width="1.3" stroke-miterlimit="10"/>
<path d="M23.0297 174.729L0.893319 166.462C0.682738 166.382 0.501493 166.239 0.37361 166.054C0.245727 165.868 0.177246 165.648 0.177246 165.422C0.177246 165.196 0.245727 164.976 0.37361 164.791C0.501493 164.605 0.682738 164.462 0.893319 164.382C9.13082 161.865 31.3918 155.231 37.2505 153.504C37.9673 153.296 39.2554 154.451 39.4735 155.168C40.8993 159.912 42.6343 164.556 44.6674 169.072C44.9167 169.551 31.4022 166.68 29.2623 168.365C27.4756 169.79 23.6529 175.083 23.0297 174.729Z" fill="#659FEB" stroke="#659FEB" stroke-width="0.32" stroke-miterlimit="10"/>
<path d="M21.2429 173.741L23.4762 168.188C23.5913 167.904 23.6492 167.6 23.6467 167.294C23.6442 166.987 23.5813 166.684 23.4617 166.402C23.342 166.12 23.1679 165.865 22.9494 165.65C22.7309 165.435 22.4722 165.266 22.1881 165.152C21.6149 164.926 20.9757 164.936 20.4096 165.179C19.8435 165.422 19.3963 165.88 19.1653 166.452L16.8904 172.098" stroke="#F8F1EE" stroke-width="0.72" stroke-miterlimit="10"/>
<path d="M40.5227 182.966L26.281 171.454L23.04 174.719L37.5414 185.243L40.5227 182.966Z" fill="#CF5540"/>
<path d="M186.523 149.293C191.021 151.019 194.262 154.794 195.872 162.531C197.482 170.268 205.221 157.706 205.003 165.484C201.98 167.169 185.515 188.363 179.833 190.776C154.622 201.258 135.425 205.761 110.9 200.8C86.9041 195.954 73.2131 168.563 66.2325 150.426C60.7166 136.148 60.8308 124.511 58.3274 109.952C59.0545 108.257 73.2442 107.872 74.0233 108.527C83.6943 138.561 97.0946 155.324 115.315 158.746C132.33 161.98 144.4 159.328 156.866 155.335C156.824 155.303 170.754 143.23 186.523 149.293Z" fill="#365185" stroke="#365185" stroke-width="0.3" stroke-miterlimit="10"/>
<g style="mix-blend-mode:multiply" opacity="0.43">
<path d="M115.315 158.714C132.33 161.949 144.4 159.297 156.866 155.303C156.866 155.303 170.796 143.24 186.564 149.293C191.062 151.019 194.303 154.794 195.913 162.531C197.524 170.268 204.774 158.527 204.587 166.306C201.564 167.98 185.557 188.404 179.875 190.776" fill="#365185"/>
</g>
<path d="M203.538 162.593C195.654 155.314 180.685 143.688 179.376 144.488C165.872 146.121 152.638 156.718 146.551 168.355C145.387 170.604 143.95 172.7 142.271 174.594C134.615 183.132 126.004 190.557 111.658 196.079C94.3521 202.745 73.2234 196.714 49.2276 176.321C46.5788 179.128 37.2713 183.507 37.5414 185.326C47.3371 196.266 53.4451 205.626 65.578 214.85C81.0454 226.58 107.129 242.658 130.045 234.13C150.475 226.647 168.32 213.429 181.443 196.058L203.538 162.593Z" fill="#4465A6" stroke="#4465A6" stroke-width="0.3" stroke-miterlimit="10"/>
<g style="mix-blend-mode:multiply" opacity="0.5">
<path d="M178.607 199.459C178.607 199.459 109.539 266.982 38.5073 184.536C38.5073 184.536 54.9823 213.072 88.8049 228.816C90.4773 227.662 125.609 258.132 178.607 199.459Z" fill="#4465A6"/>
</g>
<path d="M234.587 97.9929C235.086 98.9392 238.462 123.45 233.704 131.707C230.515 137.24 212.544 153.733 204.504 163.841C204.504 163.841 188.206 153.712 179.075 144.935C181.62 135.378 190.21 98.3568 207.766 88.6127C211.463 89.4229 215.112 90.4437 218.694 91.6701C218.694 91.6701 228.24 107.872 234.587 97.9929Z" fill="#FFA47A" stroke="#FFA47A" stroke-width="1.48" stroke-linecap="round" stroke-linejoin="round"/>
<path d="M179.823 139.434L179.085 142.346L198.926 159.775L179.823 139.434Z" fill="#65158B"/>
<path d="M234.587 97.9929C235.086 98.9392 238.462 123.45 233.704 131.707C230.515 137.24 212.544 153.733 204.504 163.841C204.504 163.841 199.507 160.503 177.257 135.576C179.802 126.029 190.21 98.3568 207.766 88.6127C211.463 89.4229 215.112 90.4437 218.694 91.6701C218.694 91.6701 228.24 107.872 234.587 97.9929Z" fill="#F8F1EE" stroke="#F8F1EE" stroke-width="1.48" stroke-miterlimit="10"/>
<g style="mix-blend-mode:multiply">
<path d="M204.504 163.841C204.504 163.841 199.507 160.503 177.257 135.576C179.802 126.029 190.21 98.3568 207.766 88.6127C211.463 89.4229 215.112 90.4437 218.694 91.6701" fill="#F8F1EE"/>
<path d="M204.504 163.841C204.504 163.841 199.507 160.503 177.257 135.576C179.802 126.029 190.21 98.3568 207.766 88.6127C211.463 89.4229 215.112 90.4437 218.694 91.6701" stroke="#F8F1EE" stroke-width="1.48" stroke-linecap="round" stroke-linejoin="round"/>
</g>
<path d="M390.705 322.577L535.51 385.045C538.359 386.251 541.554 386.354 544.473 385.333C547.393 384.313 549.83 382.242 551.31 379.523L644.073 206.073C647.75 199.303 647.574 191.587 640.302 189.07C640.302 189.07 608.806 160.472 553.336 144.353C537.266 139.684 485.161 135.129 485.161 135.129L390.705 322.577Z" stroke="#F8F1EE" stroke-width="1.06" stroke-linecap="round" stroke-linejoin="round"/>
<path d="M397.187 325.218L260.411 245.237C257.757 243.643 255.79 241.117 254.893 238.151C253.996 235.185 254.234 231.991 255.56 229.191L337.239 54.3885C340.542 47.4209 348.395 46.8489 355.625 49.5112C378.416 57.8306 398.683 53.5877 444.358 89.0286C457.592 99.2927 491.975 138.81 491.975 138.81L397.187 325.218Z" stroke="#F8F1EE" stroke-width="1.06" stroke-linecap="round" stroke-linejoin="round"/>
<path d="M635.752 191.618C635.752 191.618 605.451 164.112 552.11 148.627C537.307 144.343 490.822 140.141 486.802 139.788C482.543 134.921 453.343 101.695 441.563 92.554C397.665 58.4962 378.198 62.6247 356.28 54.5756C349.33 52.0278 341.789 52.579 338.62 59.2761L260.099 227.288C258.823 229.979 258.592 233.05 259.452 235.903C260.313 238.755 262.202 241.185 264.753 242.72L395.961 319.457H396.127L534.96 380.095C537.699 381.26 540.774 381.361 543.584 380.379C546.394 379.396 548.738 377.4 550.157 374.781L639.378 207.955C642.909 201.466 642.754 194.031 635.752 191.618Z" fill="#2E4470" stroke="#2E4470" stroke-width="0.3" stroke-miterlimit="10"/>
<path d="M388.045 315.578L402.973 323.377L495.58 140.838C489.89 140.434 484.531 138.011 480.465 134.006L388.045 315.578Z" fill="#1D2B47" stroke="#1D2B47" stroke-width="0.3" stroke-miterlimit="10"/>
<path d="M625.676 198.076C625.676 198.076 563.173 152.901 484.631 143.999C431.248 86.0336 358.326 62.1151 358.326 62.1151L271.131 231.759C288.572 236.47 383.838 301.133 398.059 312.614L397.903 312.916L398.537 312.999C398.945 313.322 399.334 313.669 399.701 314.039L400.095 313.28C413.859 316.202 477.089 335.524 540.05 368.479L625.676 198.076Z" fill="#CFB2A3"/>
<path d="M440.992 109.598C440.992 109.598 449.364 84.9209 466.733 77.7037C466.962 77.606 467.211 77.5638 467.459 77.5806C467.707 77.5975 467.948 77.6728 468.162 77.8006C468.375 77.9283 468.556 78.1049 468.689 78.3157C468.821 78.5266 468.902 78.7659 468.925 79.0141L469.434 84.5673L475.999 85.4512C476.294 85.4891 476.572 85.6103 476.801 85.8006C477.03 85.9909 477.2 86.2425 477.292 86.526C477.383 86.8095 477.392 87.1132 477.318 87.4017C477.243 87.6901 477.089 87.9514 476.871 88.155C470.41 94.2179 453.229 111.959 453.717 118.542L440.992 109.598Z" fill="#9E2DD3" stroke="#9E2DD3" stroke-width="0.6" stroke-miterlimit="10"/>
<g opacity="0.76">
<path d="M445.064 109.671C445.802 107.831 446.259 105.896 447.069 104.087C447.847 102.401 448.746 100.775 449.759 99.2199C451.874 96.114 454.203 93.1603 456.73 90.3805C457.768 89.2158 456.054 87.5207 455.036 88.6854C452.367 91.6243 449.912 94.7523 447.692 98.0448C446.642 99.6447 445.718 101.324 444.929 103.068C444.067 105.023 443.547 107.082 442.748 109.058C442.176 110.493 444.493 111.138 445.064 109.702V109.671Z" fill="#F2FCF9"/>
<path d="M460.272 86.1791L463.066 83.8185C463.286 83.5932 463.409 83.291 463.409 82.9761C463.412 82.8178 463.383 82.6606 463.324 82.5137C463.265 82.3667 463.177 82.2331 463.066 82.1207C462.954 82.0082 462.822 81.9192 462.675 81.859C462.529 81.7987 462.372 81.7684 462.214 81.7698C461.902 81.7897 461.606 81.9143 461.373 82.1234L458.568 84.484C458.348 84.7131 458.225 85.0188 458.225 85.3368C458.225 85.6516 458.348 85.9539 458.568 86.1791C458.796 86.4026 459.101 86.5293 459.42 86.5327C459.734 86.5226 460.034 86.3967 460.261 86.1791H460.272Z" fill="#F2FCF9"/>
</g>
<path d="M361.359 68.4276C373.326 65.4014 373.658 67.7724 385.604 70.8506C396.537 73.4283 407.021 77.635 416.705 83.3298C426.522 89.039 438.426 97.1713 446.549 105.106C459.69 117.939 471.48 129.752 483.779 143.417L397.654 309.39C397.654 309.39 316.1 211.408 278.797 229.627L361.359 68.4276Z" fill="#F8F1EE"/>
<path d="M361.609 69.3323C365.296 68.4068 369.181 67.5124 372.983 68.1988C376.629 68.8643 380.13 70.3306 383.703 71.3186C388.409 72.6185 393.125 73.8352 397.727 75.4783C402.165 77.0617 406.49 78.9484 410.67 81.1251C419.368 85.6935 427.666 90.9882 435.476 96.9529C443.672 103.193 450.829 110.586 458.09 117.845C466.65 126.404 475.033 135.129 483.125 144.135L482.979 143.001L480.673 147.39L474.441 159.484L465.164 177.36L453.904 199.064L441.511 222.982L428.994 247.088L417.329 269.571L407.471 288.571L400.396 302.236L398.142 306.499C397.712 307.215 397.331 307.958 397 308.725C397 308.818 396.896 308.912 396.844 309.006L398.309 308.818C395.545 305.491 392.668 302.256 389.78 299.043C382.793 291.271 375.57 283.714 368.111 276.372C358.905 267.219 349.195 258.588 339.026 250.52C329.51 243.074 319.393 235.961 308.257 231.167C299.947 227.568 290.13 224.792 281.197 227.735C280.213 228.062 279.251 228.454 278.319 228.91L279.587 230.189L281.789 225.884L287.783 214.174L296.706 196.766L307.53 175.613L319.372 152.413L331.349 129.024L342.516 107.186L352 88.6646L358.845 75.4575C359.884 73.3776 361.016 71.2978 362.055 69.2179L362.201 68.9371C362.741 67.8972 361.162 66.9301 360.591 68.0012L358.388 72.2961L352.363 83.9538L343.44 101.373L332.616 122.514L320.753 145.684L308.776 169.072L297.61 190.911L288.136 209.432L281.353 222.681C280.314 224.761 279.171 226.84 278.132 228.92C278.132 229.014 278.039 229.097 277.987 229.191C277.892 229.37 277.858 229.574 277.888 229.774C277.918 229.974 278.011 230.16 278.154 230.303C278.297 230.446 278.482 230.539 278.682 230.569C278.882 230.599 279.086 230.565 279.265 230.47C287.398 226.539 296.924 228.64 304.985 231.77C315.944 236.033 325.916 242.783 335.224 249.875C345.416 257.73 355.128 266.19 364.309 275.208C372.038 282.688 379.514 290.418 386.737 298.398C389.063 300.956 391.366 303.546 393.644 306.167C394.683 307.394 395.722 308.787 396.865 309.921C396.913 309.974 396.958 310.029 397 310.087C397.102 310.186 397.224 310.26 397.359 310.305C397.493 310.35 397.636 310.364 397.777 310.346C397.918 310.328 398.052 310.279 398.171 310.201C398.29 310.124 398.391 310.021 398.464 309.9L400.77 305.459L407.003 293.365L416.279 275.488L427.54 253.785L439.932 229.867L452.45 205.751L464.115 183.267L473.973 164.268L481.058 150.613C482.169 148.461 483.322 146.329 484.402 144.166C484.454 144.072 484.506 143.979 484.548 143.885C484.649 143.706 484.689 143.498 484.663 143.294C484.636 143.09 484.545 142.9 484.402 142.752C477.069 134.588 469.486 126.643 461.757 118.833C454.33 111.356 447.006 103.608 438.717 97.0673C430.809 90.8126 422.382 85.2461 413.527 80.4284C405.116 75.9464 396.198 72.49 386.965 70.1331C384.337 69.4467 381.771 68.7187 379.164 67.8868C377.416 67.2842 375.637 66.7739 373.835 66.3581C369.545 65.495 365.265 66.3581 361.079 67.398C360.823 67.4684 360.605 67.6377 360.473 67.8688C360.342 68.0999 360.307 68.3739 360.378 68.6304C360.448 68.8869 360.617 69.1049 360.848 69.2366C361.079 69.3682 361.352 69.4026 361.609 69.3323Z" fill="#F8F1EE"/>
<path d="M528.166 352.568C491.641 328.886 449.951 314.367 406.629 310.243C405.435 310.129 405.445 311.99 406.629 312.104C449.583 316.252 490.911 330.679 527.127 354.17C528.166 354.825 529.08 353.213 528.072 352.568H528.166Z" fill="#F8F1EE"/>
<path d="M399.181 312.791C417.368 316.498 435.318 321.283 452.938 327.121C471.268 333.092 489.223 340.163 506.705 348.294C515.981 352.641 525.112 357.331 533.994 362.458C534.205 362.556 534.446 362.572 534.668 362.501C534.89 362.431 535.078 362.28 535.195 362.079C535.312 361.877 535.35 361.639 535.3 361.411C535.251 361.183 535.119 360.981 534.929 360.846C518.745 351.614 501.935 343.532 484.621 336.657C466.72 329.46 448.425 323.286 429.825 318.167C419.853 315.422 409.808 312.968 399.701 310.961C398.537 310.721 398.028 312.52 399.212 312.76L399.181 312.791Z" fill="#F8F1EE"/>
<path d="M283.773 230.584C292.291 231.894 300.103 235.628 307.665 239.6C314.916 243.407 322 247.511 328.918 251.913C342.733 260.707 355.797 270.63 367.976 281.582C374.791 287.711 381.311 294.148 387.536 300.894C388.357 301.778 389.666 300.457 388.856 299.573C366.413 275.297 340.104 254.915 310.999 239.257C302.564 234.733 293.818 230.251 284.261 228.785C283.087 228.608 282.589 230.407 283.773 230.584Z" fill="#F8F1EE"/>
<path d="M279.005 231.51C296.18 239.174 312.744 248.14 328.555 258.33C345.163 268.893 361.12 280.451 376.338 292.938C384.358 299.511 392.145 306.354 399.701 313.467C400.573 314.299 401.892 312.978 401.02 312.156C387.226 299.19 372.656 287.077 357.391 275.884C341.608 264.166 325.092 253.471 307.945 243.864C298.835 238.789 289.517 234.089 279.961 229.898C278.922 229.419 277.883 231.031 279.026 231.51H279.005Z" fill="#F8F1EE"/>
<path d="M619.994 200.322C611.539 216.268 603.086 232.213 594.638 248.159L569.291 295.996L554.977 323.034C554.416 324.074 556.016 325.041 556.587 323.981L581.933 276.144C590.389 260.198 598.841 244.252 607.29 228.307L621.604 201.269C622.165 200.229 620.565 199.272 619.994 200.333V200.322Z" fill="#F8F1EE"/>
<path d="M617.387 197.993C612.785 186.553 610.666 187.656 601.151 179.794C592.621 172.471 583.04 166.473 572.73 162.001C562.342 157.425 548.765 152.579 537.577 150.676C519.482 147.556 503.111 145.549 484.86 143.667L397.831 310.461C397.831 310.461 529.756 322.379 537.027 363.29L617.387 197.993Z" fill="#F8F1EE"/>
<path d="M618.28 197.743C617.107 194.404 615.417 191.271 613.273 188.456C611.37 186.415 609.229 184.609 606.895 183.08C603.207 180.366 599.748 177.371 596.092 174.605C592.225 171.649 588.165 168.957 583.938 166.545C574.996 161.642 565.604 157.609 555.891 154.503C550.894 152.817 545.802 151.428 540.642 150.343C535.095 149.199 529.465 148.419 523.876 147.577C510.902 145.653 497.907 144.114 484.828 142.762C484.665 142.759 484.504 142.801 484.363 142.884C484.222 142.966 484.106 143.086 484.029 143.23L481.702 147.681L475.365 159.817L466.016 177.756L454.59 199.646L442.072 223.627L429.482 247.816L417.703 270.393L407.741 289.475L400.584 303.203C399.451 305.366 398.278 307.529 397.187 309.713C397.187 309.806 397.083 309.9 397.041 309.993C396.963 310.135 396.922 310.295 396.923 310.458C396.924 310.62 396.967 310.779 397.048 310.92C397.128 311.061 397.243 311.179 397.382 311.263C397.521 311.346 397.679 311.393 397.841 311.397C402.204 311.792 406.546 312.323 410.888 312.874C421.477 314.219 432.017 315.862 442.509 317.803C455.597 320.167 468.554 323.208 481.328 326.913C493.284 330.459 505.272 334.692 516.106 340.963C523.918 345.486 532.425 351.695 535.375 360.659C535.683 361.598 535.926 362.557 536.102 363.529C536.155 363.702 536.257 363.857 536.395 363.974C536.533 364.092 536.701 364.167 536.881 364.191C537.06 364.215 537.243 364.187 537.407 364.11C537.571 364.033 537.709 363.911 537.806 363.758L539.956 359.349L545.825 347.337L554.458 329.575L565.064 307.789L576.615 284.026L588.27 260.045L599.146 237.687L608.339 218.791L614.956 205.199C615.995 203.047 617.034 200.904 618.072 198.741L618.207 198.461C618.727 197.421 617.169 196.381 616.597 197.514L614.385 201.934L608.588 213.945L599.956 231.707L589.361 253.546L577.799 277.298L566.144 301.279L555.268 323.637L546.075 342.533L539.468 356.135L537.391 360.378C536.999 361.091 536.652 361.827 536.352 362.583C536.313 362.679 536.268 362.773 536.217 362.864L537.92 363.092C536.238 353.816 528.706 346.932 521.217 341.961C510.923 335.149 499.122 330.636 487.425 326.892C474.528 322.849 461.407 319.557 448.128 317.034C436.941 314.829 425.67 313.009 414.358 311.501C410.691 311.023 407.024 310.565 403.357 310.16C402.204 310.025 401.041 309.9 399.888 309.785C399.292 309.67 398.687 309.611 398.08 309.609H397.862L398.662 311.012L400.989 306.551L407.325 294.426L416.674 276.476L428.101 254.586L440.587 230.584L453.218 206.375L464.998 183.787L474.96 164.704L482.117 150.977L484.351 146.703C484.783 145.979 485.172 145.229 485.514 144.457C485.514 144.363 485.618 144.27 485.659 144.176L484.86 144.644C496.286 145.819 507.713 147.13 519.025 148.804C529.735 150.333 540.476 151.82 550.853 154.95C560.617 157.804 570.102 161.538 579.191 166.108C583.334 168.231 587.328 170.632 591.147 173.294C595.188 176.112 598.917 179.284 602.792 182.3C605.462 184.38 608.433 186.189 610.842 188.54C613.533 191.191 615.091 194.779 616.483 198.201C616.93 199.386 618.727 198.856 618.28 197.743Z" fill="#F8F1EE"/>
<path opacity="0.42" d="M482.958 143.823C482.958 143.823 431.3 228.931 402.048 240.724C361.692 256.978 309.836 231.489 309.836 231.489C309.836 231.489 388.97 282.581 397.654 309.432L482.958 143.823Z" fill="#E0CFC8"/>
<path opacity="0.42" d="M490.77 142.377C490.77 142.377 454.153 234.931 462.411 265.432C473.838 307.456 525.403 333.475 525.403 333.475C525.403 333.475 437.024 301.133 410.327 310.399L490.77 142.377Z" fill="#E0CFC8"/>
<g opacity="0.46">
<path d="M366.117 87.2191C367.856 87.0911 369.604 87.2066 371.311 87.5622C372.152 87.687 372.952 87.947 373.773 88.1342C374.593 88.3214 375.362 88.6438 376.162 88.9037C376.962 89.1637 377.71 89.5173 378.478 89.8605C379.247 90.2037 379.995 90.5572 380.722 91.0148C382.264 91.857 383.683 92.9067 384.94 94.1346L384.857 94.3426C381.74 93.3027 378.551 92.1067 375.404 91.0044C372.256 89.9021 369.171 88.6958 366.055 87.4582L366.117 87.2191Z" fill="#659FEB"/>
<path d="M395.088 100.249L397.654 101.289L400.199 102.329L405.237 104.596L410.161 107.113C411.782 107.986 413.381 108.912 414.991 109.817C416.601 110.722 418.108 111.709 419.718 112.697L424.34 115.734L428.849 118.958L433.253 122.317L437.522 125.842C438.914 127.059 440.317 128.265 441.678 129.503L445.698 133.309C447.006 134.612 448.298 135.929 449.572 137.261C450.819 138.623 452.086 139.964 453.312 141.337L456.875 145.57L460.24 149.948C461.342 151.424 462.405 152.929 463.43 154.461L463.263 154.596C444.412 132.089 421.176 113.664 394.974 100.447L395.088 100.249Z" fill="#659FEB"/>
<path d="M354.358 107.872H356.612L358.856 107.966L363.343 108.35L367.81 109.058C369.285 109.349 370.75 109.702 372.225 110.025C373.7 110.347 375.134 110.815 376.588 111.252L380.878 112.708C382.28 113.259 383.672 113.852 385.033 114.424L389.188 116.337L393.177 118.5C394.476 119.28 395.785 120.039 397.062 120.84L400.802 123.409C402.007 124.317 403.201 125.239 404.386 126.175C405.528 127.163 406.681 128.13 407.803 129.139L411.034 132.258L414.036 135.628C415.002 136.782 415.916 137.968 416.809 139.174L416.654 139.32C400.114 121.995 378.089 110.941 354.327 108.038L354.358 107.872Z" fill="#659FEB"/>
<path d="M427.851 151.549C430.21 152.531 432.468 153.739 434.593 155.158C435.632 155.803 436.671 156.572 437.709 157.238C438.748 157.903 439.694 158.766 440.68 159.536C441.667 160.306 442.602 161.148 443.527 161.98C444.451 162.812 445.376 163.665 446.238 164.59C448.052 166.387 449.694 168.351 451.141 170.455L450.995 170.632L439.299 161.273L427.727 151.716L427.851 151.549Z" fill="#659FEB"/>
<path d="M338.07 152.662C340.532 153.328 343.015 153.931 345.435 154.742L349.081 155.886C350.296 156.281 351.501 156.718 352.706 157.123C357.516 158.86 362.222 160.857 366.907 162.926C376.224 167.199 385.18 172.221 393.686 177.943C402.193 183.664 410.209 190.086 417.651 197.14C421.38 200.655 424.922 204.336 428.402 208.07C430.106 209.973 431.778 211.886 433.451 213.81C435.123 215.734 436.764 217.679 438.385 219.654L438.229 219.8C431.176 212.52 424.133 205.137 416.518 198.419C408.935 191.66 400.896 185.43 392.46 179.773C375.627 168.388 357.33 159.338 338.07 152.87V152.662Z" fill="#659FEB"/>
<path d="M331.287 171.246C334.295 171.608 337.253 172.305 340.106 173.325C341.54 173.773 342.911 174.365 344.313 174.906C345.715 175.447 347.045 176.154 348.395 176.799C349.746 177.444 351.034 178.213 352.322 178.983C353.61 179.752 354.877 180.553 356.093 181.447C358.586 183.156 360.885 185.134 362.949 187.344L362.834 187.531C352.813 181.215 342.227 175.843 331.214 171.485L331.287 171.246Z" fill="#659FEB"/>
<path d="M376.505 198.741L378.105 199.646L379.652 200.613L382.769 202.537C384.846 203.879 386.82 205.231 388.783 206.635C390.746 208.038 392.699 209.484 394.652 210.909L400.386 215.349C402.256 216.878 404.147 218.396 405.996 219.946C407.845 221.495 409.694 223.065 411.47 224.709C413.246 226.352 415.054 227.974 416.809 229.648C418.565 231.323 420.289 233.049 421.92 234.848L421.775 235.025L399.005 217.065L376.38 198.908L376.505 198.741Z" fill="#659FEB"/>
<path d="M344.562 225.301C346.671 225.095 348.8 225.357 350.795 226.071C351.778 226.399 352.739 226.788 353.673 227.236C354.587 227.704 355.47 228.275 356.353 228.764C357.236 229.253 358.025 229.939 358.815 230.584C359.599 231.236 360.348 231.931 361.058 232.664C362.516 234.131 363.739 235.815 364.684 237.656L364.538 237.822C361.604 235.192 358.479 232.783 355.189 230.615C353.55 229.52 351.843 228.53 350.078 227.652C348.31 226.784 346.472 226.067 344.583 225.509L344.562 225.301Z" fill="#659FEB"/>
<path d="M371.384 244.592C374.052 246.158 376.592 247.935 378.977 249.906C380.192 250.842 381.304 251.882 382.478 252.86C383.652 253.837 384.711 254.939 385.833 255.979C386.955 257.019 387.994 258.132 389.043 259.245C390.092 260.357 391.12 261.46 392.159 262.645C394.209 264.965 396.071 267.444 397.727 270.06L397.571 270.216L384.347 257.57L371.269 244.758L371.384 244.592Z" fill="#659FEB"/>
<path d="M495.466 166.462C497.424 165.999 499.441 165.83 501.449 165.963C502.488 165.963 503.412 166.14 504.389 166.233C505.365 166.327 506.31 166.597 507.276 166.784C508.242 166.971 509.167 167.294 510.102 167.606C511.037 167.918 511.951 168.251 512.844 168.646C514.691 169.43 516.413 170.481 517.955 171.766L517.893 171.974C514.215 170.809 510.517 169.717 506.767 168.854C503.017 167.991 499.236 167.221 495.434 166.597L495.466 166.462Z" fill="#659FEB"/>
<path d="M531.636 176.196C534.576 176.497 537.463 177.111 540.382 177.662L544.693 178.702C546.116 179.097 547.529 179.534 548.952 179.96C550.375 180.387 551.767 180.886 553.17 181.385L557.325 182.976C558.686 183.548 560.046 184.151 561.407 184.744L565.427 186.637L569.364 188.716C570.652 189.455 571.951 190.162 573.228 190.921L576.999 193.292C578.235 194.103 579.451 194.956 580.666 195.798C581.881 196.641 583.055 197.545 584.229 198.461L587.667 201.268C589.87 203.265 592.093 205.21 594.108 207.383L593.962 207.55C575.644 192.787 554.366 182.147 531.573 176.352L531.636 176.196Z" fill="#659FEB"/>
<path d="M485.576 188.987C489.541 188.529 493.547 188.571 497.502 189.112C499.486 189.33 501.439 189.736 503.402 190.152C504.378 190.38 505.334 190.651 506.3 190.89L509.177 191.732L512.003 192.772C512.927 193.147 513.862 193.49 514.787 193.885C516.605 194.706 518.423 195.528 520.157 196.506C523.682 198.386 526.958 200.698 529.911 203.39L529.787 203.577C516.356 195.43 501.225 190.504 485.576 189.184V188.987Z" fill="#659FEB"/>
<path d="M545.586 209.411C549.544 210.38 553.418 211.666 557.169 213.259C559.059 213.997 560.877 214.881 562.726 215.723C564.575 216.566 566.352 217.543 568.149 218.479C569.946 219.415 571.681 220.466 573.426 221.506C575.171 222.545 576.874 223.648 578.526 224.813C581.913 227.082 585.112 229.621 588.093 232.404L587.979 232.591C581.171 228.272 574.212 224.213 567.099 220.414C559.987 216.614 552.785 213.013 545.493 209.609L545.586 209.411Z" fill="#659FEB"/>
<path d="M471.781 215.349C473.791 215.293 475.799 215.478 477.765 215.9C478.731 216.056 479.666 216.347 480.611 216.576C481.556 216.805 482.471 217.159 483.395 217.45C484.32 217.741 485.213 218.126 486.117 218.49C487.02 218.854 487.903 219.27 488.755 219.748C490.555 220.642 492.24 221.753 493.772 223.055L493.7 223.263C490.002 222.067 486.345 220.757 482.668 219.509C478.991 218.261 475.334 216.919 471.709 215.536L471.781 215.349Z" fill="#659FEB"/>
<path d="M501.979 227.048C502.928 226.897 503.896 226.897 504.846 227.048C505.646 227.184 506.427 227.415 507.172 227.735C507.912 228.054 508.609 228.463 509.25 228.951C510.018 229.537 510.691 230.239 511.244 231.031L511.192 231.25C509.511 230.925 507.868 230.427 506.29 229.763C504.723 229.075 503.233 228.224 501.844 227.225L501.979 227.048Z" fill="#659FEB"/>
<path d="M451.297 252.423L454.714 252.839L458.132 253.327L464.925 254.513L471.657 256.052L478.336 257.81C480.549 258.444 482.761 259.109 484.953 259.817L491.497 262.073L497.938 264.6L504.295 267.335C512.7 271.149 520.808 275.588 528.55 280.615L534.274 284.494L539.863 288.54L545.233 292.876C546.989 294.363 548.724 295.881 550.427 297.421L550.292 297.597C521.228 275.119 487.335 259.727 451.297 252.641V252.423Z" fill="#659FEB"/>
<path d="M478.7 280.865C480.896 280.017 483.299 279.861 485.587 280.418C486.712 280.643 487.817 280.959 488.89 281.364C489.929 281.77 490.968 282.269 492.006 282.758C493.045 283.246 493.949 283.87 494.873 284.484C495.798 285.097 496.691 285.753 497.522 286.481C499.261 287.889 500.826 289.498 502.186 291.275L502.072 291.462C498.426 289.112 494.801 286.689 490.978 284.702C489.089 283.661 487.115 282.781 485.078 282.071C483.053 281.336 480.904 281.001 478.752 281.083L478.7 280.865Z" fill="#659FEB"/>
<path d="M512.377 296.245C515.147 296.95 517.851 297.893 520.459 299.064C521.767 299.584 523.014 300.239 524.292 300.832C525.569 301.424 526.785 302.131 528.031 302.787C529.278 303.442 530.462 304.191 531.667 304.929C532.872 305.667 534.056 306.416 535.199 307.248C537.57 308.839 539.798 310.635 541.857 312.614L541.753 312.801L526.961 304.721L512.273 296.401L512.377 296.245Z" fill="#659FEB"/>
</g>
<path d="M199.518 101.217C196.079 148.471 270.248 174.844 270.248 174.844L286.869 179.284C301.588 188.415 309.078 189.621 309.078 189.621L299.417 183.787L314.344 188.467C314.749 188.581 313.773 187.51 313.409 187.313L301.983 181.187L317.294 185.025C317.367 185.051 317.448 185.047 317.518 185.014C317.588 184.981 317.642 184.921 317.668 184.848C317.694 184.775 317.691 184.694 317.657 184.624C317.624 184.554 317.565 184.5 317.492 184.474L303.136 177.194C303.136 177.194 317.876 180.584 316.64 179.274C315.404 177.964 300.902 172.244 300.902 172.244C300.902 172.244 305.66 165.204 305.234 164.58C304.538 163.54 299.459 166.556 294.254 167.377C290.972 167.897 266.301 157.383 266.301 157.383C247.416 148.898 222.963 127.662 225.788 97.2233C225.788 97.2233 224.625 87.136 212.419 86.1064C200.214 85.0769 199.518 101.217 199.518 101.217Z" fill="#FFA47A" stroke="#FFA47A" stroke-width="1.48" stroke-linecap="round" stroke-linejoin="round"/>
<path d="M241.308 138.457C231.782 127.86 229.009 116.202 225.82 97.244C225.82 97.244 224.656 87.1567 212.451 86.1271C200.245 85.0976 199.518 101.217 199.518 101.217C198.365 117.107 199.082 126.612 209.708 137.614L241.308 138.457Z" fill="#9E2DD3" stroke="#9E2DD3" stroke-width="0.6" stroke-miterlimit="10"/>
<path d="M241.274 138.143L217.86 143.738C215.672 141.866 213.681 139.775 211.918 137.498L241.274 138.143Z" fill="#65158B"/>
<path d="M370.532 297.14C361.037 323.71 342.745 340.474 316.463 338.633C295.366 337.156 275.816 327.537 256.879 318.095C250.397 314.86 243.749 311.501 238.877 306.135C231.699 298.232 229.404 287.177 227.368 276.695C225.332 266.212 223.327 255.792 221.311 245.341C219.764 237.375 218.122 229.139 213.448 222.462C208.773 215.786 200.224 211.221 192.496 213.685C184.767 216.15 180.841 227.6 186.928 232.955C199.767 225.229 198.905 206.364 194.553 192.024C187.25 167.996 174.848 145.832 158.195 127.049C146.769 114.216 132.112 102.517 114.982 101.747C92.8044 100.707 74.148 118.126 61.3918 136.304C48.1682 155.158 37.9466 176.861 36.5235 199.823C35.7859 211.377 38.0609 224.345 47.2956 231.364C56.5303 238.384 73.5143 233.642 73.909 222.067" stroke="#9E2DD3" stroke-width="2.12" stroke-linecap="round" stroke-linejoin="round" stroke-dasharray="9.09 9.09"/>
<g style="mix-blend-mode:lighten">
<path d="M593.941 203.889C600.174 206.468 607.446 205.095 613.232 201.58C619.018 198.066 623.297 192.658 626.912 187.021C631.992 179.066 636.002 169.592 634.007 160.358C632.968 155.522 630.34 151.175 627.473 147.14C624.02 141.998 619.687 137.506 614.675 133.87C609.595 130.402 603.703 128.311 597.575 127.802C591.446 127.293 585.291 128.384 579.709 130.967C574.127 133.55 569.31 137.539 565.727 142.542C562.144 147.546 559.919 153.394 559.267 159.515" stroke="#F8F1EE" stroke-width="2.12" stroke-linecap="round" stroke-linejoin="round" stroke-dasharray="7.33 7.33"/>
</g>
<path d="M678.56 268.511C678.399 269.366 677.988 270.154 677.38 270.775C676.771 271.396 675.992 271.823 675.142 272.001C674.291 272.179 673.407 272.101 672.6 271.776C671.794 271.45 671.102 270.893 670.612 270.174C670.123 269.456 669.857 268.607 669.848 267.737C669.84 266.867 670.09 266.014 670.566 265.286C671.042 264.558 671.723 263.988 672.523 263.647C673.323 263.307 674.206 263.211 675.06 263.373C675.627 263.479 676.168 263.697 676.651 264.012C677.134 264.328 677.55 264.737 677.876 265.214C678.201 265.691 678.429 266.228 678.546 266.794C678.664 267.36 678.669 267.943 678.56 268.511Z" fill="#659FEB"/>
<path d="M628.813 257.498C632.049 257.498 634.672 254.872 634.672 251.632C634.672 248.393 632.049 245.767 628.813 245.767C625.578 245.767 622.955 248.393 622.955 251.632C622.955 254.872 625.578 257.498 628.813 257.498Z" stroke="#659FEB" stroke-width="1.06" stroke-miterlimit="10"/>
<path d="M433.17 63.4671C432.968 64.5361 432.455 65.5213 431.694 66.2981C430.933 67.0749 429.959 67.6085 428.896 67.8313C427.832 68.0541 426.726 67.9562 425.718 67.55C424.71 67.1437 423.845 66.4474 423.232 65.5489C422.619 64.6505 422.286 63.5903 422.275 62.5025C422.264 61.4146 422.576 60.3479 423.17 59.4373C423.765 58.5266 424.616 57.8128 425.615 57.3861C426.615 56.9595 427.718 56.8391 428.786 57.0403C429.496 57.1739 430.172 57.4462 430.776 57.8416C431.381 58.2369 431.901 58.7476 432.308 59.3444C432.715 59.9413 433.001 60.6125 433.149 61.3199C433.297 62.0273 433.304 62.7569 433.17 63.4671Z" fill="#9E2DD3"/>
<path d="M397.665 338.55C397.45 339.69 396.902 340.74 396.091 341.568C395.279 342.396 394.241 342.965 393.107 343.202C391.973 343.439 390.794 343.335 389.72 342.902C388.645 342.469 387.723 341.726 387.069 340.769C386.416 339.811 386.061 338.681 386.049 337.521C386.038 336.361 386.369 335.224 387.003 334.253C387.637 333.282 388.544 332.521 389.609 332.066C390.675 331.611 391.852 331.483 392.99 331.697C394.515 331.989 395.863 332.874 396.739 334.158C397.615 335.442 397.948 337.021 397.665 338.55Z" stroke="#9E2DD3" stroke-width="1.06" stroke-miterlimit="10"/>
<path d="M249.431 203.39C249.177 204.745 248.527 205.994 247.564 206.978C246.601 207.963 245.367 208.64 244.02 208.923C242.672 209.206 241.271 209.082 239.993 208.568C238.716 208.054 237.62 207.171 236.843 206.033C236.067 204.895 235.645 203.551 235.631 202.173C235.618 200.795 236.013 199.443 236.767 198.29C237.52 197.136 238.599 196.232 239.866 195.693C241.133 195.153 242.531 195.002 243.884 195.258C245.696 195.601 247.298 196.65 248.338 198.175C249.379 199.7 249.772 201.575 249.431 203.39Z" fill="#659FEB" stroke="#659FEB" stroke-width="1.06" stroke-linecap="round" stroke-linejoin="round" stroke-dasharray="9.09 9.09"/>
<path d="M121.121 291.743C123.651 291.743 125.702 289.689 125.702 287.156C125.702 284.624 123.651 282.57 121.121 282.57C118.591 282.57 116.54 284.624 116.54 287.156C116.54 289.689 118.591 291.743 121.121 291.743Z" fill="#FF7F4D"/>
<path d="M18.3031 251.258C21.2806 251.258 23.6944 248.842 23.6944 245.861C23.6944 242.88 21.2806 240.464 18.3031 240.464C15.3256 240.464 12.9119 242.88 12.9119 245.861C12.9119 248.842 15.3256 251.258 18.3031 251.258Z" stroke="#659FEB" stroke-width="0.95" stroke-miterlimit="10"/>
</g>
<defs>
<clipPath id="clip0_20_1678">
<rect width="689" height="406" fill="white"/>
</clipPath>
</defs>
</svg>
