<?xml version="1.0" encoding="utf-8"?>
<!-- Generator: Adobe Illustrator 25.4.1, SVG Export Plug-In . SVG Version: 6.00 Build 0)  -->
<svg version="1.1" id="Capa_1" xmlns="http://www.w3.org/2000/svg" xmlns:xlink="http://www.w3.org/1999/xlink" x="0px" y="0px"
	 viewBox="0 0 800 800" style="enable-background:new 0 0 800 800;" xml:space="preserve">
<style type="text/css">
	.st0{fill:#00ADA1;}
	.st1{fill:#FFFFFF;}
	.st2{fill:#007D70;}
	.st3{fill:#E8E6D9;}
	.st4{fill:#F4F2EC;}
	.st5{fill:#E5E4D2;}
	.st6{fill:#FFA128;}
	.st7{fill:#31365F;}
	.st8{fill:#F87500;}
	.st9{fill:#DAEAE9;}
	.st10{fill:#CDF6F2;}
	.st11{fill:#9CDDD5;}
	.st12{opacity:0.46;fill:#72E2DB;}
	.st13{fill:#30265F;}
	.st14{fill:#FFB47F;}
	.st15{fill:#252249;}
	.st16{fill:#F88B45;}
	.st17{fill:#FFC343;}
</style>
<g>
	<g>
		<g>
			<path class="st0" d="M447.3,555.3c-0.3,30.5,1.2,61,4.7,91.4l1,1.6h297.3c2.1-3.7,1-8.9-3.3-10.9c-12.8-6.1-27.5-8.4-41.6-6.2
				c11.7-5.9,22.3-13.9,31.3-23.4c3.1-3.3,6.2-7.4,3-12.3c-1.7-2.6-4.7-4.1-7.7-4.2c-19.2-1.2-38.5-0.1-57.4,3.2
				c3.1-12.8,11.5-23.7,15.8-36.2c5.4-15.5,1.6-37.5-19.6-37.3c-2.7,0-5.3,0.5-7.9,1.2c-19.2,5.2-36.3,18-46.9,34.9
				c2.7-27.9,5.1-57.3-6.9-82.6c-3.7-7.8-9.1-15.4-17.1-19c-11.1-5.1-24.5-1.1-34.9,5.4c-16.5,10.4-28.5,26.9-36.7,44.7
				c-8.2,17.8-12.9,36.9-17.5,55.8c-5.5-12.6-11.6-25.9-24.7-32.2c-6.5-3.1-14.1-3.4-20.4,0.1C448.2,534.8,447.5,545.6,447.3,555.3z
				"/>
			<path class="st0" d="M371.3,555.4c0.3,30.5-1.2,61-4.7,91.4l-1,1.6H68.3c-2.1-3.7-1-8.9,3.3-10.9c12.8-6.1,27.5-8.4,41.6-6.2
				c-11.7-5.9-22.3-13.9-31.3-23.4c-3.1-3.3-6.2-7.4-3-12.3c1.7-2.6,4.7-4.1,7.7-4.2c19.2-1.2,38.5-0.1,57.4,3.2
				c-3.1-12.8-11.5-23.7-15.8-36.2c-5.4-15.5-1.6-37.5,19.6-37.3c2.7,0,5.3,0.5,7.9,1.2c19.2,5.2,36.3,18,46.9,34.9
				c-2.7-27.9-5.1-57.3,6.9-82.6c3.7-7.8,9.1-15.4,17.1-19c11.1-5.1,24.5-1.1,34.9,5.4c16.5,10.4,28.5,26.9,36.7,44.7
				c8.2,17.8,12.9,36.9,17.5,55.8c5.5-12.6,11.6-25.9,24.7-32.2c6.5-3.1,14.1-3.4,20.4,0.1C370.5,535,371.2,545.7,371.3,555.4z"/>
			<path class="st1" d="M311.3,568.3c-14.1,6-28.2,11.9-42.3,17.9c6.2-13.4,13-26.5,20.1-39.5c0.8-1.4-1.4-2.5-2.2-1.1
				c-13.9,24.9-26,50.7-36.2,77.3l-12.3-125.3c-0.2-1.6-2.6-1.4-2.5,0.2l14.9,152.2c0.2,1.6,2.6,1.4,2.5-0.2l-2.1-21.6
				c0,0,0,0,0.1-0.1c5-13.4,10.6-26.5,16.5-39.5c0.3,0.2,0.6,0.3,1.1,0.1c14.4-6.1,28.8-12.2,43.3-18.3
				C313.5,570,312.7,567.7,311.3,568.3z"/>
			<path class="st1" d="M200.4,645.2c-4.3-7.6-8.7-15.3-13-22.9c0-0.3-0.2-0.7-0.5-0.9c-2.4-4.2-4.8-8.4-7.2-12.6
				c1.7-15.8,3.3-31.6,5-47.4c0.2-1.6-2.2-2-2.4-0.5c-1.6,14.7-3.1,29.5-4.7,44.2c-9.4-16.5-18.7-33-28.1-49.5c-0.8-1.4-2.8,0-2,1.4
				c9.9,17.4,19.8,34.8,29.7,52.2c0,0.2-0.1,0.5-0.1,0.7c-0.1,0.9,0.6,1.4,1.3,1.4l5.4,9.5c-11.8-1.5-23.6-2.9-35.5-4.4
				c-1.6-0.2-2,2.2-0.5,2.4l37.5,4.7c4.4,7.7,8.7,15.3,13.1,23C199.2,647.9,201.2,646.5,200.4,645.2z"/>
			<path class="st1" d="M351.4,600.5c-6.9,6.6-13.9,13.2-20.8,19.8l20.5-46.5c0.6-1.4-1.6-2.5-2.2-1.1l-11.4,25.8
				c-0.5-5.3-1.1-10.5-1.6-15.8c-0.2-1.6-2.6-1.4-2.5,0.2c0.6,5.9,1.2,11.8,1.8,17.7c0.1,0.6,0.4,0.9,0.9,1L326,624.7
				c-0.1,0.1-0.3,0.2-0.4,0.4c-0.4,0.4-0.4,0.8-0.3,1.1l-9.4,21.3c-0.6,1.4,1.6,2.5,2.2,1.1l9.9-22.5c8.4-8,16.8-16,25.2-24
				C354.4,601,352.5,599.4,351.4,600.5z"/>
			<path class="st1" d="M594.5,515c-12.7,19.9-25.4,39.8-38.1,59.6c4.6-30.4,9.3-60.7,13.9-91.1c0.2-1.6-2.2-2-2.4-0.5
				c-5.8,38.2-11.7,76.4-17.5,114.6c-9.9-14.9-19.8-29.8-29.6-44.7c-0.9-1.3-2.9,0.1-2,1.4c10.3,15.6,20.6,31.1,31,46.7
				c0,0.1,0.1,0.1,0.2,0.2c-2.4,15.5-4.7,30.9-7.1,46.4c-0.2,1.6,2.2,2,2.4,0.5c3.5-22.7,6.9-45.4,10.4-68.2
				c0.2-0.1,0.5-0.2,0.6-0.5c13.5-21.1,27-42.2,40.5-63.3C597.6,514.7,595.4,513.6,594.5,515z"/>
			<path class="st1" d="M667.7,540L642,587.6c-1.5-13.1-3.1-26.3-4.6-39.4c-0.2-1.6-2.6-1.4-2.5,0.2c1.6,14,3.3,28,4.9,42
				c0,0.3,0.2,0.5,0.3,0.7L619,630.3c-0.2,0.1-0.3,0.2-0.5,0.3c-0.5,0.4-0.6,0.9-0.4,1.3c-2.9,5.4-5.8,10.7-8.7,16.1
				c-0.8,1.4,1.5,2.5,2.2,1.1l9.2-17.1c13.8-9.7,27.7-19.3,41.5-29c1.3-0.9-0.1-2.9-1.4-2c-12.5,8.7-25,17.5-37.5,26.2
				c15.5-28.7,30.9-57.3,46.4-86C670.6,539.7,668.4,538.6,667.7,540z"/>
			<path class="st1" d="M708.3,612.8c-8.5,3.9-17.1,7.7-25.6,11.6c5.8-6.5,11.6-12.9,17.5-19.4c1.1-1.2-0.8-2.8-1.9-1.6
				c-3.9,4.3-7.8,8.6-11.6,12.9c0.8-5.5,1.5-11,2.3-16.5c0.2-1.6-2.2-2-2.4-0.5c-0.8,6-1.7,12.1-2.5,18.1c-0.1,0.5,0.2,0.9,0.5,1.2
				c-2.5,2.8-5,5.6-7.5,8.4c-0.1,0.1-0.2,0.2-0.2,0.3c-5.7,6.4-11.4,12.7-17.2,19.1c-1.1,1.2,0.8,2.8,1.9,1.6
				c5.7-6.4,11.4-12.7,17.2-19.1c10.2-4.6,20.3-9.2,30.5-13.8C710.6,614.4,709.8,612.1,708.3,612.8z"/>
			<path class="st2" d="M205.6,498.5c-0.3,5.9-0.6,11.8-1,17.7c-0.1,1.6,2.4,1.4,2.5-0.2c0.3-5.9,0.6-11.8,1-17.7
				C208.2,496.7,205.7,496.9,205.6,498.5z"/>
			<path class="st2" d="M207.6,526.2c-0.2-1.6-2.6-1.4-2.5,0.2c0.9,7.5,1.8,15,2.6,22.6c0.2,1.6,2.6,1.4,2.5-0.2
				C209.4,541.2,208.5,533.7,207.6,526.2z"/>
			<path class="st2" d="M214.3,513.8c0-1.6-2.5-1.4-2.5,0.2c0.1,7.1,0.3,14.2,0.4,21.2c0,1.6,2.5,1.4,2.5-0.2
				C214.5,527.9,214.4,520.8,214.3,513.8z"/>
			<path class="st2" d="M135.5,531.6c-5,8.6-5,18.8-0.1,27.4c0.8,1.4,2.8,0,2-1.4c-4.5-7.9-4.3-17.1,0.3-24.9
				C138.6,531.3,136.3,530.3,135.5,531.6z"/>
			<path class="st2" d="M144.9,578l-4.9-11.5c-0.6-1.5-2.9-0.6-2.3,0.8c1.6,3.8,3.2,7.7,4.9,11.5C143.2,580.3,145.5,579.5,144.9,578
				z"/>
			<path class="st2" d="M145.6,565.6c-1.5-4-2.9-8-4.4-11.9c-0.5-1.5-2.9-0.7-2.3,0.8c1.5,4,2.9,8,4.4,11.9
				C143.9,568,146.2,567.1,145.6,565.6z"/>
			<path class="st2" d="M184.4,544.6c-4.7-3.3-9.4-6.6-14.1-9.8c-1.3-0.9-2.9,1-1.6,1.9l14.1,9.8
				C184.1,547.4,185.7,545.5,184.4,544.6z"/>
			<path class="st2" d="M179.1,550c-3.2-2.4-6.4-4.9-9.5-7.3c-1.3-1-2.9,0.9-1.6,1.9c3.2,2.4,6.4,4.9,9.5,7.3
				C178.7,552.8,180.3,550.9,179.1,550z"/>
			<path class="st2" d="M124.5,597.5c-7.2-1.1-14.4-1.4-21.7-0.8c-3.8,0.3-11.8,0.2-13.9,4.5c-4,8.2,15.1,16.6,20.2,19
				c1.4,0.7,2.5-1.5,1.1-2.2c-4.2-2-8.2-4.2-12.1-6.9c-1.5-1-3-2.1-4.4-3.3c-2.4-1.2-2.7-2.7-1-4.7c0.3-2.6,1.8-3.7,4.6-3.2
				c8.8-1.4,17.8-1.2,26.6,0.1C125.6,600.1,126,597.7,124.5,597.5z"/>
			<path class="st2" d="M122.1,628.6c-2.8-1.2-5.6-2.4-8.4-3.5c-1.5-0.6-2.5,1.6-1.1,2.2c2.8,1.2,5.6,2.4,8.4,3.5
				C122.5,631.4,123.6,629.2,122.1,628.6z"/>
			<path class="st2" d="M123.4,620.3c-3.8-1.9-7.7-3.8-11.5-5.8c-1.4-0.7-2.5,1.5-1.1,2.2c3.8,1.9,7.7,3.8,11.5,5.8
				C123.7,623.2,124.8,621,123.4,620.3z"/>
			<path class="st2" d="M147.1,639l-55.7,2.8c-1.6,0.1-1.4,2.5,0.2,2.5l55.7-2.8C148.9,641.4,148.7,638.9,147.1,639z"/>
			<path class="st2" d="M173.7,638.2c-6.2,0.4-12.4,0.8-18.6,1.2c-1.6,0.1-1.4,2.6,0.2,2.5c6.2-0.4,12.4-0.8,18.6-1.2
				C175.4,640.5,175.3,638.1,173.7,638.2z"/>
			<path class="st2" d="M161.7,633.1c-5.5,0.2-10.9,0.4-16.4,0.6c-1.6,0.1-1.4,2.5,0.2,2.5c5.5-0.2,10.9-0.4,16.4-0.6
				C163.5,635.5,163.3,633,161.7,633.1z"/>
			<path class="st2" d="M232.7,527.9c-0.2-1.6-2.7-1.4-2.5,0.2c1,8,2.1,15.9,3.1,23.9c0.2,1.6,2.7,1.4,2.5-0.2
				C234.7,543.9,233.7,535.9,232.7,527.9z"/>
			<path class="st2" d="M237.9,561.4c-0.2-1.6-2.6-1.4-2.5,0.2c2.3,19.3,4.6,38.7,6.9,58c0.2,1.6,2.6,1.4,2.5-0.2L237.9,561.4z"/>
			<path class="st2" d="M229.3,546.4c-0.3-1.5-2.8-1.4-2.5,0.2c1.6,8,3.1,15.9,4.7,23.9c0.3,1.5,2.8,1.4,2.5-0.2L229.3,546.4z"/>
			<path class="st2" d="M198.7,624.1c-3.9-6.3-7.7-12.5-11.6-18.8c-0.8-1.3-2.9,0-2,1.4c3.9,6.3,7.7,12.5,11.6,18.8
				C197.5,626.8,199.6,625.4,198.7,624.1z"/>
			<path class="st2" d="M206,638.1c-1.4-3-2.9-5.9-4.3-8.9c-0.7-1.4-3-0.6-2.3,0.8c1.4,3,2.9,5.9,4.3,8.9
				C204.4,640.3,206.7,639.5,206,638.1z"/>
			<path class="st2" d="M210.6,628.9c-2.4-5.4-4.8-10.9-7.2-16.3c-0.6-1.4-3-0.6-2.3,0.8c2.4,5.4,4.8,10.9,7.2,16.3
				C208.9,631.2,211.2,630.4,210.6,628.9z"/>
			<path class="st2" d="M232.9,457.5c-9,4.3-16.1,11.4-20.4,20.5c-0.7,1.4,1.5,2.5,2.2,1.1c4-8.5,10.6-15.2,19-19.2
				C235.1,459.1,234.3,456.8,232.9,457.5z"/>
			<path class="st2" d="M232.3,465.5c-4.2,4.1-8.4,8.1-12.6,12.2c-1.1,1.1,0.7,2.7,1.9,1.6c4.2-4.1,8.4-8.1,12.6-12.2
				C235.3,466,233.4,464.4,232.3,465.5z"/>
			<path class="st2" d="M639.1,536.2c-5.1,5.6-10.3,11.2-15.4,16.9c-1.1,1.2,0.8,2.8,1.9,1.6c5.1-5.6,10.3-11.2,15.4-16.9
				C642.1,536.6,640.2,535,639.1,536.2z"/>
			<path class="st2" d="M663.6,524.1c-4.6,2.3-9.2,4.7-13.7,7c-1.4,0.7-0.6,3,0.8,2.3c4.6-2.3,9.2-4.7,13.7-7
				C665.8,525.7,665,523.4,663.6,524.1z"/>
			<path class="st2" d="M653.1,534.5c-4.1,2.3-8.3,4.7-12.4,7c-1.4,0.8,0,2.8,1.4,2c4.1-2.3,8.3-4.7,12.4-7
				C655.9,535.7,654.5,533.7,653.1,534.5z"/>
			<path class="st2" d="M683.6,546.7c-1.3,8.5-4,16.5-8.2,23.9c-0.8,1.4,1.4,2.5,2.2,1.1c4.3-7.7,7.1-15.8,8.4-24.6
				C686.2,545.6,683.8,545.1,683.6,546.7z"/>
			<path class="st2" d="M668.7,581c-1.6,3.1-3.3,6.2-4.9,9.3c-0.7,1.4,1.5,2.5,2.2,1.1c1.6-3.1,3.3-6.2,4.9-9.3
				C671.7,580.7,669.5,579.6,668.7,581z"/>
			<path class="st2" d="M671.8,561.5c-2.4,5.7-4.8,11.5-7.2,17.2c-0.6,1.5,1.6,2.5,2.2,1.1c2.4-5.7,4.8-11.5,7.2-17.2
				C674.6,561.2,672.4,560.1,671.8,561.5z"/>
			<path class="st2" d="M713.6,593.9c-5.6,0.8-11.2,1.5-16.8,2.3c-1.6,0.2-1.4,2.7,0.2,2.5c5.6-0.8,11.2-1.5,16.8-2.3
				C715.4,596.1,715.2,593.6,713.6,593.9z"/>
			<path class="st2" d="M732.5,595.1c-3.2-0.3-6.5-0.5-9.7-0.8c-1.6-0.1-2,2.3-0.5,2.4c3.2,0.3,6.5,0.5,9.7,0.8
				C733.6,597.7,734.1,595.3,732.5,595.1z"/>
			<path class="st2" d="M723.8,600.5c-4,0-8,0.1-11.9,0.1c-1.6,0-1.4,2.5,0.2,2.5c4,0,8-0.1,11.9-0.1
				C725.5,603,725.4,600.5,723.8,600.5z"/>
			<path class="st2" d="M701.7,639.2c-7.8,0.3-15.6,0.5-23.4,0.8c-1.6,0.1-1.4,2.5,0.2,2.5l23.4-0.8
				C703.4,641.6,703.2,639.2,701.7,639.2z"/>
			<path class="st2" d="M735.3,638.8c-8,0-15.9,0.1-23.9,0.1c-1.6,0-1.4,2.5,0.2,2.5c8,0,15.9-0.1,23.9-0.1
				C737,641.3,736.9,638.8,735.3,638.8z"/>
			<path class="st2" d="M714,634.6c-5.3,0.3-10.6,0.6-15.9,0.9c-1.6,0.1-1.4,2.5,0.2,2.5c5.3-0.3,10.6-0.6,15.9-0.9
				C715.8,636.9,715.6,634.5,714,634.6z"/>
			<path class="st2" d="M638.7,626.1l-14.5,7.8c-1.4,0.7,0,2.8,1.4,2l14.5-7.8C641.5,627.4,640.1,625.3,638.7,626.1z"/>
			<path class="st2" d="M661.4,610.1c-5.7,3.8-11.4,7.6-17.1,11.4c-1.3,0.9,0.1,2.9,1.4,2c5.7-3.8,11.4-7.6,17.1-11.4
				C664.1,611.2,662.7,609.2,661.4,610.1z"/>
			<path class="st2" d="M653.9,624.5c-5.8,3.1-11.6,6.2-17.4,9.3c-1.4,0.7,0,2.8,1.4,2c5.8-3.1,11.6-6.2,17.4-9.3
				C656.7,625.8,655.3,623.8,653.9,624.5z"/>
		</g>
		<g>
			<path class="st3" d="M536.3,512.1L536.3,512.1l-290,0c0.9-1.8,1.8-3.5,2.6-5.2l287.4-8.2V512.1z"/>
			<path class="st3" d="M536.3,477.6v10.3l-284.2,11.2c3.4-8.8,5.1-16.9,5.7-24.1L536.3,477.6z"/>
			<path class="st3" d="M536.3,444.7v6.9l-278.4,11.7c-0.8-10.5-3.7-18.5-6.5-23.9L536.3,444.7z"/>
			<path class="st4" d="M536.3,487.9v10.8l-287.4,8.2c1.2-2.7,2.3-5.3,3.3-7.8L536.3,487.9z"/>
			<path class="st4" d="M536.3,451.6v26.1L257.9,475c0.4-4.2,0.4-8.1,0.1-11.7L536.3,451.6z"/>
			<path class="st4" d="M536.3,431.3v13.4l-284.9-5.4c-2.7-5.2-5.1-7.9-5.1-7.9H536.3z"/>
			<path class="st5" d="M536.3,431.3c0,0,9.2,9.6,9.2,41s-9.2,39.8-9.2,39.8v-13.4v-10.8v-10.3v-26.1v-6.9V431.3z"/>
			<path class="st0" d="M634.5,431.3v81.9c0,3-2.6,5.4-5.7,5.4v-92.8C631.9,425.9,634.5,428.4,634.5,431.3z"/>
			<rect x="610.6" y="425.9" class="st6" width="18.2" height="92.8"/>
			<rect x="585.8" y="425.9" class="st0" width="24.8" height="92.8"/>
			<rect x="577.1" y="425.9" class="st6" width="8.7" height="92.8"/>
			<rect x="552.9" y="425.9" class="st0" width="24.2" height="92.8"/>
			<path class="st6" d="M552.9,425.9v92.8H252c-3.1,0-5.7-2.4-5.7-5.4v-1.1h290v0c0,0,9.2-8.4,9.2-39.8s-9.2-41-9.2-41h-290
				c0-3,2.6-5.4,5.7-5.4H552.9z"/>
			<path class="st2" d="M562.5,491.7c4.9,2.1,11.7,3.2,11.2-3c-0.2-3.5-4.3-4.1-6.9-3.2c-1.9,0.7-3.7,1.8-5.3,3.3
				c-0.2-0.1-0.4-0.2-0.6-0.4c-1.6-1.3-2.8-2.9-3.6-4.7c-1.4-3.3-0.9-8.9,1.7-12.2c4.2,4.2,10.6,7.6,13.9,2.1c1.5-2.5,0.2-5.7-2-7.2
				c-3.2-2.1-7.7-0.9-10.7,1.1c-0.4,0.2-0.7,0.5-1,0.8c-0.6-0.8-1.1-1.7-1.5-2.6c-1.7-4.3-0.9-9.2,1.8-12.8c3.1,2.5,7,3.6,10.9,1.6
				c6.3-3.3,1.4-9.9-4.4-8.8c-2.7,0.5-4.9,1.8-6.8,3.6c-1.4-1.6-2.3-3.7-2.4-5.8c-0.5-8.3,8.2-12.5,15.1-9.2
				c1.4,0.7,2.5-1.5,1.1-2.2c-8-3.9-17.7,0.4-18.6,9.7c-0.3,3.2,1.1,6.6,3.3,9.3c-3.2,4.3-4.3,10.4-2.3,15.4c0.4,1,1.2,2.2,2.2,3.4
				c-4.7,5.3-4.9,13.7,0.3,19.1c0.4,0.4,1.1,0.9,2,1.5c-1.7,1.9-3.1,4.2-3.9,6.4c-3.4,9.3,3.1,20.4,13.7,18.2
				c1.5-0.3,1.4-2.8-0.2-2.5c-6.4,1.3-11.8-3.4-12-9.9c-0.1-3.3,1.2-6.7,3.2-9.2C561.2,492.7,561.8,492.2,562.5,491.7z M566.2,450.6
				c2,3,0.8,3.4-3.5,1.3c-0.5-0.2-1.1-0.5-1.5-0.9c0.4-0.4,0.8-0.8,1.3-1.1C564.7,447.6,565.9,447.8,566.2,450.6z M567,473.5
				c-0.9-0.3-1.9-0.6-2.8-0.9c-1.3-0.6-2.5-1.5-3.5-2.6c0.7-0.5,1.5-0.9,2.3-1.1C565.4,467.1,566.7,468.7,567,473.5z M565.9,488.7
				c0.1,0.7,0.2,1.4,0.3,2.1c-0.7-0.1-1.3-0.3-1.9-0.5C564.9,489.8,565.5,489.3,565.9,488.7z"/>
			<path class="st2" d="M607.1,474.2c0.8-8.2-9.5-4.9-13.9-1.6c-1.5-2-2.4-4.7-2.4-7.2c0-2.3,0.8-4.6,2-6.5c3.2,2.7,7.2,4,11,1.6
				c2.1-1.3,3.3-4.3,2.3-6.6c-1.5-3.5-6-3.1-8.9-1.8c-1.8,0.8-3.4,1.9-4.7,3.3c-3.8-3.9-4.9-9.9-2.5-14.9c2.7-5.6,8.1-7.6,13.9-7.9
				c1.6-0.1,1.4-2.5-0.2-2.5c-9.6,0.6-18.5,7.1-17.4,17.7c0.3,2.9,2.1,6.6,4.7,9.5c-3.1,4.5-3.6,10.7-0.6,15.7
				c0.3,0.5,0.7,1,1.1,1.4c-4.9,5.8-4.6,14.4,0.4,19.9c-1.6,1.8-2.7,3.7-3.1,5.1c-2.9,10.3,6.1,19.2,16.2,18.4
				c1.6-0.1,1.4-2.6-0.2-2.5c-11.1,0.9-17.8-11.7-11.5-19.7c0.3,0.2,0.5,0.5,0.8,0.7c2.5,1.9,6.3,3.3,9.3,1.8
				c2.4-1.2,4.1-4.3,2.8-6.9c-2.8-5.5-8.4-2.8-12.6,1.2c-1.4-1.6-2.4-3.6-2.8-5.7c-0.9-4,0.2-7.8,2.6-10.7
				C598.1,479.8,606.3,482.2,607.1,474.2z M596.7,456.6c0.3,2.2-0.5,2.4-2.4,0.4c0,0,0,0,0-0.1C596.4,454.3,597.2,454.1,596.7,456.6
				z M599.2,491.3c-0.9,3.9-2.3,4.7-4.3,2.5c0.5-0.4,1-0.8,1.6-1.2C597.4,492.2,598.3,491.7,599.2,491.3z M595.5,475.1
				c-0.2-0.2-0.4-0.5-0.7-0.7c0.8-0.7,1.7-1.3,2.6-1.8C600.2,471.2,599.5,472,595.5,475.1z"/>
		</g>
		<g>
			<path class="st3" d="M336.6,629.4v12.3h290c-1.9-2.9-3.4-5.7-4.7-8.5v0h0L336.6,629.4z"/>
			<path class="st3" d="M336.6,608.8v7.7l281.9,6.9c-1.2-5-1.5-9.7-1.2-14.1l-0.1,0L336.6,608.8z"/>
			<path class="st3" d="M336.6,593.9v6.7l282.3-0.5c0.8-3.2,1.9-6,3-8.4L336.6,593.9z"/>
			<path class="st4" d="M336.6,616.5v12.9l285.3,3.8c-1.5-3.4-2.6-6.7-3.4-9.8L336.6,616.5z"/>
			<path class="st4" d="M336.6,600.6v8.2l280.6,0.5l0.1,0c0.2-3.4,0.8-6.5,1.5-9.3L336.6,600.6z"/>
			<path class="st4" d="M336.6,583.8v10.1l285.3-2.2h0v0c2.3-5,4.7-7.9,4.7-7.9H336.6z"/>
			<path class="st5" d="M327.4,613.3c0,31.4,9.1,28.4,9.1,28.4v-12.3v-12.9v-7.7v-8.2v-6.7v-10.1
				C336.6,583.8,327.4,581.9,327.4,613.3z"/>
			<rect x="247.7" y="578.4" class="st7" width="15.8" height="69.9"/>
			<rect x="303.3" y="578.4" class="st6" width="15.6" height="69.9"/>
			<path class="st6" d="M238.4,583.8v59c0,3,2.6,5.4,5.7,5.4h3.5v-69.9h-3.5C241,578.4,238.4,580.8,238.4,583.8z"/>
			<rect x="263.4" y="578.4" class="st6" width="24.2" height="69.9"/>
			<rect x="287.7" y="578.4" class="st7" width="15.6" height="69.9"/>
			<path class="st7" d="M318.9,578.4v69.9h301.9c3.2,0,5.7-2.4,5.7-5.4v-1.1h-290c0,0-9.1,3-9.1-28.4s9.1-29.5,9.1-29.5h290
				c0-3-2.6-5.4-5.7-5.4H318.9z"/>
			<path class="st8" d="M265.2,582.9c0,9.4-0.1,18.7-0.1,28.1c0,1.6,2.4,1.4,2.5-0.2c0-9.4,0.1-18.7,0.1-28.1
				C267.6,581.1,265.2,581.3,265.2,582.9z"/>
			<path class="st8" d="M265.4,615.9c-0.1,8.5-0.1,16.9-0.2,25.4c0,1.6,2.4,1.4,2.5-0.2c0.1-8.5,0.1-16.9,0.2-25.4
				C267.9,614.2,265.4,614.4,265.4,615.9z"/>
			<path class="st8" d="M272.8,598.3c0-1.6-2.5-1.4-2.5,0.2l0.1,27.9c0,1.6,2.5,1.4,2.5-0.2C272.9,616.9,272.8,607.6,272.8,598.3z"
				/>
			<path class="st8" d="M278.1,623c0-1.6-2.5-1.4-2.5,0.2c0.1,6.3,0.3,12.7,0.4,19c0,1.6,2.5,1.4,2.5-0.2
				C278.4,635.7,278.3,629.4,278.1,623z"/>
			<path class="st8" d="M277.6,609.6c-0.1-1.6-2.5-1.4-2.5,0.2c0.1,2.7,0.2,5.4,0.3,8.1c0.1,1.6,2.5,1.4,2.5-0.2
				C277.8,614.9,277.7,612.3,277.6,609.6z"/>
			<path class="st8" d="M308.8,583.8c0-1.6-2.5-1.4-2.5,0.2c0,10.5,0,20.9,0,31.4c0,1.6,2.5,1.4,2.5-0.2
				C308.8,604.7,308.8,594.3,308.8,583.8z"/>
			<path class="st8" d="M306,619.6c-0.3,7.3-0.6,14.5-0.9,21.8c-0.1,1.6,2.4,1.4,2.5-0.2c0.3-7.3,0.6-14.5,0.9-21.8
				C308.5,617.8,306.1,618,306,619.6z"/>
			<path class="st8" d="M313.6,611.6c0-1.6-2.5-1.4-2.5,0.2c0,3.8,0.1,7.7,0.1,11.5c0,1.6,2.5,1.4,2.5-0.2
				C313.6,619.2,313.6,615.4,313.6,611.6z"/>
			<path class="st8" d="M242.2,581.2c-0.5,11.6-1,23.3-1.4,34.9c-0.1,1.6,2.4,1.4,2.5-0.2c0.5-11.6,1-23.3,1.4-34.9
				C244.8,579.5,242.3,579.7,242.2,581.2z"/>
			<path class="st8" d="M240.6,620c0,5.5,0,10.9,0,16.4c0,1.6,2.5,1.4,2.5-0.2c0-5.5,0-10.9,0-16.4
				C243.1,618.3,240.6,618.5,240.6,620z"/>
		</g>
		<g>
			<polygon class="st3" points="335.5,525.9 335.5,534.6 263.4,530.8 263.4,525.9 			"/>
			<polygon class="st3" points="335.5,538.2 335.5,550.1 263.4,548.5 263.4,542.1 			"/>
			<polygon class="st3" points="335.5,557.8 335.5,564.3 263.4,566.6 263.4,558.6 			"/>
			<rect x="263.4" y="569.9" class="st3" width="72.1" height="8.5"/>
			<polygon class="st4" points="335.5,564.3 335.5,569.9 263.4,569.9 263.4,566.6 			"/>
			<polygon class="st4" points="335.5,550.1 335.5,557.8 263.4,558.6 263.4,548.5 			"/>
			<polygon class="st4" points="335.5,534.6 335.5,538.2 263.4,542.1 263.4,530.8 			"/>
			<rect x="263.4" y="518.7" class="st4" width="72.1" height="7.2"/>
			<rect x="579.9" y="518.7" class="st0" width="35.3" height="59.7"/>
			<rect x="567.9" y="518.7" class="st6" width="12" height="59.7"/>
			<rect x="560.2" y="518.7" class="st0" width="7.7" height="59.7"/>
			<rect x="538.1" y="518.7" class="st6" width="22.1" height="59.7"/>
			<rect x="405.8" y="518.7" class="st0" width="132.3" height="59.7"/>
			<rect x="393.8" y="518.7" class="st6" width="12" height="59.7"/>
			<rect x="385.6" y="518.7" class="st0" width="8.2" height="59.7"/>
			<rect x="370.8" y="518.7" class="st6" width="14.9" height="59.7"/>
			<polygon class="st0" points="335.5,564.3 335.5,557.8 335.5,550.1 335.5,538.2 335.5,534.6 335.5,525.9 335.5,518.7 370.8,518.7 
				370.8,578.4 335.5,578.4 335.5,569.9 			"/>
			<path class="st2" d="M473,573.1c-19.3-0.3-38.7-0.7-58-1c-1.6,0-1.4,2.4,0.2,2.5c19.3,0.3,38.7,0.7,58,1
				C474.8,575.5,474.6,573.1,473,573.1z"/>
			<path class="st2" d="M500.6,572.2c-7,0.1-13.9,0.2-20.9,0.4c-1.6,0-1.4,2.5,0.2,2.5c7-0.1,13.9-0.2,20.9-0.4
				C502.3,574.6,502.2,572.2,500.6,572.2z"/>
			<path class="st2" d="M484.3,567.1c-5.1,0-10.2-0.1-15.3-0.1c-1.6,0-1.4,2.4,0.2,2.5c5.1,0,10.2,0.1,15.3,0.1
				C486.1,569.5,485.9,567.1,484.3,567.1z"/>
			<path class="st2" d="M365.6,572.1c-9.1,0.3-18.1,0.7-27.2,1c-1.6,0.1-1.4,2.5,0.2,2.5c9.1-0.3,18.1-0.7,27.2-1
				C367.4,574.5,367.2,572.1,365.6,572.1z"/>
			<path class="st2" d="M354.7,566.1l-11.3,0.7c-1.6,0.1-1.4,2.5,0.2,2.5l11.3-0.7C356.4,568.4,356.2,566,354.7,566.1z"/>
			<path class="st2" d="M610.7,572.3c-9,0.1-17.9,0.1-26.9,0.2c-1.6,0-1.4,2.5,0.2,2.5c9-0.1,17.9-0.1,26.9-0.2
				C612.4,574.8,612.3,572.3,610.7,572.3z"/>
			<path class="st2" d="M606.4,565.7c-5.5,0.1-11.1,0.1-16.6,0.2c-1.6,0-1.4,2.5,0.2,2.5c5.5-0.1,11.1-0.1,16.6-0.2
				C608.1,568.1,607.9,565.7,606.4,565.7z"/>
			<path class="st2" d="M612.4,524.5c0-1.6-2.5-1.4-2.5,0.2c0,11.7,0.1,23.4,0.1,35.2c0,1.6,2.5,1.4,2.5-0.2
				C612.5,547.9,612.4,536.2,612.4,524.5z"/>
		</g>
		<path class="st9" d="M67,648.4l682-0.1c0,0-45.5,45.4-346.2,45.4S67,648.4,67,648.4z"/>
		<g>
			<path class="st10" d="M504.4,356.7c-7.9,0.2-13.9-9.1-12.1-16.9c1.8-8,9.4-13.6,17.4-15.4c8-1.9,16.3-0.7,24.4,0.5
				c-5.5-10.3-11.2-21.1-11.7-32.8c-0.5-11.7,5.9-24.6,17.2-27.6c9.1-2.4,18.9,2.1,25.2,9.1c6.4,6.9,10,15.8,13.5,24.5
				c1.3-8.2,2.6-16.6,5.8-24.3c3.2-7.7,8.5-14.9,16-18.6c14.5-7.3,33.4,1.1,41.2,15.2c7.8,14.2,6.1,32.1-0.6,46.8
				c5.3-12.2,20-19.3,32.8-16c12.8,3.3,22.2,16.8,20.9,30c-1.3,13.2-13.1,25.5-26.4,26.3l0,0H504.4L504.4,356.7z"/>
			<path class="st10" d="M112.6,332.4c-3.8,0.2-7.7,0.2-11.3-1.2c-3.7-1.5-6.9-5-6.7-9c0.2-4.5,4.5-7.7,8.5-9.6
				c9.4-4.5,20.3-5.9,30.5-4c-5.9-4.8-11.3-10.4-14.2-17.4c-2.9-6.9-3-15.4,1.2-21.7c3.6-5.4,9.9-8.5,16.3-9.4
				c6.4-0.9,12.9,0.3,19.1,2c13.2,3.7,25.7,10.2,36.4,18.8c-7-10.9-5.8-26.5,2.8-36.2c8.6-9.7,23.9-12.8,35.6-7.2
				c11.7,5.6,18.8,19.5,16.6,32.3c11.7-12.9,24-26.2,40.1-32.9c5.2-2.1,11.1-3.5,16.5-1.7c5.7,1.9,9.7,7.2,11.9,12.8
				c5.8,14.9-0.1,33.5-13.4,42.2c9.8-3.6,20.5-5.5,30.6-3.2s19.5,9.8,22,19.9c2.5,10.1-3.8,22.2-14,24.1l0,2.5L112.6,332.4
				L112.6,332.4z"/>
			<path class="st11" d="M648,318.9c-12.9-4-26.1,5.9-34.5,16.7c2.5-8.4,3.8-17.1,3.6-26c-0.2-7-1-20.5-10.9-20.5
				c-8.8,0-13.6,11.7-15.8,18.5c-1.9,5.9-2.9,11.9-2.9,18c-2-4.3-4.5-8.4-7.6-12.1c-5.3-6.3-14.2-13.3-22.9-9.3
				c-6.4,3-8.9,11-8,17.6c0.5,3.2,1.7,6.1,3.4,8.7c-5.9-2.2-12-1.8-16.6,4.8c-6,8.5,4.5,19,13.1,13.7c1.3-0.8-0.1-2.9-1.4-2
				c-4.9,3-12.1-1.5-11-7.3c0.9-5.1,6.8-7.6,11.4-7.6c2.5,0,4.8,0.7,6.9,1.7c3.6,4.2,8.2,7.7,12.4,10.8c1.3,1,2.7-0.7,1.6-1.9
				c-2.9-3.1-6.9-6.9-11.4-9.6c-2.2-2.4-4-5.1-5.1-8.1c-2.5-6.8-0.6-17.3,7.6-19.1c9-2,16.9,6.9,21.4,13.6c3,4.5,5.2,9.4,6.7,14.5
				c0.4,2.9,1,5.7,1.7,8.5c0.4,1.3,2.6,0.9,2.4-0.5c-0.4-2.9-0.9-5.7-1.7-8.4c-0.8-6.1-0.7-12.3,0.5-18.5c0.8-4.2,2.1-8.4,4-12.3
				c1.8-3.8,6.6-13.4,12.5-11.2c9,3.4,7.6,19.1,7,26.6c-0.8,9.5-3.3,18.6-7.1,27.2c-0.6,1.4,1.5,2.5,2.2,1.1
				c5.4-11.3,15.6-22.1,28.1-25.2c7.5-1.9,17.9,0.7,16,10.7c-1.7,8.7-10.8,12.2-18.1,15c-1.5,0.6-0.7,2.9,0.8,2.3
				c7.7-2.9,16.6-6.6,19.2-15.2C657.5,327.7,654.7,321,648,318.9z"/>
			<path class="st11" d="M318.5,304.3c-2.7-7-11.7-6.7-17.9-6.2c-9.5,0.8-18.6,3.3-27.3,7.2c4-10.2,8.5-20.4,11.7-30.8
				c1.9-6.3-0.2-13.4-8.1-12.5c-8.1,0.9-16,10.2-21.2,15.8c-6.3,6.9-11.4,14.6-15.6,23c-1.6-7.3-4.1-14.4-7.8-21
				c-2.5-4.6-6.7-12.6-13.2-11.6c-5,0.8-6.8,6.6-8,10.7c-2.6,8.7-3.8,17.7-3.8,26.8c-4.4-5-9.5-9.2-15.5-12.4
				c-5.5-2.9-15.2-7.5-21.5-5.1c-4.6,1.8-5.5,7-3.7,11.2c1.3,3.1,3.7,4.9,6.6,6.2c-5.1,0.3-10.2,0.9-15,2.6c-4.3,1.5-10,4-10.3,9.3
				c-0.2,4.5,3.5,8.6,7.5,10c6.3,2.2,12.9-1.4,18.3-4.3c1.4-0.7,0-2.8-1.4-2c-4.9,2.7-11.6,6.4-17.2,3.5c-3.6-1.8-4.5-4.2-3.4-7.9
				c1.3-4,2.3-4.3,6.3-5.9c8-3,16.8-3,25.2-3c1.4,0,1.5-2.3,0.1-2.4c-5.3-0.7-12.8-1.5-14.8-7.5c-1.6-4.9,4.2-7.6,8.2-7.5
				c2.5,0.1,5.6,1.4,7.9,2.3c9.1,3.4,16.8,9.3,22.9,16.9c0.8,1,2.3,0.5,2.2-0.8c-0.2-6.9,0.2-13.8,1.5-20.5c0.9-4.8,1.7-12.4,5.3-16
				c7-6.9,14.8,10.7,16.3,14.2c2.6,5.8,4.3,11.8,5.4,18c0.2,1.1,1.8,1.6,2.3,0.4c6.2-13.5,15.3-25.6,26.8-35.1
				c1.3-1.1,2.6-2.1,4-3.1c1.1-0.6,2.1-1.2,3.2-1.8c3.7-2,5.9-0.9,6.5,3.2c2.4,4.6,1.7,5,0.1,9.4c-0.7,1.9-1.4,3.8-2.2,5.7
				c-3,7.9-6,15.8-9,23.8c-0.3,0.9,0.5,2.2,1.5,1.7c5.8-2.8,11.8-5,18-6.5c5.8-1.3,20.2-4.9,24.6,0.5c2.1,1.1,2.4,2.7,0.7,5
				c0.4,2.3-0.3,3.8-2.1,4.3c-1.1,0.9-2.9,1.3-4.3,1.7c-3.1,0.9-6.4,1.6-9.6,2.3c-7.3,1.7-14.6,3.5-21.9,5.2
				c-1.5,0.4-0.7,2.7,0.8,2.3c10.9-2.6,22.5-4.3,33-8C315.7,314,320.7,310.1,318.5,304.3z"/>
		</g>
		<g>
			<path class="st0" d="M265.6,122.7c-35,0-63.5,28.4-63.5,63.4c0,35,28.4,63.4,63.5,63.4c8.8,0,17.1-1.8,24.7-5
				c3.1-1.3,6.1-2.9,9-4.7c2.1-1.3,4.1-2.8,6.1-4.3c3-2.5,5.9-5.2,8.4-8.2c1.5-1.8,3-3.7,4.3-5.7c6.9-10.2,10.9-22.4,10.9-35.6
				C329,151.1,300.6,122.7,265.6,122.7z M300.3,228.1c-4.5,3.7-9.6,6.8-15.2,8.9c-6.1,2.3-12.7,3.6-19.6,3.6
				c-30.1,0-54.5-24.4-54.5-54.5c0-30.1,24.4-54.5,54.5-54.5c30.1,0,54.5,24.4,54.5,54.5C320.1,203.1,312.4,218.1,300.3,228.1z"/>
			<path class="st12" d="M265.6,131.7c30.1,0,54.5,24.4,54.5,54.5s-24.4,54.5-54.5,54.5s-54.5-24.4-54.5-54.5
				S235.5,131.7,265.6,131.7z"/>
			<g id="XMLID_00000057836656476425173760000003465296012985832577_">
				<g>
					<path class="st1" d="M429.7,565.9c1.4-4.6,2.9-10.1,4.2-14.8h0v0c3.3,1.3,6.7,2.3,10.1,3c0,0,0.1,0,0.1,0
						c12,9.8,21.6,20.6,29.7,33.8C458.3,583.3,442.6,575.7,429.7,565.9z"/>
					<path class="st13" d="M435.6,531.8c0.6-26.1,1.6-52.1,5.5-77.9c0.9-5.6,1.9-11.3,4.4-16.4c2.5-5.1,6.8-9.6,12.2-11.1
						c-18.5,2.3-58.3,4.4-76.9,3.6c-7.8-0.3-16-1.1-22.5-5.3c-7.6-5-11.8-14.1-12.7-23.2c-0.9-9.1,0.9-18.2,3.1-27
						c1-4.1,2.2-9,3.1-13.8l1,0.2c5.5,0,11,0,16.6,0l7.7,11.3c2.5,3.6,7.4,4.6,11,2.1l1.4-0.9c1.8-1.2,2.9-3,3.3-5
						c10.1,1.2,76.9,9.5,106.9,23l1.6,0.7c-1.1,3.5-2.2,7-3.3,10.6c-14.4,45.3-30.1,90.2-47.3,134.5c-5.1-1.6-10.2-3.1-15.2-4.7
						C435.5,532.2,435.5,532,435.6,531.8z"/>
					<path class="st14" d="M435.5,532.4c5,1.6,10.1,3.1,15.2,4.7c-2.2,5.7-4.4,11.4-6.7,17c-3.4-0.6-6.8-1.6-10.1-3v0
						C434.6,544.7,435.3,538.7,435.5,532.4z"/>
					<path class="st6" d="M353.7,341.7c-2.6,1.1-5.7,0.5-8.1-1c-2.8-1.8-4.8-4.6-6.7-7.4c-11.4-17-21.9-34.7-31.3-52.9l-0.1-0.2
						c1.9-0.5,3.5-1.7,4.7-3.3l42,61.7C353.9,339.7,353.7,340.7,353.7,341.7z"/>
					<path class="st14" d="M354.4,338.7l8.9,13.1c-2.8-0.5-5.5-1.8-7.3-4c-0.8-0.9-1.4-2.1-1.8-3.3c-0.3-0.9-0.4-1.8-0.4-2.8
						C353.7,340.7,353.9,339.7,354.4,338.7z"/>
					<path class="st1" d="M584.9,515.6c12.3-4.4,26.3-6.3,39.3-7.9c-13.1,12-27.9,22.1-43.9,29.9l0-0.1c-2.8-6-5.5-12.1-8.3-18.1
						C576.3,519.8,581.4,518.3,584.9,515.6z"/>
					<path class="st14" d="M584.8,515.6C584.8,515.6,584.9,515.6,584.8,515.6c-3.4,2.7-8.5,4.2-12.8,3.8c-3.4-4.1-6.9-8.2-10.3-12.4
						c5-1.4,13.7-4.8,17.8-6.7C581.3,505.5,583.1,510.5,584.8,515.6z"/>
					<path class="st15" d="M579.3,499.8c0.1,0.2,0.1,0.4,0.2,0.5c-4.1,1.9-12.7,5.3-17.8,6.7c-14.9-18.1-29.4-36.5-44.5-54.5
						c-7.3-8.7-14.8-17.7-18.1-28.6c-2.1-6.9-2.4-14.3-0.8-21.3l-0.4-0.1c1.1-3.5,2.2-7,3.3-10.6l-1.6-0.7
						c-30.1-13.5-96.8-21.8-106.9-23c0.4-2,0-4.2-1.2-6.1l-1.4-2.1c10.9-0.5,21.8-1.3,32.7-2.3c0.7,0,1.3-0.1,2-0.2l0,0.4
						c28.5-1.5,57.2-0.5,85.6,3C536.3,405.7,561.7,451.3,579.3,499.8z"/>
					<path class="st13" d="M375.9,174.8c-6.1,7-14.5,12-23.6,13.9l-0.4,0c0.3,6.6,1,13.2,2,19.8l-0.7,0.1
						c-7.2-11.9-5.4-28.5,4.1-38.6c9.6-10.1,26-12.8,38.3-6.3c8.1,4.3,13.9,11.8,19.8,18.7c5.9,7,12.6,13.9,21.4,16.5
						c4.6,1.4,9.6,1.4,14.3,2.5c4.7,1.1,9.5,3.5,11.6,7.9c1.8,4,0.9,8.8-0.6,12.9c-1.5,4.2-3.7,8.2-4.2,12.6
						c-0.5,4.4,0.6,8.8,1.5,13.1c0.9,4.3,1.7,8.8,0.5,13.1c-2.7,10-12.3,8.8-17.8,8.3c-1.9-10.5-4.6-20.8-8-30.8l-0.9-0.7
						c-11.3-1.5-22.7-2.2-34.1-2.1l-2.3,0.2c0-0.3-0.1-0.5-0.2-0.8c-1.6-7.7-2.6-15.5-2.9-23.3c3.7-2.5,6.2-6.7,6.6-11.2
						c0.1-1.3,0-2.5-0.5-3.7c-0.5-1.1-1.5-2.1-2.7-2.4c-1.1-0.2-2.3,0.1-3.3,0.7c-1,0.6-1.8,1.5-2.6,2.3
						C383.4,192.4,377.6,184.1,375.9,174.8z"/>
					<path class="st6" d="M386.5,248.9c3.6-4.5,7-9.1,10.1-13.9c0,0.3,0.1,0.5,0.2,0.8l2.3-0.2c11.4-0.2,22.9,0.5,34.1,2.1l0.9,0.7
						c3.4,10,6.1,20.3,8,30.8c2.3,12.4,3.4,25,3.4,37.6v0.1c-7.3,5.1-14.8,9.9-22.4,14.5c-11.4,6.8-23,13.1-35,18.8
						c-1.8-3.5-3.6-7.1-5.4-10.7c0,0,0-0.1-0.1-0.2c-0.2,0.1-0.3,0.3-0.5,0.4c-3.1,1.4-6.4,1.7-9.9,2.2c-0.4,0-0.7,0.1-1.1,0.1
						l-11.4-16.8l-27.2-40l0.4-0.3c4.2-7.9,12.4-24.3,18.3-31l0.1,0.1c6.5-2.6,13.4-4.5,20.4-5.5l0,0.1c4.4,3.9,9.2,7.3,14.5,10
						L386.5,248.9z"/>
					<path class="st6" d="M388.1,340.2c12-5.7,23.7-12,35-18.8v0c0,12.1-0.1,24.1-0.2,36.2l0,0.3c-10.9,1-21.8,1.8-32.7,2.3
						l-9.1-13.3C383.5,345,385.5,342.8,388.1,340.2C388,340.2,388,340.2,388.1,340.2z"/>
					<path class="st14" d="M393.8,211.6c0.3,7.8,1.2,15.7,2.9,23.3c-3.1,4.8-6.5,9.5-10.1,13.9l-0.3-0.2c-5.2-2.7-10.1-6.1-14.5-10
						l0-0.1c0.1,0,0.2,0,0.4,0v0c0.2-4.8,0.4-9.5,0.6-14.3h-0.2c-3-0.3-6.1-0.6-9-1.5c-2.9-1-5.6-2.7-7.2-5.2
						c-1.3-2.1-1.8-4.7-2.2-7.2c-0.1-0.6-0.2-1.2-0.2-1.7c-1-6.6-1.7-13.1-2-19.8l0.4,0c9.1-1.9,17.5-6.9,23.6-13.9
						c1.7,9.2,7.5,17.6,15.5,22.5c0.8-0.9,1.6-1.7,2.6-2.3c1-0.6,2.2-0.9,3.3-0.7c1.2,0.3,2.2,1.3,2.7,2.4c0.5,1.2,0.6,2.4,0.5,3.7
						C400,204.9,397.5,209.1,393.8,211.6z"/>
					<path class="st0" d="M392.8,368.3c-0.4,2-1.5,3.8-3.3,5l-1.4,0.9c-3.6,2.5-8.6,1.5-11-2.1l-7.7-11.3c6.9-0.1,13.9-0.3,20.8-0.6
						l1.4,2.1C392.9,364.1,393.2,366.3,392.8,368.3z"/>
					<path class="st0" d="M381.1,346.8l9.1,13.3c-6.9,0.3-13.9,0.5-20.8,0.6l-6.1-9c0.4,0.1,0.9,0.1,1.3,0.2
						c3.3,0.3,6.6-0.4,9.7-1.5C377.1,349.6,379.2,348.3,381.1,346.8z"/>
					<path class="st14" d="M382.1,329.8c0.2-0.1,0.4-0.2,0.6-0.3c1.8,3.5,3.6,7.1,5.4,10.7c0,0-0.1,0-0.1,0
						c-2.4,2.6-4.5,4.8-6.8,6.6l-10.1-14.8c0.3,0,0.7,0,1.1-0.1C375.6,331.5,378.9,331.2,382.1,329.8z"/>
					<path class="st14" d="M371.1,332.1l10.1,14.8c-1.9,1.5-4.1,2.7-6.8,3.7c-3.1,1.1-6.4,1.8-9.7,1.5c-0.4,0-0.9-0.1-1.3-0.2
						l-8.9-13.1c0,0,0-0.1,0-0.1c1.4-3,4.6-4.8,7.8-5.5C365.1,332.3,368.1,332.3,371.1,332.1z"/>
					<path class="st0" d="M359.7,315.3l11.4,16.8c-3,0.3-6,0.3-8.8,1c-3.2,0.7-6.5,2.5-7.8,5.5c0,0,0,0.1,0,0.1l-42-61.7
						c0.7-0.9,1.3-1.8,1.8-2.8c2.7-4.9,4.1-10.5,4.1-16c0-1.5-0.2-3.2-0.7-4.7l14.9,21.9L359.7,315.3z"/>
					<path class="st6" d="M363.3,351.8l6.1,9c-5.5,0.1-11,0.1-16.6,0l-1-0.2c1.1-5.6,2-11.3,2.3-16.1h0c0.4,1.2,1,2.3,1.8,3.3
						C357.8,350,360.5,351.3,363.3,351.8z"/>
					<path class="st14" d="M305,252.7L305,252.7c0.8-0.9,1.5-1.7,2.5-2.4c1.9-1.3,4.4-2,6.5-1.2c0.4,0.1,0.8,0.4,1.1,0.6l2.5,3.7
						c0.5,1.5,0.7,3.2,0.7,4.7c0,5.6-1.4,11.1-4.1,16c-0.5,1-1.1,1.9-1.8,2.8L300.1,259C301.4,256.6,303,254.5,305,252.7z"/>
					<path class="st14" d="M317.6,253.4l-2.5-3.7C316.3,250.6,317.1,251.9,317.6,253.4z"/>
					<path class="st0" d="M315.1,249.7c-0.3-0.2-0.7-0.5-1.1-0.6c-2.1-0.8-4.6-0.2-6.5,1.2c-0.9,0.7-1.7,1.5-2.5,2.4l0,0
						c-2,1.8-3.6,4-4.8,6.4l-9.8-14.4l-5.1-7.6c5.6-2.1,10.7-5.2,15.2-8.9l5.1,7.4L315.1,249.7z"/>
					<path class="st14" d="M300.1,259l12.2,17.9c-1.3,1.5-2.8,2.8-4.7,3.3h0c-3.2,0.7-6.6-1.2-8.4-4s-2-6.3-1.5-9.6
						C298.1,264,298.9,261.4,300.1,259z"/>
				</g>
			</g>
			<path class="st13" d="M359.2,193.8c-1.9-0.6-2.7,1.2-2.8,2.8c-0.1,0.2,0,4.9,2,5.2c2,0.3,2.7-1.9,2.8-3.5
				C361.2,196.7,361,194.4,359.2,193.8z"/>
			<path class="st13" d="M360.5,189.4c-2.3-0.3-4.4,0.5-5.9,2.3c-1,1.2,0.8,2.8,1.9,1.6c0.9-1.1,2.1-1.6,3.5-1.5
				C361.6,192,362,189.6,360.5,189.4z"/>
			<path class="st13" d="M378,196.4c-0.2-0.9-0.5-2-1.3-2.5c-0.8-0.5-1.8-0.5-2.5,0.2c-0.8,0.7-1,1.8-0.9,2.9c0,1.8,0.6,3.9,2.4,4.3
				C378.2,201.7,378.3,198,378,196.4z"/>
			<path class="st13" d="M373.8,189.4c2.3-0.3,4.4,0.5,5.9,2.3c1,1.2-0.8,2.8-1.9,1.6c-0.9-1.1-2.1-1.6-3.5-1.5
				C372.7,192,372.2,189.6,373.8,189.4z"/>
			<path class="st13" d="M372,214.1c-2.1,2.6-5.5,2.7-7.8,0.3c-1.1-1.1-2.7,0.7-1.6,1.9c3.2,3.3,8.4,3,11.3-0.6
				C374.9,214.4,373,212.8,372,214.1z"/>
			<path class="st16" d="M387.6,206.4c-0.6-2.8-3.4-4.6-6.2-3.9c-0.7,0.2-1.3,0.6-1.9,1c-2,1-3.2,3.4-2.5,5.6
				c0.8,2.8,3.6,4.4,6.4,3.8C386.3,212.2,388.3,209.3,387.6,206.4z"/>
			<path class="st16" d="M367,209c-3.1,1-1.4-5-1.3-6.1c0.3-1.9,0.6-3.7,0.9-5.6c0.3-1.6-2.2-2-2.4-0.5c-0.6,3.4-4.6,17,3.6,14.4
				C369.3,210.9,368.5,208.5,367,209z"/>
			<path class="st17" d="M437.5,257.2c-4.7,0.5-7.5-3.7-11.8-4.4c-3-0.5-5.8,0.6-8.4,2.1c-5.8,3.4-9.6,7.8-17.1,6
				c-5.1-1.2-9.6-4.2-14.8-5.1c-3.7-0.6-6.8,0-10.2,1.4c-6.8,2.6-10.9,1.7-17.6-0.6c-5.8-2-12.4-2.8-16.4,2.8
				c-0.9,1.3,0.9,2.9,1.9,1.6c6.3-8.9,18,1.6,26.3,0.7c3.3-0.4,6.1-2.3,9.3-3.1c6.4-1.8,12,1.7,17.7,3.8c6.5,2.3,11.8,2.1,17.5-1.8
				c5.3-3.7,9-6.6,15.7-3.3c2.9,1.5,4.7,2.8,8.1,2.5C439.2,259.5,439.1,257.1,437.5,257.2z"/>
			<path class="st17" d="M442.6,274.1c-6-6.6-14.6-2.9-21.6-0.1c-6.5,2.6-12,2.2-18.5,0.1c-4.7-1.5-9.4-3.4-14.3-3.3
				c-4.7,0-8.8,2-13.1,3.7c-7.8,3.1-13.3,2-21.1-0.8c-7.1-2.6-15.4-4.4-20.8,2.4c-1,1.2,0.9,2.8,1.9,1.6c7.6-9.7,19.9,0.8,29.1,1.5
				c8.7,0.7,15.6-6,24.1-6c8.4,0,15.8,5.5,24.3,5.3c9-0.2,20.6-11.2,28.4-2.6C442.1,277.1,443.7,275.2,442.6,274.1z"/>
			<path class="st17" d="M445.3,290c-10.1-4.1-17.7,5.7-27.5,4.4c-8.8-1.2-14.5-8.5-24-6.5c-4.2,0.9-7.9,3-11.9,4.6
				c-6.9,2.8-11.8,2-18.6-0.8c-6-2.5-12.8-4.4-17.8,0.9c-1.1,1.1,0.8,2.7,1.9,1.6c7-7.3,17,2.3,24.8,2.8c8.1,0.6,14.6-5.1,22.2-6.7
				c9.2-2,15.3,5.7,23.9,6.5c9.2,0.9,16.9-8.4,26-4.7C445.7,292.8,446.8,290.6,445.3,290z"/>
			<path class="st17" d="M434.2,313.5c-5.8-2.4-11.8-3.6-18.1-3c-7,0.7-13,4.4-19.9,5.7c-12,2.4-25.6-10.9-36.6-1.5
				c-1.2,1,0.2,3.1,1.4,2c10-8.6,23.2,3.9,34.6,2.1c5.3-0.8,10-3.5,15.2-4.9c7.5-2.1,15.3-1.3,22.4,1.8
				C434.5,316.4,435.6,314.1,434.2,313.5z"/>
			<path class="st17" d="M422.6,340.8c-12.1-5.5-23.3,6.9-35.2,2.1c-1.5-0.6-2.5,1.6-1.1,2.2c12.1,4.9,23.5-7.4,35.2-2.1
				C423,343.7,424.1,341.5,422.6,340.8z"/>
			<path class="st8" d="M422.6,296l-11.9-45.4c-0.4-1.5-2.7-0.7-2.3,0.8c4,15.2,8,30.4,12,45.6c-12.3,10.3-24.5,20.6-36.8,30.8
				c-1.2,1,0.2,3,1.4,2c12.6-10.6,25.3-21.2,37.9-31.7C423.6,297.5,423.3,296.4,422.6,296z"/>
			<path class="st8" d="M361.5,257c0.7-1.4-1.5-2.5-2.2-1.1c-4.4,9.5-13.5,18-13.5,29.2c0,6.8,4.2,13.2,11,14.4
				c0.1,4.6,0.3,9.3,0.4,13.9c0.1,1.6,2.5,1.4,2.5-0.2c-0.2-4.9-0.3-9.7-0.5-14.6c0,0,0,0,0,0c0.2-0.6-0.1-1.3-0.9-1.4
				c-11.9-1.1-11.1-14.8-7.1-22.7C354.3,268.5,358.7,263.2,361.5,257z"/>
			<path class="st8" d="M421.1,322.1c-10.9,5.9-21.7,11.8-32.6,17.8c-1.4,0.8,0,2.8,1.4,2c10.9-5.9,21.7-11.8,32.6-17.8
				C423.9,323.4,422.5,321.4,421.1,322.1z"/>
		</g>
		<g>
			<path class="st6" d="M182.7,655.9l-40.7-11.8c-0.7-0.2-1.1-0.9-0.9-1.6l72.5-250.8c0.2-0.7,0.9-1.1,1.6-0.9l40.7,11.8
				c0.7,0.2,1.1,0.9,0.9,1.6L184.3,655C184.1,655.7,183.4,656.1,182.7,655.9z"/>
			
				<rect x="195.6" y="431.5" transform="matrix(0.9606 0.2778 -0.2778 0.9606 135.5524 -42.5651)" class="st7" width="44.9" height="51.2"/>
			
				<rect x="160.7" y="552" transform="matrix(0.9606 0.2778 -0.2778 0.9606 167.659 -28.1424)" class="st7" width="44.9" height="51.2"/>
			<path class="st8" d="M217.2,513.2c-1.3-2.7-3.2-4-5.1-4.2c0.8-4.4,1.4-8.9,1.5-13.2c0-2.4-0.3-5.3-3-6.3
				c-6.5-2.3-10.4,9.7-12.4,18.3c0-3.3,0-6.5-3-8.4c-2.7-1.7-5.5-0.3-7.2,1.9c-3.3,4.1-4.7,11.3-5.8,16.3
				c-1.7,7.7-2.2,15.4-1.9,23.3c0.1,1.7,2.7,1.5,2.6-0.2c-0.4-9.6,0.6-19.2,3.4-28.4c0.6-2.1,1.1-6,2.6-7.3c3.1-2.5,6.3,0.5,6.6,3.7
				c0.3,3-0.1,4.7,1.3,7.5c0.5,1.1,2.2,0.6,2.4-0.5c0.7-3.5,1.5-7,2.6-10.4c0.4-1.3,4.7-16.4,8.9-8.5c0.9,1.7-1.2,8.2-1.4,10.2
				c-0.1,0.9-0.2,1.7-0.4,2.6c-4.1,1.7-6.8,7.4-0.7,11.5c0.7,0.5,1.8-0.1,1.9-0.9c0.1-0.4,0.1-0.8,0.2-1.2c2.5,0,4.7-6.6,5.4-0.1
				c0.1,1.2,0.2,2.5,0.1,3.7c-0.1,3.8-1.1,7.6-2.7,11c-2.7,5.9-7.1,10.4-12.6,13.6c-1.5,0.8,0,3.1,1.4,2.2
				C213.1,543,223.3,526.3,217.2,513.2z"/>
			<path class="st8" d="M246.3,410.9c-3.1-4.5-7.7-0.2-11.1,3.8c1.1-4.4,1.8-9.7-1.3-11.5c-4.4-2.6-8.7,3.3-11.2,7.8
				c-0.9-3.1-2.7-5.9-6.4-5.4c-6.4,1-5,12.4-4.9,16.7c0,1.7,2.7,1.5,2.6-0.2c-0.1-2.6-1-7.6,0.3-9.7c0-2.6,2-3.1,5.8-1.5
				c0.4,1.4,0.6,2.9,0.6,4.4c0.1,1.3,1.9,1.7,2.5,0.5c0.8-1.8,6.9-14.3,9.9-6.9c0.9,2.2-1.5,8.4-1.9,10.8c-0.2,1.3,1.4,2.1,2.3,1.2
				c1.5-1.6,3-3.2,4.6-4.8l3-3.2c2.7,1.2,3.4,2.6,2.2,4.1c-0.3,2-2.6,4.4-3.7,6.1c-1.5,2.5-3,5-4.5,7.5c-0.9,1.5,1.5,2.7,2.4,1.2
				c2.9-4.9,7.8-10.5,9.3-16C247.3,414.1,247.4,412.4,246.3,410.9z"/>
			<path class="st8" d="M191.5,618.9c-1.5-7.8-8.2-0.4-12.1,4.6c0.4-4.5,1-9.6-0.2-13.3c-0.7-2.2-2.1-3.6-4.4-3.9
				c-7.5-1-8.2,8.5-10,14.3c-2.1-5.6-6-15.1-11.1-10.7c-2.8,2.4-2.8,8.5-3.2,11.7c-0.6,6-0.4,11.9,0.4,17.8c0.2,1.7,2.9,1.5,2.6-0.2
				c-0.9-6.5-1.1-12.9-0.2-19.4c0.5-3.5,0.2-9.9,6.3-3.7c1.7,1.8,2.7,6.1,3.8,8.4c0.5,1.1,1.8,1.2,2.4,0.2c1.3-1.9,1.9-3.6,2.4-5.8
				c0.1-0.7,0.2-1.3,0.4-2c0.1-3.8,2.8-5.5,8.1-5c0.5,1.4-0.1,5-0.1,6.4c-0.1,3.2-0.2,6.4-0.2,9.6c0,1.1,1.6,1.7,2.3,0.8
				c1.7-2.1,3.3-5.2,5.4-6.9c1.1-0.9,3.2-2.8,4.4-0.1c0.5,1.1-2.2,5.7-2.7,6.8c-2.9,6.2-7,11.7-11.8,16.6c-1.2,1.2,0.8,3,2,1.8
				c4.2-4.3,7.9-8.9,10.7-14.2C188.7,629.3,192.3,623.1,191.5,618.9z"/>
		</g>
	</g>
</g>
</svg>
